<svg width="29" height="22" viewBox="0 0 29 22" fill="none" xmlns="http://www.w3.org/2000/svg">
<path d="M25.25 4.4375H23.375V3.5C23.375 2.75408 23.0787 2.03871 22.5512 1.51126C22.0238 0.983816 21.3084 0.6875 20.5625 0.6875H3.6875C2.94158 0.6875 2.22621 0.983816 1.69876 1.51126C1.17132 2.03871 0.875 2.75408 0.875 3.5V14.75C0.875 15.4959 1.17132 16.2113 1.69876 16.7387C2.22621 17.2662 2.94158 17.5625 3.6875 17.5625H16.8125V18.5C16.8125 19.2459 17.1088 19.9613 17.6363 20.4887C18.1637 21.0162 18.8791 21.3125 19.625 21.3125H25.25C25.9959 21.3125 26.7113 21.0162 27.2387 20.4887C27.7662 19.9613 28.0625 19.2459 28.0625 18.5V7.25C28.0625 6.50408 27.7662 5.78871 27.2387 5.26126C26.7113 4.73382 25.9959 4.4375 25.25 4.4375ZM26.1875 18.5C26.1875 18.7486 26.0887 18.9871 25.9129 19.1629C25.7371 19.3387 25.4986 19.4375 25.25 19.4375H19.625C19.3764 19.4375 19.1379 19.3387 18.9621 19.1629C18.7863 18.9871 18.6875 18.7486 18.6875 18.5V7.25C18.6875 7.00136 18.7863 6.7629 18.9621 6.58709C19.1379 6.41127 19.3764 6.3125 19.625 6.3125H25.25C25.4986 6.3125 25.7371 6.41127 25.9129 6.58709C26.0887 6.7629 26.1875 7.00136 26.1875 7.25V18.5ZM14.9375 20.375C14.9375 20.6236 14.8387 20.8621 14.6629 21.0379C14.4871 21.2137 14.2486 21.3125 14 21.3125H9.3125C9.06386 21.3125 8.8254 21.2137 8.64959 21.0379C8.47377 20.8621 8.375 20.6236 8.375 20.375C8.375 20.1264 8.47377 19.8879 8.64959 19.7121C8.8254 19.5363 9.06386 19.4375 9.3125 19.4375H14C14.2486 19.4375 14.4871 19.5363 14.6629 19.7121C14.8387 19.8879 14.9375 20.1264 14.9375 20.375ZM24.3125 9.125C24.3125 9.37364 24.2137 9.6121 24.0379 9.78791C23.8621 9.96373 23.6236 10.0625 23.375 10.0625H21.5C21.2514 10.0625 21.0129 9.96373 20.8371 9.78791C20.6613 9.6121 20.5625 9.37364 20.5625 9.125C20.5625 8.87636 20.6613 8.6379 20.8371 8.46209C21.0129 8.28627 21.2514 8.1875 21.5 8.1875H23.375C23.6236 8.1875 23.8621 8.28627 24.0379 8.46209C24.2137 8.6379 24.3125 8.87636 24.3125 9.125Z" fill="#060505"/>
</svg>
