<svg width="28" height="27" viewBox="0 0 28 27" fill="none" xmlns="http://www.w3.org/2000/svg">
<path d="M19.625 8.76328V8.4375C19.625 7.94022 19.4275 7.46331 19.0758 7.11167C18.7242 6.76004 18.2473 6.5625 17.75 6.5625H14.9375V1.875C14.9375 1.62636 14.8387 1.3879 14.6629 1.21209C14.4871 1.03627 14.2487 0.9375 14 0.9375C13.7514 0.9375 13.5129 1.03627 13.3371 1.21209C13.1613 1.3879 13.0625 1.62636 13.0625 1.875V6.5625H10.25C9.75274 6.5625 9.27583 6.76004 8.9242 7.11167C8.57257 7.46331 8.37502 7.94022 8.37502 8.4375V8.76328C6.1281 9.82488 4.22969 11.504 2.9016 13.6044C1.57352 15.7049 0.870618 18.1399 0.875021 20.625C0.875021 20.8736 0.973793 21.1121 1.14961 21.2879C1.32542 21.4637 1.56388 21.5625 1.81252 21.5625H9.31252C9.31252 22.8057 9.80638 23.998 10.6855 24.8771C11.5645 25.7561 12.7568 26.25 14 26.25C15.2432 26.25 16.4355 25.7561 17.3146 24.8771C18.1937 23.998 18.6875 22.8057 18.6875 21.5625H26.1875C26.4362 21.5625 26.6746 21.4637 26.8504 21.2879C27.0262 21.1121 27.125 20.8736 27.125 20.625C27.1294 18.1399 26.4265 15.7049 25.0984 13.6044C23.7704 11.504 21.8719 9.82488 19.625 8.76328ZM14 24.375C13.2541 24.375 12.5387 24.0787 12.0113 23.5512C11.4838 23.0238 11.1875 22.3084 11.1875 21.5625H16.8125C16.8125 22.3084 16.5162 23.0238 15.9888 23.5512C15.4613 24.0787 14.7459 24.375 14 24.375Z" fill="#636363"/>
</svg>
