<svg width="28" height="22" viewBox="0 0 28 22" fill="none" xmlns="http://www.w3.org/2000/svg">
<path d="M1.75 13.8752C3.26175 13.874 4.75799 14.1798 6.14805 14.7741C6.2338 14.8096 6.30708 14.8697 6.35861 14.9469C6.41014 15.0241 6.4376 15.1148 6.4375 15.2077V19.5002C6.4375 19.9975 6.23996 20.4744 5.88832 20.8261C5.53669 21.1777 5.05978 21.3752 4.5625 21.3752H2.6875C2.19022 21.3752 1.71331 21.1777 1.36167 20.8261C1.01004 20.4744 0.8125 19.9975 0.8125 19.5002V14.344C0.8125 14.2197 0.861886 14.1004 0.949794 14.0125C1.0377 13.9246 1.15693 13.8752 1.28125 13.8752H1.75ZM25.0703 15.3037L19.0937 13.9584L6.16328 1.02445C6.07372 0.934926 5.96695 0.864476 5.84942 0.817347C5.73189 0.770219 5.60603 0.74739 5.47943 0.750237C5.35283 0.753084 5.22812 0.781549 5.11282 0.833914C4.99753 0.886279 4.89404 0.961459 4.80859 1.05492C2.23164 3.8721 0.8125 7.42992 0.8125 11.0627C0.8125 11.3114 0.911272 11.5498 1.08709 11.7256C1.2629 11.9015 1.50136 12.0002 1.75 12.0002C4.40146 11.9967 6.99092 12.8021 9.17266 14.3088C11.3008 15.7693 12.9531 17.8226 13.9246 20.2139C14.065 20.559 14.3056 20.8542 14.6154 21.0612C14.9252 21.2682 15.2899 21.3776 15.6625 21.3752H26.125C26.6223 21.3752 27.0992 21.1777 27.4508 20.8261C27.8025 20.4744 28 19.9975 28 19.5002V18.9459C28.0021 18.0953 27.7124 17.2696 27.1793 16.6067C26.6461 15.9439 25.9017 15.484 25.0703 15.3037Z" fill="#636363"/>
</svg>
