<svg width="30" height="17" viewBox="0 0 30 17" fill="none" xmlns="http://www.w3.org/2000/svg">
<path d="M5.99766 8.05195C4.53636 6.10921 3.74737 3.74348 3.75 1.3125C3.75 1.14727 3.75 0.983204 3.76055 0.819141C3.76686 0.699135 3.81901 0.586135 3.90625 0.503482C3.99348 0.420828 4.10913 0.374835 4.2293 0.375H12.5391C12.6318 0.374927 12.7225 0.40238 12.7997 0.453882C12.8768 0.505383 12.937 0.578619 12.9725 0.664318C13.008 0.750016 13.0173 0.844323 12.9992 0.9353C12.981 1.02628 12.9363 1.10983 12.8707 1.17539L5.99766 8.05195ZM14.0625 12.5227V2.63789L7.2457 9.45586C9.1003 11.2277 11.5063 12.3102 14.0625 12.5227ZM24.0023 8.05195C25.4636 6.10921 26.2526 3.74348 26.25 1.3125C26.25 1.14727 26.25 0.983204 26.2395 0.819141C26.2331 0.699135 26.181 0.586135 26.0938 0.503482C26.0065 0.420828 25.8909 0.374835 25.7707 0.375H17.4609C17.3682 0.374927 17.2775 0.40238 17.2003 0.453882C17.1232 0.505383 17.063 0.578619 17.0275 0.664318C16.992 0.750016 16.9827 0.844323 17.0008 0.9353C17.019 1.02628 17.0637 1.10983 17.1293 1.17539L24.0023 8.05195ZM29.0625 0.375H28.5844C28.5214 0.374962 28.4591 0.387608 28.4011 0.412184C28.3432 0.43676 28.2907 0.472763 28.247 0.518043C28.2032 0.563323 28.1691 0.616953 28.1465 0.675732C28.1239 0.73451 28.1134 0.797233 28.1156 0.860157C28.1156 1.01016 28.1238 1.16133 28.1238 1.3125C28.0911 4.77183 26.694 8.07836 24.2362 10.513C21.7785 12.9476 18.4589 14.3135 14.9994 14.3135C11.5399 14.3135 8.22034 12.9476 5.76259 10.513C3.30483 8.07836 1.90769 4.77183 1.875 1.3125C1.875 1.16133 1.875 1.01016 1.8832 0.860157C1.88541 0.797233 1.87491 0.73451 1.85234 0.675732C1.82977 0.616953 1.7956 0.563323 1.75185 0.518043C1.7081 0.472763 1.65568 0.43676 1.59771 0.412184C1.53974 0.387608 1.47742 0.374962 1.41445 0.375H0.9375C0.68886 0.375 0.450403 0.473773 0.274587 0.649588C0.0987721 0.825403 0 1.06386 0 1.3125C0 5.29075 1.58035 9.10606 4.3934 11.9191C7.20644 14.7321 11.0218 16.3125 15 16.3125C18.9782 16.3125 22.7936 14.7321 25.6066 11.9191C28.4196 9.10606 30 5.29075 30 1.3125C30 1.06386 29.9012 0.825403 29.7254 0.649588C29.5496 0.473773 29.3111 0.375 29.0625 0.375ZM15.9375 2.63789V12.5227C18.4937 12.3102 20.8997 11.2277 22.7543 9.45586L15.9375 2.63789Z" fill="#636363"/>
</svg>
