<svg width="26" height="25" viewBox="0 0 26 25" fill="none" xmlns="http://www.w3.org/2000/svg">
<path d="M23.3125 7.43914H19.2016C19.2473 7.40046 19.2941 7.36296 19.3387 7.32195C19.6946 7.00575 19.9814 6.61951 20.1812 6.1874C20.3811 5.75529 20.4896 5.28659 20.5 4.81062C20.5154 4.28993 20.4242 3.77158 20.232 3.2874C20.0398 2.80323 19.7507 2.36344 19.3824 1.99503C19.0141 1.62663 18.5744 1.33739 18.0903 1.14507C17.6062 0.952743 17.0879 0.861397 16.5672 0.876636C16.091 0.886892 15.6221 0.995329 15.1898 1.19516C14.7574 1.39499 14.371 1.68191 14.0547 2.03796C13.617 2.54526 13.2611 3.11778 13 3.73484C12.7389 3.11778 12.383 2.54526 11.9453 2.03796C11.629 1.68191 11.2426 1.39499 10.8102 1.19516C10.3779 0.995329 9.90898 0.886892 9.43281 0.876636C8.91211 0.861397 8.39379 0.952743 7.90967 1.14507C7.42555 1.33739 6.98585 1.62663 6.61756 1.99503C6.24926 2.36344 5.96015 2.80323 5.76798 3.2874C5.5758 3.77158 5.48461 4.28993 5.5 4.81062C5.51042 5.28659 5.61893 5.75529 5.81876 6.1874C6.01858 6.61951 6.30542 7.00575 6.66133 7.32195C6.70586 7.36062 6.75273 7.39812 6.79844 7.43914H2.6875C2.19022 7.43914 1.71331 7.63668 1.36167 7.98831C1.01004 8.33994 0.8125 8.81686 0.8125 9.31414V13.0641C0.8125 13.5614 1.01004 14.0383 1.36167 14.39C1.71331 14.7416 2.19022 14.9391 2.6875 14.9391V22.4391C2.6875 22.9364 2.88504 23.4133 3.23667 23.765C3.58831 24.1166 4.06522 24.3141 4.5625 24.3141H11.5938C11.7181 24.3141 11.8373 24.2648 11.9252 24.1768C12.0131 24.0889 12.0625 23.9697 12.0625 23.8454V13.0641H2.6875V9.31414H12.0625V13.0641H13.9375V9.31414H23.3125V13.0641H13.9375V23.8454C13.9375 23.9697 13.9869 24.0889 14.0748 24.1768C14.1627 24.2648 14.2819 24.3141 14.4062 24.3141H21.4375C21.9348 24.3141 22.4117 24.1166 22.7633 23.765C23.115 23.4133 23.3125 22.9364 23.3125 22.4391V14.9391C23.8098 14.9391 24.2867 14.7416 24.6383 14.39C24.99 14.0383 25.1875 13.5614 25.1875 13.0641V9.31414C25.1875 8.81686 24.99 8.33994 24.6383 7.98831C24.2867 7.63668 23.8098 7.43914 23.3125 7.43914ZM7.90352 5.9157C7.73959 5.76726 7.60813 5.58653 7.51738 5.38487C7.42663 5.1832 7.37856 4.96495 7.37617 4.74382C7.37025 4.48472 7.41609 4.22705 7.51102 3.98589C7.60595 3.74474 7.74805 3.52495 7.929 3.33942C8.10995 3.15388 8.32612 3.00633 8.56482 2.9054C8.80353 2.80447 9.05997 2.75219 9.31914 2.75164H9.37656C9.59769 2.75402 9.81594 2.8021 10.0176 2.89285C10.2193 2.9836 10.4 3.11506 10.5484 3.27898C11.5316 4.38992 11.8785 6.2321 12.0004 7.37117C10.8566 7.25046 9.01562 6.90359 7.90352 5.9157ZM18.0988 5.9157C16.9867 6.90007 15.141 7.24695 13.9973 7.36882C14.1367 6.13718 14.5234 4.33367 15.4609 3.28015C15.6094 3.11623 15.7901 2.98477 15.9918 2.89402C16.1934 2.80327 16.4117 2.75519 16.6328 2.75281H16.6902C16.9494 2.75443 17.2057 2.80776 17.444 2.90969C17.6823 3.01161 17.8978 3.16008 18.078 3.34638C18.2582 3.53268 18.3994 3.75308 18.4933 3.99465C18.5873 4.23622 18.632 4.49411 18.625 4.7532C18.6212 4.97283 18.5723 5.18933 18.4814 5.3893C18.3905 5.58927 18.2595 5.76843 18.0965 5.9157H18.0988Z" fill="#636363"/>
</svg>
