<svg width="28" height="25" viewBox="0 0 28 25" fill="none" xmlns="http://www.w3.org/2000/svg">
<path d="M26.8907 8.69631C26.8029 8.59609 26.6948 8.51573 26.5736 8.46056C26.4524 8.4054 26.3208 8.3767 26.1876 8.37639H20.988L14.7032 1.19631C14.6152 1.09655 14.507 1.01666 14.3858 0.961933C14.2646 0.907208 14.1331 0.878906 14.0001 0.878906C13.8671 0.878906 13.7356 0.907208 13.6143 0.961933C13.4931 1.01666 13.3849 1.09655 13.2969 1.19631L7.01217 8.37639H1.81256C1.67895 8.37638 1.54688 8.40493 1.42521 8.46013C1.30353 8.51532 1.19506 8.59589 1.10706 8.69643C1.01906 8.79697 0.953564 8.91515 0.914968 9.04307C0.876371 9.17098 0.865563 9.30567 0.883266 9.43811L2.64928 22.6873C2.71089 23.137 2.93291 23.5492 3.27444 23.8481C3.61598 24.147 4.05402 24.3124 4.50787 24.3139H23.4922C23.9461 24.3124 24.3841 24.147 24.7257 23.8481C25.0672 23.5492 25.2892 23.137 25.3508 22.6873L27.1169 9.43811C27.1343 9.30548 27.1231 9.17067 27.0841 9.04272C27.0451 8.91478 26.9791 8.79666 26.8907 8.69631ZM8.56256 20.5639C8.53095 20.5656 8.49926 20.5656 8.46764 20.5639C8.23442 20.5651 8.00914 20.4793 7.83579 20.3232C7.66244 20.1672 7.55346 19.9522 7.53014 19.7201L6.87389 13.1576C6.84903 12.9102 6.92346 12.6631 7.08081 12.4706C7.23817 12.2781 7.46556 12.1559 7.71295 12.1311C7.96035 12.1062 8.20749 12.1806 8.40001 12.338C8.59253 12.4954 8.71465 12.7227 8.73952 12.9701L9.39577 19.5326C9.42202 19.7799 9.34899 20.0274 9.19273 20.2208C9.03648 20.4142 8.8098 20.5376 8.56256 20.5639ZM14.9376 19.6264C14.9376 19.875 14.8388 20.1135 14.663 20.2893C14.4872 20.4651 14.2487 20.5639 14.0001 20.5639C13.7514 20.5639 13.513 20.4651 13.3371 20.2893C13.1613 20.1135 13.0626 19.875 13.0626 19.6264V13.0639C13.0626 12.8152 13.1613 12.5768 13.3371 12.401C13.513 12.2252 13.7514 12.1264 14.0001 12.1264C14.2487 12.1264 14.4872 12.2252 14.663 12.401C14.8388 12.5768 14.9376 12.8152 14.9376 13.0639V19.6264ZM9.50358 8.37639L14.0001 3.23771L18.4965 8.37639H9.50358ZM21.1204 13.1576L20.4641 19.7201C20.4409 19.9512 20.3328 20.1654 20.1606 20.3213C19.9885 20.4771 19.7647 20.5636 19.5325 20.5639C19.5009 20.5656 19.4692 20.5656 19.4376 20.5639C19.3151 20.5516 19.1962 20.5153 19.0877 20.457C18.9793 20.3988 18.8833 20.3197 18.8054 20.2244C18.7275 20.1291 18.6691 20.0193 18.6336 19.9014C18.5981 19.7835 18.5862 19.6598 18.5985 19.5373L19.2547 12.9748C19.2796 12.7274 19.4017 12.5 19.5943 12.3427C19.7868 12.1853 20.0339 12.1109 20.2813 12.1358C20.5287 12.1606 20.7561 12.2827 20.9135 12.4753C21.0708 12.6678 21.1452 12.9149 21.1204 13.1623V13.1576Z" fill="#060505"/>
</svg>
