<svg width="28" height="24" viewBox="0 0 28 24" fill="none" xmlns="http://www.w3.org/2000/svg">
<path d="M27.125 9.65625C27.125 10.3052 26.9326 10.9396 26.572 11.4792C26.2115 12.0188 25.699 12.4394 25.0994 12.6877C24.4999 12.9361 23.8401 13.0011 23.2036 12.8745C22.5671 12.7478 21.9824 12.4353 21.5236 11.9764C21.0647 11.5176 20.7522 10.9329 20.6255 10.2964C20.4989 9.65989 20.5639 9.00014 20.8123 8.40057C21.0606 7.801 21.4812 7.28854 22.0208 6.92799C22.5604 6.56744 23.1948 6.375 23.8438 6.375C24.714 6.375 25.5486 6.7207 26.1639 7.33606C26.7793 7.95141 27.125 8.78601 27.125 9.65625ZM7.4375 9.65625C7.4375 9.00728 7.24506 8.37288 6.88451 7.83329C6.52396 7.29369 6.0115 6.87312 5.41193 6.62477C4.81236 6.37642 4.15261 6.31144 3.51611 6.43805C2.87961 6.56466 2.29495 6.87717 1.83606 7.33606C1.37717 7.79495 1.06466 8.37961 0.93805 9.01611C0.811442 9.65261 0.876422 10.3124 1.12477 10.9119C1.37312 11.5115 1.79369 12.024 2.33329 12.3845C2.87289 12.7451 3.50728 12.9375 4.15625 12.9375C5.02649 12.9375 5.86109 12.5918 6.47645 11.9764C7.0918 11.3611 7.4375 10.5265 7.4375 9.65625ZM9.78125 7.3125C10.4302 7.3125 11.0646 7.12006 11.6042 6.75951C12.1438 6.39896 12.5644 5.8865 12.8127 5.28693C13.0611 4.68736 13.1261 4.02761 12.9995 3.39111C12.8728 2.75461 12.5603 2.16995 12.1014 1.71106C11.6426 1.25217 11.0579 0.939658 10.4214 0.81305C9.78489 0.686442 9.12514 0.751422 8.52557 0.999772C7.926 1.24812 7.41354 1.66869 7.05299 2.20829C6.69244 2.74789 6.5 3.38228 6.5 4.03125C6.5 4.90149 6.8457 5.73609 7.46106 6.35145C8.07641 6.9668 8.91101 7.3125 9.78125 7.3125ZM18.2188 7.3125C18.8677 7.3125 19.5021 7.12006 20.0417 6.75951C20.5813 6.39896 21.0019 5.8865 21.2502 5.28693C21.4986 4.68736 21.5636 4.02761 21.437 3.39111C21.3103 2.75461 20.9978 2.16995 20.5389 1.71106C20.0801 1.25217 19.4954 0.939658 18.8589 0.81305C18.2224 0.686442 17.5626 0.751422 16.9631 0.999772C16.3635 1.24812 15.851 1.66869 15.4905 2.20829C15.1299 2.74789 14.9375 3.38228 14.9375 4.03125C14.9375 4.90149 15.2832 5.73609 15.8986 6.35145C16.5139 6.9668 17.3485 7.3125 18.2188 7.3125ZM20.9281 14.4445C20.4519 14.1818 20.0322 13.8278 19.693 13.4027C19.3538 12.9776 19.1017 12.4898 18.9512 11.9672C18.6395 10.8952 17.9883 9.95336 17.0954 9.28317C16.2026 8.61298 15.1164 8.25066 14 8.25066C12.8836 8.25066 11.7974 8.61298 10.9046 9.28317C10.0117 9.95336 9.36054 10.8952 9.04883 11.9672C8.74772 13.0188 8.04181 13.908 7.08594 14.4398C6.16897 14.936 5.44359 15.7237 5.02453 16.6784C4.60546 17.6331 4.51664 18.7002 4.7721 19.711C5.02756 20.7219 5.61273 21.6187 6.43505 22.2596C7.25737 22.9006 8.2699 23.2491 9.3125 23.25C9.9373 23.2518 10.556 23.127 11.1313 22.8832C12.9653 22.1268 15.0241 22.1268 16.8582 22.8832C17.9691 23.3663 19.2239 23.4007 20.3595 22.979C21.4951 22.5573 22.4234 21.7123 22.9497 20.6212C23.476 19.5301 23.5595 18.2776 23.1826 17.1263C22.8057 15.975 21.9978 15.0144 20.9281 14.4457V14.4445Z" fill="#636363"/>
</svg>
