<svg width="26" height="26" viewBox="0 0 26 26" fill="none" xmlns="http://www.w3.org/2000/svg">
<path d="M5.45325 3.43462C7.21083 2.04172 9.32023 1.16348 11.547 0.897508C11.6128 0.890053 11.6795 0.89664 11.7426 0.916835C11.8057 0.937029 11.8638 0.970373 11.9131 1.01467C11.9624 1.05896 12.0017 1.1132 12.0285 1.1738C12.0553 1.23441 12.0689 1.3 12.0685 1.36626V12.0608H9.21497C8.98202 9.04227 7.63149 6.21919 5.42747 4.1436C5.37816 4.09778 5.3393 4.04187 5.31353 3.97968C5.28777 3.91749 5.27569 3.85048 5.27814 3.78321C5.28059 3.71594 5.29749 3.64999 5.32771 3.58983C5.35792 3.52968 5.40074 3.47674 5.45325 3.43462ZM3.39075 5.50649C2.02382 7.25098 1.16095 9.33663 0.895827 11.537C0.888014 11.603 0.894333 11.6699 0.914365 11.7333C0.934398 11.7967 0.967685 11.8551 1.01202 11.9046C1.05635 11.9542 1.11071 11.9937 1.1715 12.0206C1.23228 12.0476 1.2981 12.0612 1.36458 12.0608H7.33176C7.10051 9.53177 5.94275 7.17744 4.08098 5.45024C4.03329 5.40583 3.97687 5.37185 3.91531 5.35047C3.85375 5.3291 3.78841 5.32079 3.72346 5.32608C3.6585 5.33137 3.59537 5.35015 3.53808 5.38122C3.4808 5.41228 3.43062 5.45495 3.39075 5.50649ZM20.547 3.43462C18.7894 2.04172 16.68 1.16348 14.4532 0.897508C14.3874 0.890053 14.3207 0.89664 14.2576 0.916835C14.1945 0.937029 14.1364 0.970373 14.0871 1.01467C14.0379 1.05896 13.9985 1.1132 13.9718 1.1738C13.945 1.23441 13.9313 1.3 13.9318 1.36626V12.0608H16.7794C17.0124 9.04227 18.3629 6.21919 20.5669 4.1436C20.6166 4.09819 20.6559 4.04261 20.6821 3.98066C20.7084 3.9187 20.721 3.85182 20.7191 3.78455C20.7172 3.71729 20.7009 3.65122 20.6712 3.59084C20.6415 3.53045 20.5991 3.47717 20.547 3.43462ZM25.1009 11.537C24.8368 9.33698 23.9752 7.25137 22.6095 5.50649C22.5696 5.45549 22.5196 5.41331 22.4627 5.38258C22.4057 5.35186 22.343 5.33327 22.2785 5.32799C22.2139 5.3227 22.149 5.33084 22.0878 5.35188C22.0266 5.37292 21.9704 5.40641 21.9228 5.45024C20.0597 7.17688 18.9007 9.53128 18.6685 12.0608H24.6345C24.7008 12.0609 24.7663 12.047 24.8268 12.0199C24.8873 11.9928 24.9414 11.9533 24.9855 11.9038C25.0296 11.8542 25.0626 11.796 25.0825 11.7327C25.1024 11.6695 25.1087 11.6028 25.1009 11.537ZM0.899342 14.4596C1.16344 16.6596 2.02508 18.7452 3.39075 20.4901C3.43061 20.5411 3.48061 20.5833 3.53758 20.614C3.59456 20.6447 3.65728 20.6633 3.72179 20.6686C3.7863 20.6739 3.85121 20.6657 3.91243 20.6447C3.97364 20.6237 4.02984 20.5902 4.07747 20.5463C5.94054 18.8197 7.09958 16.4653 7.33176 13.9358H1.36575C1.29947 13.9357 1.23391 13.9496 1.17341 13.9767C1.11291 14.0037 1.05883 14.0433 1.01476 14.0928C0.97068 14.1423 0.937603 14.2006 0.917708 14.2638C0.897814 14.3271 0.891554 14.3938 0.899342 14.4596ZM22.6095 20.4901C23.9764 18.7456 24.8393 16.6599 25.1044 14.4596C25.1122 14.3936 25.1059 14.3267 25.0859 14.2633C25.0659 14.1999 25.0326 14.1415 24.9882 14.0919C24.9439 14.0424 24.8895 14.0029 24.8288 13.9759C24.768 13.949 24.7022 13.9353 24.6357 13.9358H18.6685C18.8997 16.4648 20.0575 18.8191 21.9193 20.5463C21.967 20.5907 22.0234 20.6247 22.0849 20.6461C22.1465 20.6675 22.2118 20.6758 22.2768 20.6705C22.3417 20.6652 22.4049 20.6464 22.4622 20.6154C22.5195 20.5843 22.5696 20.5416 22.6095 20.4901ZM5.45325 22.562C7.21083 23.9549 9.32023 24.8331 11.547 25.0991C11.6128 25.1065 11.6795 25.0999 11.7426 25.0797C11.8057 25.0595 11.8638 25.0262 11.9131 24.9819C11.9624 24.9376 12.0017 24.8834 12.0285 24.8228C12.0553 24.7622 12.0689 24.6966 12.0685 24.6303V13.9358H9.21497C8.98202 16.9543 7.63149 19.7774 5.42747 21.853C5.37816 21.8988 5.3393 21.9547 5.31353 22.0169C5.28777 22.0791 5.27569 22.1461 5.27814 22.2134C5.28059 22.2806 5.29749 22.3466 5.32771 22.4067C5.35792 22.4669 5.40074 22.5198 5.45325 22.562ZM16.7853 13.9358H13.9376V24.6327C13.9372 24.6989 13.9508 24.7645 13.9776 24.8251C14.0044 24.8857 14.0437 24.94 14.093 24.9843C14.1423 25.0285 14.2004 25.0619 14.2635 25.0821C14.3266 25.1023 14.3933 25.1089 14.4591 25.1014C16.6859 24.8354 18.7953 23.9572 20.5529 22.5643C20.6054 22.5222 20.6482 22.4692 20.6784 22.4091C20.7086 22.3489 20.7255 22.283 20.728 22.2157C20.7304 22.1484 20.7183 22.0814 20.6926 22.0192C20.6668 21.9571 20.6279 21.9011 20.5786 21.8553C18.3719 19.7801 17.0192 16.956 16.7853 13.9358Z" fill="#636363"/>
</svg>
