<svg width="24" height="25" viewBox="0 0 24 25" fill="none" xmlns="http://www.w3.org/2000/svg">
<path d="M23.25 3.62574V22.3757C23.25 22.873 23.0525 23.3499 22.7008 23.7016C22.3492 24.0532 21.8723 24.2507 21.375 24.2507H15.75C15.2527 24.2507 14.7758 24.0532 14.4242 23.7016C14.0725 23.3499 13.875 22.873 13.875 22.3757V19.0945C13.875 18.9702 13.9244 18.8509 14.0123 18.763C14.1002 18.6751 14.2194 18.6257 14.3438 18.6257H18.5625C18.691 18.626 18.8182 18.5999 18.9362 18.5489C19.0542 18.498 19.1605 18.4233 19.2484 18.3296C19.3363 18.2358 19.404 18.125 19.4473 18.004C19.4906 17.883 19.5085 17.7544 19.5 17.6261C19.479 17.3852 19.3677 17.161 19.1884 16.9987C19.0091 16.8363 18.7751 16.7478 18.5332 16.7507H14.3438C14.2194 16.7507 14.1002 16.7014 14.0123 16.6134C13.9244 16.5255 13.875 16.4063 13.875 16.282V14.407C13.875 14.2827 13.9244 14.1634 14.0123 14.0755C14.1002 13.9876 14.2194 13.9382 14.3438 13.9382H18.5625C18.691 13.9385 18.8182 13.9124 18.9362 13.8614C19.0542 13.8105 19.1605 13.7358 19.2484 13.6421C19.3363 13.5483 19.404 13.4375 19.4473 13.3165C19.4906 13.1955 19.5085 13.0669 19.5 12.9386C19.479 12.6977 19.3677 12.4735 19.1884 12.3112C19.0091 12.1488 18.7751 12.0603 18.5332 12.0632H14.3438C14.2194 12.0632 14.1002 12.0139 14.0123 11.9259C13.9244 11.838 13.875 11.7188 13.875 11.5945V9.71949C13.875 9.59517 13.9244 9.47594 14.0123 9.38803C14.1002 9.30012 14.2194 9.25074 14.3438 9.25074H18.5625C18.691 9.25102 18.8182 9.22487 18.9362 9.17393C19.0542 9.12298 19.1605 9.04831 19.2484 8.95457C19.3363 8.86083 19.404 8.75001 19.4473 8.629C19.4906 8.50798 19.5085 8.37937 19.5 8.25113C19.479 8.00975 19.3674 7.78527 19.1876 7.62287C19.0078 7.46046 18.7731 7.37216 18.5309 7.37574H14.3438C14.2194 7.37574 14.1002 7.32635 14.0123 7.23844C13.9244 7.15054 13.875 7.03131 13.875 6.90699V3.62574C13.875 3.12846 14.0725 2.65154 14.4242 2.29991C14.7758 1.94828 15.2527 1.75074 15.75 1.75074H21.375C21.8723 1.75074 22.3492 1.94828 22.7008 2.29991C23.0525 2.65154 23.25 3.12846 23.25 3.62574ZM9.85078 4.83746C9.93781 4.92458 10.0068 5.02801 10.0539 5.14182C10.1009 5.25562 10.1251 5.37759 10.125 5.50074V22.3757C10.125 22.873 9.92746 23.3499 9.57582 23.7016C9.22419 24.0532 8.74728 24.2507 8.25 24.2507H2.625C2.12772 24.2507 1.65081 24.0532 1.29917 23.7016C0.947544 23.3499 0.75 22.873 0.75 22.3757V5.50074C0.749903 5.37759 0.774071 5.25562 0.821122 5.14182C0.868174 5.02801 0.937187 4.92458 1.02422 4.83746L4.77422 1.08746C4.86129 1.00029 4.96468 0.931142 5.07849 0.883963C5.1923 0.836784 5.3143 0.8125 5.4375 0.8125C5.5607 0.8125 5.6827 0.836784 5.79651 0.883963C5.91032 0.931142 6.01371 1.00029 6.10078 1.08746L9.85078 4.83746ZM2.625 7.37574V19.5632H4.5V7.37574H2.625ZM6.375 7.37574V19.5632H8.25V7.37574H6.375ZM3.01289 5.50074H7.86211L5.4375 3.07613L3.01289 5.50074Z" fill="#636363"/>
</svg>
