<svg width="28" height="27" viewBox="0 0 28 27" fill="none" xmlns="http://www.w3.org/2000/svg">
<path d="M27.4538 12.1249L19.5483 4.16552C17.437 2.05841 14.576 0.875 11.5931 0.875C8.61018 0.875 5.74913 2.05841 3.6378 4.16552L3.62726 4.17607L2.01358 5.84365C1.84642 6.02329 1.75636 6.26131 1.76273 6.50661C1.76909 6.75191 1.87138 6.98494 2.04763 7.15567C2.22388 7.3264 2.46005 7.42122 2.70543 7.41977C2.95081 7.41833 3.18584 7.32074 3.36007 7.14795L4.96905 5.48623C5.61638 4.83903 6.3551 4.29022 7.16163 3.85732L12.6108 9.3124L1.36085 20.5624C1.18669 20.7365 1.04854 20.9432 0.95429 21.1707C0.860036 21.3983 0.811523 21.6421 0.811523 21.8884C0.811523 22.1346 0.860036 22.3785 0.95429 22.606C1.04854 22.8335 1.18669 23.0402 1.36085 23.2144L3.78546 25.639C3.95957 25.8131 4.16629 25.9513 4.39381 26.0455C4.62132 26.1398 4.86517 26.1883 5.11144 26.1883C5.3577 26.1883 5.60155 26.1398 5.82907 26.0455C6.05658 25.9513 6.2633 25.8131 6.43741 25.639L17.6874 14.389L21.4374 18.139C21.6115 18.3131 21.8182 18.4513 22.0458 18.5455C22.2733 18.6398 22.5171 18.6883 22.7634 18.6883C23.0097 18.6883 23.2535 18.6398 23.481 18.5455C23.7085 18.4513 23.9152 18.3131 24.0894 18.139L27.4515 14.7769C27.6258 14.6029 27.7641 14.3963 27.8586 14.1689C27.953 13.9414 28.0018 13.6976 28.002 13.4514C28.0022 13.2051 27.9539 12.9612 27.8598 12.7336C27.7658 12.506 27.6278 12.2992 27.4538 12.1249ZM17.0241 12.3979L14.4062 15.0159L11.9816 12.5936L14.6007 9.97451C14.6879 9.88744 14.757 9.78404 14.8042 9.67023C14.8514 9.55642 14.8756 9.43443 14.8756 9.31123C14.8756 9.18803 14.8514 9.06603 14.8042 8.95222C14.757 8.83841 14.6879 8.73501 14.6007 8.64795L9.05304 3.10146C10.6558 2.65005 12.35 2.63369 13.9612 3.05405C15.5724 3.47442 17.0426 4.31635 18.2206 5.49326L23.4026 10.7093L20.0312 14.0772L18.3507 12.3968C18.2636 12.3096 18.1602 12.2405 18.0464 12.1933C17.9326 12.1461 17.8106 12.1218 17.6874 12.1218C17.5642 12.1218 17.4422 12.1461 17.3284 12.1933C17.2146 12.2405 17.1112 12.3096 17.0241 12.3968V12.3979ZM22.7663 16.8112L21.3601 15.405L24.7187 12.037L26.1249 13.4433L22.7663 16.8112Z" fill="#636363"/>
</svg>
