<svg width="30" height="25" viewBox="0 0 30 25" fill="none" xmlns="http://www.w3.org/2000/svg">
<path d="M29.0555 6.28242C29.0402 6.125 28.9853 5.974 28.896 5.84348C28.8067 5.71296 28.6857 5.60716 28.5445 5.53594L23.1199 2.82422C22.4461 1.59844 20.7668 0.75 18.75 0.75C16.1215 0.75 14.0625 2.19141 14.0625 4.03125C14.0628 4.29133 14.1047 4.54968 14.1867 4.79648L11.8992 5.94023C11.1014 5.60051 10.2421 5.42935 9.375 5.4375C6.74648 5.4375 4.6875 6.87891 4.6875 8.71875C4.68776 8.97883 4.7297 9.23718 4.81172 9.48398L1.45547 11.1609C1.29971 11.2389 1.16875 11.3587 1.07726 11.5069C0.985771 11.6551 0.937376 11.8258 0.9375 12V19.5C0.937376 19.6742 0.985771 19.8449 1.07726 19.9931C1.16875 20.1413 1.29971 20.2611 1.45547 20.3391L8.95547 24.0891C9.08572 24.1542 9.22936 24.1882 9.375 24.1882C9.52064 24.1882 9.66428 24.1542 9.79453 24.0891L28.5445 14.7141C28.7003 14.6361 28.8313 14.5163 28.9227 14.3681C29.0142 14.2199 29.0626 14.0492 29.0625 13.875V6.375C29.0629 6.344 29.0605 6.31302 29.0555 6.28242ZM9.375 14.7023L3.97148 12L5.97656 10.998C6.825 11.618 8.025 12 9.375 12C12.0035 12 14.0625 10.5586 14.0625 8.71875C14.0581 8.17411 13.8794 7.64519 13.5527 7.20938L15.3516 6.31055C16.2 6.93047 17.4 7.3125 18.75 7.3125C20.9039 7.3125 22.6746 6.34453 23.2441 4.98281L26.0285 6.375L9.375 14.7023ZM18.75 2.625C20.1832 2.625 21.2918 3.21094 21.5191 3.81094C21.5191 3.82148 21.5273 3.83203 21.532 3.84375C21.5518 3.9043 21.5621 3.96755 21.5625 4.03125C21.5625 4.69453 20.3602 5.4375 18.75 5.4375C17.618 5.4375 16.6875 5.06953 16.2352 4.61719C16.205 4.57785 16.1712 4.54137 16.1344 4.5082C16.0166 4.37614 15.9472 4.20796 15.9375 4.03125C15.9375 3.36797 17.1398 2.625 18.75 2.625ZM9.375 7.3125C10.0708 7.30038 10.7594 7.45593 11.3824 7.76602C11.4198 7.79084 11.4589 7.81278 11.4996 7.83164C11.932 8.09063 12.1875 8.41758 12.1875 8.71875C12.1875 9.38203 10.9852 10.125 9.375 10.125C8.2418 10.125 7.31133 9.75703 6.85898 9.30469C6.82927 9.26568 6.79634 9.22922 6.76055 9.1957C6.642 9.064 6.57211 8.89569 6.5625 8.71875C6.5625 8.05547 7.76484 7.3125 9.375 7.3125ZM2.8125 13.5164L8.4375 16.3289V21.7336L2.8125 18.9211V13.5164Z" fill="#636363"/>
</svg>
