<svg width="27" height="27" viewBox="0 0 27 27" fill="none" xmlns="http://www.w3.org/2000/svg">
<path d="M25.1877 8.37323H21.3721C22.1974 9.80335 22.5278 11.4659 22.3119 13.1029C22.096 14.7399 21.3459 16.2599 20.1779 17.4271C19.1795 18.4455 17.8799 19.41 16.4455 20.2994C16.3557 20.3541 16.2502 20.3769 16.1458 20.3644C16.0415 20.3519 15.9444 20.3046 15.8701 20.2303L11.7873 16.1475C11.6985 16.0586 11.5927 15.9885 11.4763 15.9414C11.3599 15.8942 11.2352 15.8709 11.1096 15.8729C10.984 15.8748 10.8601 15.902 10.7452 15.9528C10.6303 16.0036 10.5268 16.077 10.4408 16.1685C10.2754 16.3542 10.188 16.5965 10.197 16.845C10.2059 17.0935 10.3105 17.3289 10.4889 17.5021L13.9904 21.0037C14.0427 21.0559 14.0819 21.1197 14.1049 21.19C14.1278 21.2602 14.1338 21.3349 14.1224 21.4079C14.111 21.4809 14.0824 21.5502 14.0391 21.6101C13.9958 21.67 13.939 21.7188 13.8732 21.7525C9.21972 24.1689 4.21113 25.7803 3.48222 26.0076C3.13353 26.17 2.74332 26.2213 2.3645 26.1544C1.98569 26.0876 1.63661 25.9058 1.36461 25.6338C1.0926 25.3618 0.910842 25.0127 0.843976 24.6339C0.77711 24.2551 0.828374 23.8649 0.990816 23.5162C1.31074 22.4955 4.38925 12.9377 8.5916 7.88925C8.63336 7.8393 8.68507 7.79859 8.74344 7.76973C8.8018 7.74087 8.86554 7.72448 8.93058 7.72161C8.99563 7.71875 9.06056 7.72946 9.12124 7.75308C9.18192 7.7767 9.23701 7.81269 9.283 7.85878L14.2107 12.7877C14.3019 12.8788 14.4108 12.9501 14.5308 12.9972C14.6507 13.0443 14.7791 13.0662 14.9078 13.0614C15.0366 13.0567 15.163 13.0255 15.2792 12.9697C15.3954 12.9139 15.4988 12.8348 15.583 12.7373C15.737 12.5514 15.8154 12.3142 15.8023 12.0731C15.7893 11.8321 15.6859 11.6047 15.5127 11.4365L10.6658 6.58964C10.6164 6.54042 10.5786 6.4808 10.5551 6.41511C10.5317 6.34943 10.5232 6.27933 10.5302 6.20995C10.5373 6.14056 10.5598 6.07362 10.596 6.01402C10.6322 5.95442 10.6813 5.90365 10.7396 5.86542C11.9024 5.0979 13.2559 4.66942 14.6485 4.62802C16.0411 4.58663 17.4177 4.93395 18.624 5.63104V1.81073C18.6237 1.68211 18.6499 1.5548 18.7009 1.43672C18.7519 1.31865 18.8267 1.21234 18.9206 1.1244C19.0145 1.03647 19.1254 0.968789 19.2466 0.925578C19.3677 0.882368 19.4965 0.86455 19.6248 0.873232C19.8664 0.894249 20.091 1.00605 20.2535 1.1861C20.4159 1.36615 20.5041 1.60108 20.5002 1.84354V5.17284L23.5869 2.08495C23.674 1.99785 23.7774 1.92875 23.8912 1.88161C24.005 1.83447 24.127 1.81021 24.2502 1.81021C24.3734 1.81021 24.4953 1.83447 24.6092 1.88161C24.723 1.92875 24.8264 1.99785 24.9135 2.08495C25.0006 2.17205 25.0697 2.27546 25.1168 2.38927C25.1639 2.50307 25.1882 2.62505 25.1882 2.74823C25.1882 2.87141 25.1639 2.99339 25.1168 3.1072C25.0697 3.221 25.0006 3.32441 24.9135 3.41151L21.8256 6.49823H25.1549C25.3973 6.49436 25.6323 6.58252 25.8123 6.74496C25.9924 6.90739 26.1042 7.13204 26.1252 7.37362C26.1337 7.50186 26.1158 7.63048 26.0725 7.75149C26.0292 7.8725 25.9615 7.98332 25.8736 8.07706C25.7856 8.17081 25.6794 8.24547 25.5614 8.29642C25.4434 8.34737 25.3162 8.37351 25.1877 8.37323Z" fill="#636363"/>
</svg>
