<svg width="13" height="13" viewBox="0 0 13 13" fill="none" xmlns="http://www.w3.org/2000/svg">
<path d="M4.27374 6.46379L4.27376 6.4638L5.21741 7.40797L7.92544 4.6994C7.92545 4.69939 7.92546 4.69938 7.92547 4.69937C7.97531 4.64949 8.03448 4.60991 8.09962 4.58291C8.16477 4.5559 8.23461 4.542 8.30514 4.542C8.37567 4.542 8.4455 4.5559 8.51066 4.58291C8.57581 4.60992 8.635 4.6495 8.68484 4.6994M4.27374 6.46379L4.90532 8.47885C4.94628 8.51986 4.99493 8.5524 5.04848 8.57459C5.10203 8.59679 5.15943 8.60822 5.2174 8.60822C5.27537 8.60822 5.33277 8.59679 5.38632 8.57459C5.43987 8.5524 5.48851 8.51986 5.52948 8.47885L5.59706 8.54643L5.5971 8.54639L8.68476 5.45873C8.68478 5.45871 8.68479 5.4587 8.6848 5.45869C8.73468 5.40885 8.77425 5.34968 8.80126 5.28454L8.71297 5.24794L8.80126 5.28454C8.82826 5.21939 8.84216 5.14955 8.84216 5.07903C8.84216 5.0085 8.82826 4.93866 8.80126 4.87351L8.71297 4.91011L8.80126 4.87351C8.77426 4.80839 8.7347 4.74923 8.68484 4.6994M4.27374 6.46379C4.17305 6.36309 4.03648 6.30652 3.89408 6.30652C3.75168 6.30652 3.61511 6.36309 3.51442 6.46379C3.41373 6.56448 3.35716 6.70105 3.35716 6.84345C3.35716 6.98585 3.41373 7.12242 3.51442 7.22311L4.8377 8.54639L4.27374 6.46379ZM8.68484 4.6994L8.61722 4.76694L8.68476 4.69933C8.68479 4.69935 8.68481 4.69938 8.68484 4.6994ZM11.9296 6.40234L11.9296 6.40224C11.9279 4.85657 11.3132 3.37468 10.2202 2.28172C9.12728 1.18877 7.64538 0.574028 6.09971 0.572396H6.09961C4.94656 0.572396 3.8194 0.914316 2.86067 1.55492C1.90194 2.19552 1.1547 3.10603 0.713442 4.17132C0.272187 5.2366 0.156735 6.40881 0.381685 7.53971C0.606635 8.67061 1.16188 9.7094 1.97722 10.5247C2.79255 11.3401 3.83135 11.8953 4.96224 12.1203C6.09314 12.3452 7.26535 12.2298 8.33063 11.7885C9.39592 11.3473 10.3064 10.6 10.947 9.64129C11.5876 8.68256 11.9296 7.5554 11.9296 6.40234ZM10.0546 3.75972C10.5772 4.54191 10.8562 5.46151 10.8562 6.40223C10.8548 7.66335 10.3532 8.8724 9.46142 9.76415C8.56967 10.6559 7.36062 11.1575 6.0995 11.1589C5.15878 11.1589 4.23918 10.8799 3.45699 10.3573C2.67477 9.83464 2.06511 9.09176 1.70509 8.22261C1.34508 7.35346 1.25088 6.39707 1.43442 5.47438C1.61795 4.55169 2.07097 3.70415 2.73619 3.03893C3.40142 2.3737 4.24896 1.92068 5.17165 1.73715C6.09433 1.55362 7.05073 1.64781 7.91988 2.00783C8.78903 2.36784 9.53191 2.97751 10.0546 3.75972Z" fill="#060505" stroke="#060505" stroke-width="0.191146"/>
</svg>
