<svg width="31" height="24" viewBox="0 0 31 24" fill="none" xmlns="http://www.w3.org/2000/svg">
<path d="M2.5 9.99938H5.5V17.9994H3.5C3.23478 17.9994 2.98043 18.1047 2.79289 18.2923C2.60536 18.4798 2.5 18.7342 2.5 18.9994C2.5 19.2646 2.60536 19.519 2.79289 19.7065C2.98043 19.894 3.23478 19.9994 3.5 19.9994H27.5C27.7652 19.9994 28.0196 19.894 28.2071 19.7065C28.3946 19.519 28.5 19.2646 28.5 18.9994C28.5 18.7342 28.3946 18.4798 28.2071 18.2923C28.0196 18.1047 27.7652 17.9994 27.5 17.9994H25.5V9.99938H28.5C28.7176 9.99916 28.9292 9.92798 29.1026 9.79664C29.2761 9.66531 29.402 9.48097 29.4612 9.27161C29.5205 9.06225 29.5098 8.83928 29.4308 8.63653C29.3519 8.43378 29.209 8.26231 29.0238 8.14813L16.0238 0.148128C15.8662 0.0512756 15.6849 0 15.5 0C15.3151 0 15.1338 0.0512756 14.9762 0.148128L1.97625 8.14813C1.79103 8.26231 1.64811 8.43378 1.56916 8.63653C1.49021 8.83928 1.47955 9.06225 1.53878 9.27161C1.59801 9.48097 1.72391 9.66531 1.89738 9.79664C2.07085 9.92798 2.28242 9.99916 2.5 9.99938ZM7.5 9.99938H11.5V17.9994H7.5V9.99938ZM17.5 9.99938V17.9994H13.5V9.99938H17.5ZM23.5 17.9994H19.5V9.99938H23.5V17.9994ZM15.5 2.17313L24.9675 7.99938H6.0325L15.5 2.17313ZM30.5 22.9994C30.5 23.2646 30.3946 23.519 30.2071 23.7065C30.0196 23.894 29.7652 23.9994 29.5 23.9994H1.5C1.23478 23.9994 0.98043 23.894 0.792893 23.7065C0.605357 23.519 0.5 23.2646 0.5 22.9994C0.5 22.7342 0.605357 22.4798 0.792893 22.2923C0.98043 22.1047 1.23478 21.9994 1.5 21.9994H29.5C29.7652 21.9994 30.0196 22.1047 30.2071 22.2923C30.3946 22.4798 30.5 22.7342 30.5 22.9994Z" fill="#060505"/>
</svg>
