<svg width="27" height="24" viewBox="0 0 27 24" fill="none" xmlns="http://www.w3.org/2000/svg">
<path d="M26.5 8C26.5005 7.90702 26.4879 7.81444 26.4625 7.725L24.6688 1.45C24.5482 1.03364 24.2962 0.667454 23.9504 0.406117C23.6045 0.14478 23.1835 0.00231617 22.75 0H4.25C3.81655 0.00231617 3.39547 0.14478 3.04965 0.406117C2.70382 0.667454 2.45182 1.03364 2.33125 1.45L0.538751 7.725C0.512928 7.81438 0.499882 7.90696 0.500001 8V10C0.500001 10.7762 0.680726 11.5418 1.02786 12.2361C1.375 12.9303 1.87902 13.5343 2.5 14V23C2.5 23.2652 2.60536 23.5196 2.79289 23.7071C2.98043 23.8946 3.23478 24 3.5 24H23.5C23.7652 24 24.0196 23.8946 24.2071 23.7071C24.3946 23.5196 24.5 23.2652 24.5 23V14C25.121 13.5343 25.625 12.9303 25.9721 12.2361C26.3193 11.5418 26.5 10.7762 26.5 10V8ZM4.25 2H22.75L24.1775 7H2.82625L4.25 2ZM10.5 9H16.5V10C16.5 10.7956 16.1839 11.5587 15.6213 12.1213C15.0587 12.6839 14.2957 13 13.5 13C12.7044 13 11.9413 12.6839 11.3787 12.1213C10.8161 11.5587 10.5 10.7956 10.5 10V9ZM8.5 9V10C8.49982 10.5159 8.36661 11.023 8.11324 11.4724C7.85987 11.9217 7.4949 12.2982 7.05358 12.5653C6.61226 12.8325 6.10951 12.9813 5.59388 12.9975C5.07825 13.0136 4.56717 12.8965 4.11 12.6575C4.04044 12.6034 3.96392 12.5588 3.8825 12.525C3.45884 12.2538 3.11019 11.8804 2.86861 11.4392C2.62702 10.9979 2.50027 10.503 2.5 10V9H8.5ZM22.5 22H4.5V14.9C4.8292 14.9664 5.16418 14.9999 5.5 15C6.27623 15 7.04179 14.8193 7.73607 14.4721C8.43035 14.125 9.03427 13.621 9.5 13C9.96574 13.621 10.5697 14.125 11.2639 14.4721C11.9582 14.8193 12.7238 15 13.5 15C14.2762 15 15.0418 14.8193 15.7361 14.4721C16.4303 14.125 17.0343 13.621 17.5 13C17.9657 13.621 18.5697 14.125 19.2639 14.4721C19.9582 14.8193 20.7238 15 21.5 15C21.8358 14.9999 22.1708 14.9664 22.5 14.9V22ZM23.1162 12.525C23.0359 12.5589 22.9603 12.603 22.8913 12.6562C22.4341 12.8955 21.923 13.0129 21.4073 12.9969C20.8916 12.981 20.3887 12.8323 19.9473 12.5653C19.5058 12.2982 19.1407 11.9218 18.8872 11.4725C18.6336 11.0231 18.5003 10.516 18.5 10V9H24.5V10C24.4996 10.5032 24.3727 10.9981 24.1308 11.4394C23.889 11.8806 23.5401 12.2539 23.1162 12.525Z" fill="#060505"/>
</svg>
