<svg width="23" height="30" viewBox="0 0 23 30" fill="none" xmlns="http://www.w3.org/2000/svg">
<path d="M21.5 4.00111H16.4C16.1705 2.87082 15.5573 1.85463 14.6643 1.12473C13.7712 0.394825 12.6534 -0.00390625 11.5 -0.00390625C10.3466 -0.00390625 9.22875 0.394825 8.33574 1.12473C7.44273 1.85463 6.82952 2.87082 6.6 4.00111H1.5C1.23478 4.00111 0.98043 4.10646 0.792893 4.294C0.605357 4.48154 0.5 4.73589 0.5 5.00111C0.5 5.26632 0.605357 5.52068 0.792893 5.70821C0.98043 5.89575 1.23478 6.00111 1.5 6.00111H6.6C6.81679 7.05588 7.3683 8.01249 8.1725 8.72861C6.7797 9.36699 5.5992 10.3914 4.77103 11.6805C3.94285 12.9695 3.50173 14.469 3.5 16.0011V24.0011C3.5 24.5315 3.71071 25.0402 4.08579 25.4153C4.46086 25.7904 4.96957 26.0011 5.5 26.0011H7.5C7.5 27.062 7.92143 28.0794 8.67157 28.8295C9.42172 29.5797 10.4391 30.0011 11.5 30.0011C12.5609 30.0011 13.5783 29.5797 14.3284 28.8295C15.0786 28.0794 15.5 27.062 15.5 26.0011H17.5C18.0304 26.0011 18.5391 25.7904 18.9142 25.4153C19.2893 25.0402 19.5 24.5315 19.5 24.0011V16.0011C19.4983 14.469 19.0572 12.9695 18.229 11.6805C17.4008 10.3914 16.2203 9.36699 14.8275 8.72861C15.6317 8.01249 16.1832 7.05588 16.4 6.00111H21.5C21.7652 6.00111 22.0196 5.89575 22.2071 5.70821C22.3946 5.52068 22.5 5.26632 22.5 5.00111C22.5 4.73589 22.3946 4.48154 22.2071 4.294C22.0196 4.10646 21.7652 4.00111 21.5 4.00111ZM13.5 26.0011C13.5 26.5315 13.2893 27.0402 12.9142 27.4153C12.5391 27.7904 12.0304 28.0011 11.5 28.0011C10.9696 28.0011 10.4609 27.7904 10.0858 27.4153C9.71071 27.0402 9.5 26.5315 9.5 26.0011V20.0011C9.5 19.4707 9.71071 18.962 10.0858 18.5869C10.4609 18.2118 10.9696 18.0011 11.5 18.0011C12.0304 18.0011 12.5391 18.2118 12.9142 18.5869C13.2893 18.962 13.5 19.4707 13.5 20.0011V26.0011ZM17.5 16.0011V24.0011H15.5V20.0011C15.5 18.9402 15.0786 17.9228 14.3284 17.1727C13.5783 16.4225 12.5609 16.0011 11.5 16.0011C10.4391 16.0011 9.42172 16.4225 8.67157 17.1727C7.92143 17.9228 7.5 18.9402 7.5 20.0011V24.0011H5.5V16.0011C5.5 14.4098 6.13214 12.8837 7.25736 11.7585C8.38258 10.6332 9.9087 10.0011 11.5 10.0011C13.0913 10.0011 14.6174 10.6332 15.7426 11.7585C16.8679 12.8837 17.5 14.4098 17.5 16.0011ZM8.5 5.00111C8.5 4.40776 8.67595 3.82774 9.00559 3.3344C9.33524 2.84105 9.80377 2.45653 10.3519 2.22947C10.9001 2.0024 11.5033 1.94299 12.0853 2.05875C12.6672 2.17451 13.2018 2.46023 13.6213 2.87979C14.0409 3.29934 14.3266 3.83389 14.4424 4.41584C14.5581 4.99778 14.4987 5.60098 14.2716 6.14916C14.0446 6.69734 13.6601 7.16587 13.1667 7.49552C12.6734 7.82516 12.0933 8.00111 11.5 8.00111C10.7044 8.00111 9.94129 7.68504 9.37868 7.12243C8.81607 6.55982 8.5 5.79676 8.5 5.00111Z" fill="black"/>
</svg>
