<svg width="33" height="32" viewBox="0 0 33 32" fill="none" xmlns="http://www.w3.org/2000/svg">
<mask id="path-1-inside-1_30_20526" fill="white">
<path fill-rule="evenodd" clip-rule="evenodd" d="M17.0451 8.72656H4.09163C3.62444 8.72656 3.17638 8.91215 2.84602 9.24251C2.51567 9.57286 2.33008 10.0209 2.33008 10.4881V26.3421C2.33008 26.8093 2.51567 27.2573 2.84602 27.5877C3.17638 27.918 3.62444 28.1036 4.09163 28.1036H23.4687C23.9359 28.1036 24.384 27.918 24.7143 27.5877C25.0447 27.2573 25.2303 26.8093 25.2303 26.3421V18.4529C24.9529 18.5551 24.7809 18.6029 24.7578 18.6092C24.6497 18.6386 24.5357 18.6386 24.4277 18.6092C24.3931 18.5998 24.0248 18.4973 23.4687 18.2591V26.3421H4.09163V10.4881H17.1973C17.1063 9.93741 17.0528 9.35081 17.0451 8.72656ZM19.8327 15.7728H16.4225C16.1889 15.7728 15.9649 15.8656 15.7997 16.0307C15.6345 16.1959 15.5417 16.42 15.5417 16.6535C15.5417 16.8871 15.6345 17.1112 15.7997 17.2763C15.9649 17.4415 16.1889 17.5343 16.4225 17.5343H20.8264C21.06 17.5343 21.284 17.4415 21.4492 17.2763C21.4758 17.2497 21.5005 17.2216 21.5233 17.1921C21.2637 17.0155 20.9985 16.8194 20.7332 16.6024C20.4387 16.3614 20.1344 16.0858 19.8327 15.7728ZM16.4225 19.2959H20.8264C21.06 19.2959 21.284 19.3887 21.4492 19.5538C21.6144 19.719 21.7071 19.9431 21.7071 20.1767C21.7071 20.4102 21.6144 20.6343 21.4492 20.7995C21.284 20.9646 21.06 21.0574 20.8264 21.0574H16.4225C16.1889 21.0574 15.9649 20.9646 15.7997 20.7995C15.6345 20.6343 15.5417 20.4102 15.5417 20.1767C15.5417 19.9431 15.6345 19.719 15.7997 19.5538C15.9649 19.3887 16.1889 19.2959 16.4225 19.2959ZM14.5381 23.2666C14.6568 23.0653 14.6907 22.8251 14.6323 22.5988H14.6334C14.3481 21.5344 13.6719 20.6168 12.7397 20.0291C13.2346 19.5372 13.5722 18.9095 13.7098 18.2255C13.8475 17.5416 13.7789 16.8321 13.5129 16.1871C13.2468 15.5421 12.7953 14.9907 12.2155 14.6026C11.6356 14.2146 10.9537 14.0074 10.256 14.0074C9.55826 14.0074 8.87628 14.2146 8.29645 14.6026C7.71663 14.9907 7.26507 15.5421 6.99904 16.1871C6.733 16.8321 6.66445 17.5416 6.80209 18.2255C6.93974 18.9095 7.27736 19.5372 7.77217 20.0291C6.84103 20.6176 6.16542 21.535 5.87961 22.5988C5.82121 22.8251 5.8551 23.0653 5.97382 23.2666C6.09254 23.4679 6.28637 23.6138 6.51266 23.6722C6.73896 23.7306 6.97919 23.6967 7.1805 23.578C7.38181 23.4593 7.52771 23.2655 7.58611 23.0392C7.87676 21.9096 9.02398 21.0574 10.256 21.0574C11.4879 21.0574 12.6363 21.9096 12.9258 23.0392C12.9842 23.2655 13.1301 23.4593 13.3314 23.578C13.5327 23.6967 13.773 23.7306 13.9993 23.6722C14.2256 23.6138 14.4194 23.4679 14.5381 23.2666ZM11.2357 18.999C10.946 19.1926 10.6055 19.2959 10.2571 19.2959C9.78987 19.2959 9.34181 19.1103 9.01146 18.7799C8.6811 18.4496 8.49551 18.0015 8.49551 17.5343C8.49551 17.1859 8.59882 16.8453 8.79239 16.5557C8.98595 16.266 9.26106 16.0402 9.58295 15.9069C9.90483 15.7735 10.259 15.7386 10.6007 15.8066C10.9424 15.8746 11.2563 16.0424 11.5027 16.2887C11.749 16.5351 11.9168 16.849 11.9848 17.1907C12.0527 17.5324 12.0179 17.8866 11.8845 18.2084C11.7512 18.5303 11.5254 18.8054 11.2357 18.999Z"/>
</mask>
<path fill-rule="evenodd" clip-rule="evenodd" d="M17.0451 8.72656H4.09163C3.62444 8.72656 3.17638 8.91215 2.84602 9.24251C2.51567 9.57286 2.33008 10.0209 2.33008 10.4881V26.3421C2.33008 26.8093 2.51567 27.2573 2.84602 27.5877C3.17638 27.918 3.62444 28.1036 4.09163 28.1036H23.4687C23.9359 28.1036 24.384 27.918 24.7143 27.5877C25.0447 27.2573 25.2303 26.8093 25.2303 26.3421V18.4529C24.9529 18.5551 24.7809 18.6029 24.7578 18.6092C24.6497 18.6386 24.5357 18.6386 24.4277 18.6092C24.3931 18.5998 24.0248 18.4973 23.4687 18.2591V26.3421H4.09163V10.4881H17.1973C17.1063 9.93741 17.0528 9.35081 17.0451 8.72656ZM19.8327 15.7728H16.4225C16.1889 15.7728 15.9649 15.8656 15.7997 16.0307C15.6345 16.1959 15.5417 16.42 15.5417 16.6535C15.5417 16.8871 15.6345 17.1112 15.7997 17.2763C15.9649 17.4415 16.1889 17.5343 16.4225 17.5343H20.8264C21.06 17.5343 21.284 17.4415 21.4492 17.2763C21.4758 17.2497 21.5005 17.2216 21.5233 17.1921C21.2637 17.0155 20.9985 16.8194 20.7332 16.6024C20.4387 16.3614 20.1344 16.0858 19.8327 15.7728ZM16.4225 19.2959H20.8264C21.06 19.2959 21.284 19.3887 21.4492 19.5538C21.6144 19.719 21.7071 19.9431 21.7071 20.1767C21.7071 20.4102 21.6144 20.6343 21.4492 20.7995C21.284 20.9646 21.06 21.0574 20.8264 21.0574H16.4225C16.1889 21.0574 15.9649 20.9646 15.7997 20.7995C15.6345 20.6343 15.5417 20.4102 15.5417 20.1767C15.5417 19.9431 15.6345 19.719 15.7997 19.5538C15.9649 19.3887 16.1889 19.2959 16.4225 19.2959ZM14.5381 23.2666C14.6568 23.0653 14.6907 22.8251 14.6323 22.5988H14.6334C14.3481 21.5344 13.6719 20.6168 12.7397 20.0291C13.2346 19.5372 13.5722 18.9095 13.7098 18.2255C13.8475 17.5416 13.7789 16.8321 13.5129 16.1871C13.2468 15.5421 12.7953 14.9907 12.2155 14.6026C11.6356 14.2146 10.9537 14.0074 10.256 14.0074C9.55826 14.0074 8.87628 14.2146 8.29645 14.6026C7.71663 14.9907 7.26507 15.5421 6.99904 16.1871C6.733 16.8321 6.66445 17.5416 6.80209 18.2255C6.93974 18.9095 7.27736 19.5372 7.77217 20.0291C6.84103 20.6176 6.16542 21.535 5.87961 22.5988C5.82121 22.8251 5.8551 23.0653 5.97382 23.2666C6.09254 23.4679 6.28637 23.6138 6.51266 23.6722C6.73896 23.7306 6.97919 23.6967 7.1805 23.578C7.38181 23.4593 7.52771 23.2655 7.58611 23.0392C7.87676 21.9096 9.02398 21.0574 10.256 21.0574C11.4879 21.0574 12.6363 21.9096 12.9258 23.0392C12.9842 23.2655 13.1301 23.4593 13.3314 23.578C13.5327 23.6967 13.773 23.7306 13.9993 23.6722C14.2256 23.6138 14.4194 23.4679 14.5381 23.2666ZM11.2357 18.999C10.946 19.1926 10.6055 19.2959 10.2571 19.2959C9.78987 19.2959 9.34181 19.1103 9.01146 18.7799C8.6811 18.4496 8.49551 18.0015 8.49551 17.5343C8.49551 17.1859 8.59882 16.8453 8.79239 16.5557C8.98595 16.266 9.26106 16.0402 9.58295 15.9069C9.90483 15.7735 10.259 15.7386 10.6007 15.8066C10.9424 15.8746 11.2563 16.0424 11.5027 16.2887C11.749 16.5351 11.9168 16.849 11.9848 17.1907C12.0527 17.5324 12.0179 17.8866 11.8845 18.2084C11.7512 18.5303 11.5254 18.8054 11.2357 18.999Z" fill="#060505"/>
<path d="M17.0451 8.72656L17.1277 8.72555L17.1267 8.64399H17.0451V8.72656ZM2.84602 9.24251L2.90441 9.3009L2.84602 9.24251ZM2.84602 27.5877L2.90441 27.5293L2.84602 27.5877ZM24.7143 27.5877L24.7727 27.6461L24.7143 27.5877ZM25.2303 18.4529H25.3128V18.3345L25.2017 18.3754L25.2303 18.4529ZM24.7578 18.6092L24.7363 18.5295L24.7361 18.5295L24.7578 18.6092ZM24.4277 18.6092L24.4493 18.5295L24.4492 18.5295L24.4277 18.6092ZM23.4687 18.2591L23.5012 18.1832L23.3861 18.1339V18.2591H23.4687ZM23.4687 26.3421V26.4247H23.5513V26.3421H23.4687ZM4.09163 26.3421H4.00906V26.4247H4.09163V26.3421ZM4.09163 10.4881V10.4055H4.00906V10.4881H4.09163ZM17.1973 10.4881V10.5707H17.2946L17.2787 10.4747L17.1973 10.4881ZM19.8327 15.7728L19.8922 15.7155L19.8678 15.6902H19.8327V15.7728ZM15.7997 16.0307L15.7413 15.9724L15.7997 16.0307ZM21.4492 17.2763L21.3908 17.218L21.3908 17.218L21.4492 17.2763ZM21.5233 17.1921L21.5887 17.2426L21.6423 17.1732L21.5698 17.1238L21.5233 17.1921ZM20.7332 16.6024L20.6809 16.6663L20.6809 16.6663L20.7332 16.6024ZM21.4492 19.5538L21.3908 19.6122L21.4492 19.5538ZM21.4492 20.7995L21.3908 20.7411L21.4492 20.7995ZM15.7997 20.7995L15.7413 20.8578L15.7997 20.7995ZM15.7997 19.5538L15.7413 19.4955L15.7997 19.5538ZM14.6323 22.5988V22.5162H14.5257L14.5524 22.6194L14.6323 22.5988ZM14.6334 22.5988V22.6814H14.741L14.7132 22.5774L14.6334 22.5988ZM12.7397 20.0291L12.6815 19.9706L12.608 20.0437L12.6957 20.099L12.7397 20.0291ZM13.7098 18.2255L13.6289 18.2093L13.7098 18.2255ZM13.5129 16.1871L13.4366 16.2186L13.5129 16.1871ZM12.2155 14.6026L12.2614 14.534L12.2155 14.6026ZM8.29645 14.6026L8.25053 14.534L8.29645 14.6026ZM6.99904 16.1871L7.07537 16.2186L6.99904 16.1871ZM6.80209 18.2255L6.88304 18.2093L6.80209 18.2255ZM7.77217 20.0291L7.81629 20.0989L7.90384 20.0436L7.83039 19.9706L7.77217 20.0291ZM5.87961 22.5988L5.79986 22.5774L5.79965 22.5782L5.87961 22.5988ZM5.97382 23.2666L6.04494 23.2247L5.97382 23.2666ZM7.1805 23.578L7.22244 23.6491H7.22244L7.1805 23.578ZM7.58611 23.0392L7.66606 23.0598L7.66608 23.0597L7.58611 23.0392ZM12.9258 23.0392L12.8458 23.0597L12.8459 23.0598L12.9258 23.0392ZM13.3314 23.578L13.2895 23.6491L13.3314 23.578ZM11.2357 18.999L11.1899 18.9303H11.1899L11.2357 18.999ZM9.01146 18.7799L8.95307 18.8383L9.01146 18.7799ZM8.79239 16.5557L8.72373 16.5098L8.79239 16.5557ZM9.58295 15.9069L9.55135 15.8306H9.55135L9.58295 15.9069ZM10.6007 15.8066L10.5846 15.8876L10.6007 15.8066ZM11.5027 16.2887L11.5611 16.2303L11.5027 16.2887ZM11.9848 17.1907L11.9038 17.2068L11.9848 17.1907ZM11.8845 18.2084L11.9608 18.24L11.8845 18.2084ZM4.09163 8.80914H17.0451V8.64399H4.09163V8.80914ZM2.90441 9.3009C3.21928 8.98603 3.64634 8.80914 4.09163 8.80914V8.64399C3.60254 8.64399 3.13348 8.83828 2.78764 9.18412L2.90441 9.3009ZM2.41265 10.4881C2.41265 10.0428 2.58954 9.61577 2.90441 9.3009L2.78764 9.18412C2.4418 9.52996 2.24751 9.99902 2.24751 10.4881H2.41265ZM2.41265 26.3421V10.4881H2.24751V26.3421H2.41265ZM2.90441 27.5293C2.58954 27.2144 2.41265 26.7874 2.41265 26.3421H2.24751C2.24751 26.8312 2.4418 27.3002 2.78764 27.6461L2.90441 27.5293ZM4.09163 28.0211C3.64634 28.0211 3.21928 27.8442 2.90441 27.5293L2.78764 27.6461C3.13348 27.9919 3.60254 28.1862 4.09163 28.1862V28.0211ZM23.4687 28.0211H4.09163V28.1862H23.4687V28.0211ZM24.6559 27.5293C24.341 27.8442 23.914 28.0211 23.4687 28.0211V28.1862C23.9578 28.1862 24.4269 27.9919 24.7727 27.6461L24.6559 27.5293ZM25.1477 26.3421C25.1477 26.7874 24.9708 27.2144 24.6559 27.5293L24.7727 27.6461C25.1185 27.3002 25.3128 26.8312 25.3128 26.3421H25.1477ZM25.1477 18.4529V26.3421H25.3128V18.4529H25.1477ZM24.7793 18.6889C24.8046 18.6821 24.9789 18.6334 25.2588 18.5304L25.2017 18.3754C24.9268 18.4767 24.7572 18.5238 24.7363 18.5295L24.7793 18.6889ZM24.406 18.6889C24.5283 18.7221 24.6572 18.7221 24.7795 18.6889L24.7361 18.5295C24.6422 18.555 24.5432 18.555 24.4493 18.5295L24.406 18.6889ZM23.4362 18.335C23.9963 18.5749 24.3684 18.6787 24.4061 18.6889L24.4492 18.5295C24.4177 18.521 24.0532 18.4196 23.5012 18.1832L23.4362 18.335ZM23.5513 26.3421V18.2591H23.3861V26.3421H23.5513ZM4.09163 26.4247H23.4687V26.2595H4.09163V26.4247ZM4.00906 10.4881V26.3421H4.1742V10.4881H4.00906ZM17.1973 10.4055H4.09163V10.5707H17.1973V10.4055ZM16.9626 8.72758C16.9703 9.35592 17.0241 9.94668 17.1158 10.5016L17.2787 10.4747C17.1884 9.92814 17.1353 9.3457 17.1277 8.72555L16.9626 8.72758ZM16.4225 15.8553H19.8327V15.6902H16.4225V15.8553ZM15.8581 16.0891C16.0078 15.9394 16.2108 15.8553 16.4225 15.8553V15.6902C16.167 15.6902 15.922 15.7917 15.7413 15.9724L15.8581 16.0891ZM15.6243 16.6535C15.6243 16.4419 15.7084 16.2388 15.8581 16.0891L15.7413 15.9724C15.5606 16.153 15.4591 16.3981 15.4591 16.6535H15.6243ZM15.8581 17.218C15.7084 17.0683 15.6243 16.8652 15.6243 16.6535H15.4591C15.4591 16.909 15.5606 17.1541 15.7413 17.3347L15.8581 17.218ZM16.4225 17.4517C16.2108 17.4517 16.0078 17.3677 15.8581 17.218L15.7413 17.3347C15.922 17.5154 16.167 17.6169 16.4225 17.6169V17.4517ZM20.8264 17.4517H16.4225V17.6169H20.8264V17.4517ZM21.3908 17.218C21.2411 17.3677 21.0381 17.4517 20.8264 17.4517V17.6169C21.0819 17.6169 21.3269 17.5154 21.5076 17.3347L21.3908 17.218ZM21.458 17.1416C21.4373 17.1683 21.4149 17.1938 21.3908 17.218L21.5076 17.3347C21.5367 17.3056 21.5637 17.2748 21.5887 17.2426L21.458 17.1416ZM20.6809 16.6663C20.9483 16.885 21.2154 17.0825 21.4769 17.2604L21.5698 17.1238C21.312 16.9485 21.0488 16.7539 20.7854 16.5384L20.6809 16.6663ZM19.7733 15.8301C20.0774 16.1456 20.3841 16.4235 20.6809 16.6663L20.7855 16.5385C20.4933 16.2994 20.1914 16.026 19.8922 15.7155L19.7733 15.8301ZM20.8264 19.2133H16.4225V19.3784H20.8264V19.2133ZM21.5076 19.4955C21.3269 19.3148 21.0819 19.2133 20.8264 19.2133V19.3784C21.0381 19.3784 21.2411 19.4625 21.3908 19.6122L21.5076 19.4955ZM21.7897 20.1767C21.7897 19.9212 21.6882 19.6761 21.5076 19.4955L21.3908 19.6122C21.5405 19.7619 21.6246 19.965 21.6246 20.1767H21.7897ZM21.5076 20.8578C21.6882 20.6772 21.7897 20.4321 21.7897 20.1767H21.6246C21.6246 20.3883 21.5405 20.5914 21.3908 20.7411L21.5076 20.8578ZM20.8264 21.14C21.0819 21.14 21.3269 21.0385 21.5076 20.8578L21.3908 20.7411C21.2411 20.8908 21.0381 20.9749 20.8264 20.9749V21.14ZM16.4225 21.14H20.8264V20.9749H16.4225V21.14ZM15.7413 20.8578C15.922 21.0385 16.167 21.14 16.4225 21.14V20.9749C16.2108 20.9749 16.0078 20.8908 15.8581 20.7411L15.7413 20.8578ZM15.4591 20.1767C15.4591 20.4321 15.5606 20.6772 15.7413 20.8578L15.8581 20.7411C15.7084 20.5914 15.6243 20.3883 15.6243 20.1767H15.4591ZM15.7413 19.4955C15.5606 19.6761 15.4591 19.9212 15.4591 20.1767H15.6243C15.6243 19.965 15.7084 19.7619 15.8581 19.6122L15.7413 19.4955ZM16.4225 19.2133C16.167 19.2133 15.922 19.3148 15.7413 19.4955L15.8581 19.6122C16.0078 19.4625 16.2108 19.3784 16.4225 19.3784V19.2133ZM14.5524 22.6194C14.6053 22.8245 14.5746 23.0422 14.467 23.2247L14.6092 23.3086C14.7391 23.0884 14.7761 22.8257 14.7123 22.5782L14.5524 22.6194ZM14.6334 22.5162H14.6323V22.6814H14.6334V22.5162ZM12.6957 20.099C13.6103 20.6756 14.2738 21.5759 14.5537 22.6202L14.7132 22.5774C14.4225 21.493 13.7335 20.558 12.7838 19.9593L12.6957 20.099ZM13.6289 18.2093C13.4945 18.8772 13.1648 19.4902 12.6815 19.9706L12.798 20.0877C13.3044 19.5843 13.6499 18.9418 13.7908 18.2418L13.6289 18.2093ZM13.4366 16.2186C13.6964 16.8485 13.7633 17.5413 13.6289 18.2093L13.7908 18.2418C13.9316 17.5418 13.8615 16.8157 13.5892 16.1556L13.4366 16.2186ZM12.1695 14.6712C12.7358 15.0502 13.1767 15.5887 13.4366 16.2186L13.5892 16.1556C13.3169 15.4955 12.8548 14.9311 12.2614 14.534L12.1695 14.6712ZM10.256 14.09C10.9373 14.09 11.6033 14.2923 12.1695 14.6712L12.2614 14.534C11.668 14.1368 10.97 13.9248 10.256 13.9248V14.09ZM8.34238 14.6712C8.90861 14.2923 9.57462 14.09 10.256 14.09V13.9248C9.54191 13.9248 8.84394 14.1368 8.25053 14.534L8.34238 14.6712ZM7.07537 16.2186C7.33517 15.5887 7.77614 15.0502 8.34238 14.6712L8.25053 14.534C7.65711 14.9311 7.19497 15.4955 6.9227 16.1556L7.07537 16.2186ZM6.88304 18.2093C6.74863 17.5413 6.81557 16.8485 7.07537 16.2186L6.9227 16.1556C6.65043 16.8157 6.58028 17.5418 6.72115 18.2418L6.88304 18.2093ZM7.83039 19.9706C7.34717 19.4902 7.01746 18.8772 6.88304 18.2093L6.72115 18.2418C6.86201 18.9418 7.20755 19.5843 7.71396 20.0877L7.83039 19.9706ZM5.95935 22.6202C6.23978 21.5764 6.90268 20.6764 7.81629 20.0989L7.72806 19.9593C6.77939 20.5589 6.09105 21.4935 5.79986 22.5774L5.95935 22.6202ZM6.04494 23.2247C5.93735 23.0422 5.90663 22.8245 5.95956 22.6194L5.79965 22.5782C5.73578 22.8257 5.77285 23.0884 5.90269 23.3086L6.04494 23.2247ZM6.5333 23.5923C6.32821 23.5394 6.15254 23.4071 6.04494 23.2247L5.90269 23.3086C6.03254 23.5287 6.24453 23.6883 6.49203 23.7522L6.5333 23.5923ZM7.13855 23.5069C6.9561 23.6145 6.73839 23.6452 6.5333 23.5923L6.49203 23.7522C6.73953 23.8161 7.00227 23.779 7.22244 23.6491L7.13855 23.5069ZM7.50616 23.0185C7.45323 23.2236 7.321 23.3993 7.13855 23.5069L7.22244 23.6491C7.44262 23.5193 7.60219 23.3073 7.66606 23.0598L7.50616 23.0185ZM10.256 20.9749C8.98924 20.9749 7.8069 21.8497 7.50614 23.0186L7.66608 23.0597C7.94663 21.9694 9.05871 21.14 10.256 21.14V20.9749ZM13.0058 23.0187C12.7062 21.8497 11.5226 20.9749 10.256 20.9749V21.14C11.4533 21.14 12.5664 21.9695 12.8458 23.0597L13.0058 23.0187ZM13.3734 23.5069C13.1909 23.3993 13.0587 23.2236 13.0058 23.0185L12.8459 23.0598C12.9097 23.3073 13.0693 23.5193 13.2895 23.6491L13.3734 23.5069ZM13.9786 23.5923C13.7735 23.6452 13.5558 23.6145 13.3734 23.5069L13.2895 23.6491C13.5097 23.779 13.7724 23.8161 14.0199 23.7522L13.9786 23.5923ZM14.467 23.2247C14.3594 23.4071 14.1837 23.5394 13.9786 23.5923L14.0199 23.7522C14.2674 23.6883 14.4794 23.5287 14.6092 23.3086L14.467 23.2247ZM10.2571 19.3784C10.6218 19.3784 10.9783 19.2703 11.2816 19.0677L11.1899 18.9303C10.9137 19.1148 10.5891 19.2133 10.2571 19.2133V19.3784ZM8.95307 18.8383C9.29891 19.1842 9.76797 19.3784 10.2571 19.3784V19.2133C9.81177 19.2133 9.38471 19.0364 9.06984 18.7215L8.95307 18.8383ZM8.41294 17.5343C8.41294 18.0234 8.60723 18.4925 8.95307 18.8383L9.06984 18.7215C8.75497 18.4067 8.57808 17.9796 8.57808 17.5343H8.41294ZM8.72373 16.5098C8.52109 16.813 8.41294 17.1696 8.41294 17.5343H8.57808C8.57808 17.2023 8.67655 16.8776 8.86104 16.6015L8.72373 16.5098ZM9.55135 15.8306C9.21438 15.9702 8.92636 16.2065 8.72373 16.5098L8.86104 16.6015C9.04553 16.3254 9.30775 16.1102 9.61454 15.9831L9.55135 15.8306ZM10.6168 15.7256C10.2591 15.6545 9.88832 15.691 9.55135 15.8306L9.61454 15.9831C9.92134 15.8561 10.2589 15.8228 10.5846 15.8876L10.6168 15.7256ZM11.5611 16.2303C11.3031 15.9724 10.9746 15.7968 10.6168 15.7256L10.5846 15.8876C10.9103 15.9524 11.2095 16.1123 11.4443 16.3471L11.5611 16.2303ZM12.0658 17.1746C11.9946 16.8168 11.819 16.4882 11.5611 16.2303L11.4443 16.3471C11.6791 16.5819 11.839 16.8811 11.9038 17.2068L12.0658 17.1746ZM11.9608 18.24C12.1004 17.9031 12.1369 17.5323 12.0658 17.1746L11.9038 17.2068C11.9686 17.5325 11.9353 17.87 11.8082 18.1768L11.9608 18.24ZM11.2816 19.0677C11.5849 18.865 11.8212 18.577 11.9608 18.24L11.8082 18.1768C11.6812 18.4836 11.466 18.7459 11.1899 18.9303L11.2816 19.0677Z" fill="#060505" mask="url(#path-1-inside-1_30_20526)"/>
<path d="M21.5068 14.8442L21.5068 14.8442C20.1664 13.7473 18.5689 11.7458 18.5689 8.44942V4.98876C18.5689 4.69921 18.6839 4.42152 18.8886 4.21677C19.0934 4.01203 19.3711 3.897 19.6606 3.897H29.5482C29.8378 3.897 30.1155 4.01203 30.3202 4.21677C30.525 4.42152 30.64 4.69921 30.64 4.98876V8.44942C30.64 11.7458 29.0425 13.7473 27.7059 14.8441L27.7057 14.8443C26.2631 16.0226 24.8318 16.423 24.7629 16.4416M21.5068 14.8442L24.7361 16.3422M21.5068 14.8442C22.9476 16.0226 24.3808 16.423 24.4497 16.4416M21.5068 14.8442L24.4765 16.3422M24.7629 16.4416L24.7361 16.3422M24.7629 16.4416C24.763 16.4416 24.763 16.4416 24.7631 16.4416L24.7361 16.3422M24.7629 16.4416C24.6604 16.4695 24.5522 16.4695 24.4497 16.4416M24.7361 16.3422C24.6511 16.3653 24.5615 16.3653 24.4765 16.3422M24.4497 16.4416L24.4765 16.3422M24.4497 16.4416C24.4496 16.4416 24.4495 16.4416 24.4495 16.4416L24.4765 16.3422M22.5551 9.50996L22.5552 9.50998L23.6157 10.5711L26.6537 7.53244L26.6537 7.53244C26.7092 7.47694 26.7751 7.43292 26.8476 7.40288C26.9201 7.37285 26.9979 7.35739 27.0763 7.35739C27.1548 7.35739 27.2325 7.37285 27.305 7.40288C27.3776 7.43292 27.4434 7.47694 27.4989 7.53244C27.5544 7.58793 27.5985 7.65382 27.6285 7.72633C27.6585 7.79884 27.674 7.87656 27.674 7.95504C27.674 8.03352 27.6585 8.11124 27.6285 8.18375C27.5985 8.25626 27.5544 8.32215 27.4989 8.37764L24.0383 11.8383L24.0383 11.8383L23.9654 11.7655C23.9195 11.8114 23.865 11.8479 23.805 11.8728C23.745 11.8977 23.6806 11.9105 23.6157 11.9105C23.5507 11.9105 23.4864 11.8977 23.4264 11.8728C23.3663 11.8479 23.3118 11.8114 23.2659 11.7655L22.5551 9.50996ZM22.5551 9.50996C22.4431 9.39788 22.291 9.33491 22.1325 9.33491C21.974 9.33491 21.822 9.39788 21.7099 9.50996C21.5979 9.62204 21.5349 9.77405 21.5349 9.93256C21.5349 10.0911 21.5979 10.2431 21.7099 10.3552L23.193 11.8383L22.5551 9.50996ZM29.4452 8.44942C29.4452 10.7116 28.6132 12.5411 26.9738 13.8958C26.2677 14.4773 25.4659 14.9314 24.6044 15.238C23.7543 14.9368 22.9627 14.4908 22.2645 13.9197C20.6054 12.5625 19.7636 10.7257 19.7636 8.44942V5.09176H29.4452V8.44942Z" fill="#060505" stroke="#060505" stroke-width="0.205992"/>
</svg>
