<svg width="31" height="22" viewBox="0 0 31 22" fill="none" xmlns="http://www.w3.org/2000/svg">
<path d="M16.5003 15.7111C18.0679 14.7347 19.2749 13.2744 19.9386 11.5509C20.6023 9.82752 20.6867 7.93481 20.1789 6.15916C19.6712 4.38352 18.5989 2.82155 17.1244 1.70957C15.6499 0.597584 13.8533 -0.00390625 12.0065 -0.00390625C10.1597 -0.00390625 8.36312 0.597584 6.8886 1.70957C5.41407 2.82155 4.34182 4.38352 3.83407 6.15916C3.32632 7.93481 3.4107 9.82752 4.07443 11.5509C4.73816 13.2744 5.94514 14.7347 7.51276 15.7111C4.93151 16.5561 2.60901 18.1348 0.741511 20.3573C0.570778 20.5604 0.487702 20.823 0.510558 21.0873C0.533414 21.3516 0.66033 21.596 0.863387 21.7667C1.06644 21.9375 1.32901 22.0205 1.59332 21.9977C1.85762 21.9748 2.10203 21.8479 2.27276 21.6448C4.78151 18.6498 8.23901 17.0011 12.0003 17.0011C15.7615 17.0011 19.219 18.6498 21.734 21.6448C21.9047 21.8479 22.1491 21.9748 22.4135 21.9977C22.6778 22.0205 22.9403 21.9375 23.1434 21.7667C23.3464 21.596 23.4734 21.3516 23.4962 21.0873C23.5191 20.823 23.436 20.5604 23.2653 20.3573C21.3978 18.1348 19.0753 16.5561 16.5003 15.7111ZM5.50026 8.50109C5.50026 7.21552 5.88148 5.95881 6.59571 4.88989C7.30994 3.82097 8.3251 2.98785 9.51282 2.49588C10.7005 2.00391 12.0075 1.87518 13.2683 2.12599C14.5292 2.37679 15.6874 2.99586 16.5965 3.9049C17.5055 4.81394 18.1246 5.97213 18.3754 7.23301C18.6262 8.49388 18.4974 9.80082 18.0055 10.9885C17.5135 12.1763 16.6804 13.1914 15.6115 13.9056C14.5425 14.6199 13.2858 15.0011 12.0003 15.0011C10.277 14.9991 8.62482 14.3137 7.40626 13.0951C6.1877 11.8765 5.50225 10.2244 5.50026 8.50109ZM30.2078 12.7086L26.2078 16.7086C26.1149 16.8016 26.0046 16.8753 25.8832 16.9257C25.7618 16.976 25.6317 17.0019 25.5003 17.0019C25.3688 17.0019 25.2387 16.976 25.1173 16.9257C24.9959 16.8753 24.8856 16.8016 24.7928 16.7086L22.7928 14.7086C22.6051 14.521 22.4997 14.2665 22.4997 14.0011C22.4997 13.7357 22.6051 13.4812 22.7928 13.2936C22.9804 13.106 23.2349 13.0005 23.5003 13.0005C23.7656 13.0005 24.0201 13.106 24.2078 13.2936L25.5003 14.5873L28.7928 11.2936C28.9804 11.106 29.2349 11.0005 29.5003 11.0005C29.7656 11.0005 30.0201 11.106 30.2078 11.2936C30.3954 11.4812 30.5008 11.7357 30.5008 12.0011C30.5008 12.2665 30.3954 12.521 30.2078 12.7086Z" fill="#060505"/>
</svg>
