<svg width="108" height="108" viewBox="0 0 108 108" fill="none" xmlns="http://www.w3.org/2000/svg">
<path d="M49.7948 71.8623V105.902C49.7967 106.197 49.7363 106.489 49.6174 106.759C49.4986 107.029 49.3241 107.27 49.1055 107.467C48.8868 107.664 48.629 107.813 48.3492 107.902C48.0693 107.991 47.7737 108.02 47.4819 107.986C37.896 106.803 28.8002 103.063 21.14 97.1539C13.4797 91.2447 7.53456 83.3823 3.92232 74.3838C3.81434 74.1102 3.76526 73.8168 3.77831 73.5228C3.79136 73.2288 3.86624 72.941 3.99802 72.6782C4.1298 72.4153 4.3155 72.1835 4.54288 71.998C4.77027 71.8125 5.03418 71.6775 5.31726 71.6018L38.0337 62.7766C38.4525 62.6662 38.8952 62.6903 39.2997 62.8453C39.7042 63.0004 40.0503 63.2788 40.2894 63.6415C42.2703 66.5204 45.0967 68.706 48.3739 69.8931C48.7861 70.0305 49.145 70.2945 49.4 70.6478C49.6549 71.0012 49.793 71.4259 49.7948 71.8623ZM53.9744 0.000117229C53.427 -0.00400743 52.8842 0.100749 52.3773 0.30835C51.8703 0.515951 51.4093 0.822291 51.0208 1.20971C50.6323 1.59713 50.3239 2.05798 50.1135 2.56568C49.9031 3.07338 49.7947 3.6179 49.7948 4.16785V33.342C49.7865 34.4382 50.2116 35.4928 50.9768 36.2743C51.7421 37.0558 52.7848 37.5001 53.8759 37.5097C57.7939 37.4928 61.5915 38.8691 64.5963 41.395C67.6012 43.9209 69.6195 47.4335 70.2939 51.311C70.9684 55.1884 70.2554 59.1805 68.2812 62.5804C66.3071 65.9804 63.1991 68.569 59.5075 69.8878C59.0954 70.0265 58.737 70.2916 58.483 70.6459C58.229 71.0002 58.0922 71.4257 58.0918 71.8623V105.902C58.09 106.197 58.1503 106.488 58.2688 106.758C58.3873 107.027 58.5613 107.268 58.7794 107.465C58.9975 107.662 59.2546 107.81 59.5338 107.9C59.8131 107.99 60.1081 108.019 60.3994 107.986C74.0662 106.362 86.598 99.551 95.4287 88.9471C104.259 78.3431 108.721 64.7488 107.9 50.9478C107.079 37.1467 101.037 24.1832 91.0118 14.7115C80.9866 5.23992 67.7364 -0.0231197 53.9744 0.000117229ZM37.3803 52.8731C37.5733 50.4112 38.3084 48.0233 39.5323 45.8817V45.8452C39.9434 45.1319 40.1347 44.3122 40.0821 43.4897C40.0295 42.6672 39.7353 41.8788 39.2367 41.2242C38.888 40.774 38.4545 40.397 37.9611 40.1146L12.8987 25.5588C12.4265 25.2852 11.9053 25.1078 11.3648 25.0368C10.8243 24.9657 10.2752 25.0023 9.7488 25.1446C9.22242 25.2868 8.7291 25.5319 8.29705 25.8658C7.86499 26.1996 7.50266 26.6158 7.23077 27.0904C1.19522 37.5919 -1.16364 49.8223 0.530886 61.8285C0.570869 62.1215 0.672486 62.4026 0.828982 62.6532C0.985477 62.9037 1.19327 63.1179 1.43853 63.2815C1.6838 63.4451 1.96092 63.5544 2.25148 63.6021C2.54204 63.6498 2.83938 63.6348 3.12372 63.5581L35.9075 54.7017C36.3138 54.5889 36.6754 54.3526 36.9428 54.0252C37.2102 53.6978 37.3702 53.2954 37.401 52.8731H37.3803Z" fill="#F2F2F2"/>
</svg>
