<svg width="108" height="108" viewBox="0 0 108 108" fill="none" xmlns="http://www.w3.org/2000/svg">
<path d="M54 0C43.3198 0 32.8795 3.16704 23.9992 9.10064C15.119 15.0342 8.19766 23.4679 4.11053 33.3351C0.0233974 43.2023 -1.04598 54.0599 1.03762 64.5349C3.12122 75.0098 8.26422 84.6317 15.8163 92.1837C23.3683 99.7358 32.9902 104.879 43.4651 106.962C53.9401 109.046 64.7977 107.977 74.6649 103.889C84.5321 99.8023 92.9658 92.881 98.8994 84.0008C104.833 75.1205 108 64.6802 108 54C107.985 39.6829 102.291 25.9566 92.1671 15.8329C82.0434 5.70924 68.3171 0.0151191 54 0ZM54 8.30769C61.315 8.31068 68.5223 10.0699 75.0161 13.4374C81.5099 16.8049 87.1002 21.6822 91.3171 27.6594L54 49.2023V8.30769ZM54 99.6923C46.685 99.6893 39.4777 97.9301 32.9839 94.5626C26.4902 91.1951 20.8998 86.3177 16.6829 80.3406L95.4814 34.8508C98.6947 41.8124 100.105 49.4707 99.5809 57.1202C99.0573 64.7697 96.6172 72.1645 92.4853 78.6233C88.3533 85.0822 82.6625 90.3974 75.9369 94.0793C69.2114 97.7612 61.6674 99.6915 54 99.6923Z" fill="#F2F2F2"/>
</svg>
