<svg width="42" height="42" viewBox="0 0 42 42" fill="none" xmlns="http://www.w3.org/2000/svg">
<path d="M19.4377 27.629V40.3907C19.4385 40.5013 19.4157 40.6108 19.371 40.7119C19.3262 40.8131 19.2605 40.9036 19.1781 40.9775C19.0958 41.0513 18.9987 41.1068 18.8933 41.1404C18.7879 41.1739 18.6765 41.1846 18.5667 41.1719C14.9562 40.7285 11.5304 39.3262 8.64525 37.1109C5.7601 34.8955 3.52092 31.9478 2.16041 28.5743C2.11974 28.4717 2.10126 28.3617 2.10617 28.2515C2.11109 28.1413 2.13929 28.0333 2.18892 27.9348C2.23856 27.8363 2.3085 27.7494 2.39414 27.6798C2.47978 27.6103 2.57918 27.5597 2.6858 27.5313L15.0081 24.2227C15.1658 24.1813 15.3325 24.1903 15.4849 24.2485C15.6373 24.3066 15.7676 24.411 15.8577 24.5469C16.6038 25.6262 17.6683 26.4456 18.9026 26.8907C19.0579 26.9422 19.193 27.0412 19.2891 27.1736C19.3851 27.3061 19.4371 27.4654 19.4377 27.629ZM21.012 0.687544C20.8058 0.685998 20.6014 0.725271 20.4104 0.803102C20.2195 0.880932 20.0459 0.99578 19.8995 1.14103C19.7532 1.28627 19.6371 1.45904 19.5578 1.64938C19.4785 1.83972 19.4377 2.04386 19.4377 2.25004V13.1875C19.4346 13.5985 19.5948 13.9939 19.883 14.2869C20.1712 14.5798 20.5639 14.7464 20.9749 14.75C22.4505 14.7437 23.8809 15.2597 25.0126 16.2066C26.1444 17.1536 26.9045 18.4705 27.1585 19.9242C27.4126 21.3778 27.144 22.8745 26.4005 24.1491C25.6569 25.4238 24.4863 26.3943 23.096 26.8887C22.9407 26.9407 22.8058 27.0401 22.7101 27.1729C22.6144 27.3057 22.5629 27.4653 22.5627 27.629V40.3907C22.562 40.5011 22.5848 40.6104 22.6294 40.7114C22.674 40.8124 22.7396 40.9028 22.8217 40.9767C22.9038 41.0505 23.0007 41.1061 23.1059 41.1397C23.211 41.1734 23.3222 41.1843 23.4319 41.1719C28.5793 40.5631 33.2993 38.0096 36.6253 34.0341C39.9513 30.0586 41.6317 24.9621 41.3224 19.788C41.0131 14.614 38.7376 9.75386 34.9617 6.20291C31.1858 2.65196 26.1953 0.678832 21.012 0.687544ZM14.762 20.5098C14.8347 19.5869 15.1115 18.6916 15.5725 17.8887V17.875C15.7273 17.6076 15.7994 17.3003 15.7796 16.9919C15.7598 16.6836 15.649 16.388 15.4612 16.1426C15.3298 15.9738 15.1666 15.8325 14.9807 15.7266L5.54127 10.2696C5.36341 10.167 5.1671 10.1005 4.96353 10.0739C4.75996 10.0472 4.55314 10.061 4.35489 10.1143C4.15663 10.1676 3.97083 10.2595 3.8081 10.3847C3.64537 10.5098 3.5089 10.6659 3.4065 10.8438C1.13328 14.7808 0.244839 19.3661 0.883064 23.8672C0.898123 23.9771 0.936396 24.0825 0.995339 24.1764C1.05428 24.2703 1.13254 24.3506 1.22492 24.412C1.3173 24.4733 1.42167 24.5143 1.53111 24.5322C1.64054 24.55 1.75253 24.5444 1.85963 24.5157L14.2073 21.1954C14.3603 21.1531 14.4965 21.0645 14.5972 20.9418C14.6979 20.819 14.7582 20.6681 14.7698 20.5098H14.762Z" fill="url(#paint0_linear_30_35346)"/>
<defs>
<linearGradient id="paint0_linear_30_35346" x1="21.0201" y1="0.6875" x2="21.0201" y2="57.2502" gradientUnits="userSpaceOnUse">
<stop stop-color="#4C83EA"/>
<stop offset="1" stop-color="#2B4A84"/>
</linearGradient>
</defs>
</svg>
