<svg width="42" height="42" viewBox="0 0 42 42" fill="none" xmlns="http://www.w3.org/2000/svg">
<path d="M21 0.6875C16.9826 0.6875 13.0554 1.87881 9.71499 4.11077C6.37462 6.34274 3.77111 9.51512 2.23371 13.2267C0.696301 16.9384 0.294046 21.0225 1.07781 24.9628C1.86157 28.903 3.79615 32.5224 6.6369 35.3631C9.47766 38.2039 13.097 40.1384 17.0372 40.9222C20.9775 41.706 25.0616 41.3037 28.7733 39.7663C32.4849 38.2289 35.6573 35.6254 37.8892 32.285C40.1212 28.9446 41.3125 25.0174 41.3125 21C41.3068 15.6145 39.1649 10.4513 35.3568 6.64317C31.5487 2.83507 26.3855 0.693187 21 0.6875ZM21 3.8125C23.7516 3.81362 26.4627 4.47536 28.9054 5.74207C31.348 7.00878 33.4509 8.84344 35.0371 11.0918L21 19.1953V3.8125ZM21 38.1875C18.2484 38.1864 15.5373 37.5246 13.0947 36.2579C10.652 34.9912 8.54913 33.1566 6.9629 30.9082L36.6035 13.7969C37.8122 16.4155 38.3426 19.2963 38.1456 22.1737C37.9487 25.0511 37.0308 27.8327 35.4765 30.2623C33.9223 32.6918 31.7816 34.6911 29.2517 36.0761C26.7219 37.4611 23.8842 38.1872 21 38.1875Z" fill="url(#paint0_linear_30_35358)"/>
<defs>
<linearGradient id="paint0_linear_30_35358" x1="21" y1="0.6875" x2="20.3422" y2="59.4091" gradientUnits="userSpaceOnUse">
<stop stop-color="#C89666"/>
<stop offset="1" stop-color="#624A32"/>
</linearGradient>
</defs>
</svg>
