<svg width="42" height="37" viewBox="0 0 42 37" fill="none" xmlns="http://www.w3.org/2000/svg">
<path d="M41.3125 34.625C41.3125 35.0394 41.1479 35.4368 40.8549 35.7299C40.5618 36.0229 40.1644 36.1875 39.75 36.1875H2.25C1.8356 36.1875 1.43817 36.0229 1.14515 35.7299C0.85212 35.4368 0.6875 35.0394 0.6875 34.625C0.6875 34.2106 0.85212 33.8132 1.14515 33.5201C1.43817 33.2271 1.8356 33.0625 2.25 33.0625H3.8125V20.5625C3.8125 20.1481 3.97712 19.7507 4.27015 19.4576C4.56317 19.1646 4.9606 19 5.375 19H10.0625C10.4769 19 10.8743 19.1646 11.1674 19.4576C11.4604 19.7507 11.625 20.1481 11.625 20.5625V33.0625H14.75V11.1875C14.75 10.7731 14.9146 10.3757 15.2076 10.0826C15.5007 9.78962 15.8981 9.625 16.3125 9.625H22.5625C22.9769 9.625 23.3743 9.78962 23.6674 10.0826C23.9604 10.3757 24.125 10.7731 24.125 11.1875V33.0625H27.25V1.8125C27.25 1.3981 27.4146 1.00067 27.7076 0.707646C28.0007 0.41462 28.3981 0.25 28.8125 0.25H36.625C37.0394 0.25 37.4368 0.41462 37.7299 0.707646C38.0229 1.00067 38.1875 1.3981 38.1875 1.8125V33.0625H39.75C40.1644 33.0625 40.5618 33.2271 40.8549 33.5201C41.1479 33.8132 41.3125 34.2106 41.3125 34.625Z" fill="url(#paint0_linear_30_35334)"/>
<defs>
<linearGradient id="paint0_linear_30_35334" x1="21" y1="0.25" x2="21" y2="52.035" gradientUnits="userSpaceOnUse">
<stop stop-color="#F27129"/>
<stop offset="1" stop-color="#A3410A"/>
</linearGradient>
</defs>
</svg>
