<svg width="108" height="95" viewBox="0 0 108 95" fill="none" xmlns="http://www.w3.org/2000/svg">
<path d="M108 90.8696C108 91.965 107.562 93.0156 106.783 93.7902C106.004 94.5648 104.948 95 103.846 95H4.15385C3.05218 95 1.99563 94.5648 1.21663 93.7902C0.437636 93.0156 0 91.965 0 90.8696C0 89.7741 0.437636 88.7235 1.21663 87.9489C1.99563 87.1743 3.05218 86.7391 4.15385 86.7391H8.30769V53.6957C8.30769 52.6002 8.74533 51.5496 9.52433 50.775C10.3033 50.0004 11.3599 49.5652 12.4615 49.5652H24.9231C26.0247 49.5652 27.0813 50.0004 27.8603 50.775C28.6393 51.5496 29.0769 52.6002 29.0769 53.6957V86.7391H37.3846V28.913C37.3846 27.8176 37.8223 26.767 38.6012 25.9924C39.3802 25.2178 40.4368 24.7826 41.5385 24.7826H58.1538C59.2555 24.7826 60.3121 25.2178 61.0911 25.9924C61.8701 26.767 62.3077 27.8176 62.3077 28.913V86.7391H70.6154V4.13043C70.6154 3.03498 71.053 1.98438 71.832 1.20978C72.611 0.43517 73.6676 0 74.7692 0H95.5385C96.6401 0 97.6967 0.43517 98.4757 1.20978C99.2547 1.98438 99.6923 3.03498 99.6923 4.13043V86.7391H103.846C104.948 86.7391 106.004 87.1743 106.783 87.9489C107.562 88.7235 108 89.7741 108 90.8696Z" fill="#F2F2F2"/>
</svg>
