<svg width="28" height="28" viewBox="0 0 28 28" fill="none" xmlns="http://www.w3.org/2000/svg">
<path d="M23.625 7H6.125C5.89294 7 5.67038 6.90781 5.50628 6.74372C5.34219 6.57962 5.25 6.35706 5.25 6.125C5.25 5.89294 5.34219 5.67038 5.50628 5.50628C5.67038 5.34219 5.89294 5.25 6.125 5.25H21C21.2321 5.25 21.4546 5.15781 21.6187 4.99372C21.7828 4.82962 21.875 4.60706 21.875 4.375C21.875 4.14294 21.7828 3.92038 21.6187 3.75628C21.4546 3.59219 21.2321 3.5 21 3.5H6.125C5.42881 3.5 4.76113 3.77656 4.26884 4.26884C3.77656 4.76113 3.5 5.42881 3.5 6.125V20.125C3.5 20.8212 3.77656 21.4889 4.26884 21.9812C4.76113 22.4734 5.42881 22.75 6.125 22.75H23.625C24.0891 22.75 24.5342 22.5656 24.8624 22.2374C25.1906 21.9092 25.375 21.4641 25.375 21V8.75C25.375 8.28587 25.1906 7.84075 24.8624 7.51256C24.5342 7.18437 24.0891 7 23.625 7ZM23.625 21H6.125C5.89294 21 5.67038 20.9078 5.50628 20.7437C5.34219 20.5796 5.25 20.3571 5.25 20.125V8.60016C5.53096 8.69975 5.82691 8.75043 6.125 8.75H23.625V21ZM18.375 14.4375C18.375 14.1779 18.452 13.9242 18.5962 13.7083C18.7404 13.4925 18.9454 13.3242 19.1852 13.2249C19.4251 13.1256 19.689 13.0996 19.9436 13.1502C20.1982 13.2009 20.432 13.3259 20.6156 13.5094C20.7991 13.693 20.9241 13.9268 20.9748 14.1814C21.0254 14.436 20.9994 14.6999 20.9001 14.9398C20.8008 15.1796 20.6325 15.3846 20.4167 15.5288C20.2008 15.673 19.9471 15.75 19.6875 15.75C19.3394 15.75 19.0056 15.6117 18.7594 15.3656C18.5133 15.1194 18.375 14.7856 18.375 14.4375Z" fill="white"/>
</svg>
