<svg width="46" height="46" viewBox="0 0 46 46" fill="none" xmlns="http://www.w3.org/2000/svg">
<path d="M34.3696 17.6348H43.6999C44.5457 17.6373 45.2307 18.3223 45.2333 19.1681V22.2348C45.2307 23.0805 44.5457 23.7656 43.6999 23.7681H2.29993C1.45415 23.7656 0.769128 23.0805 0.766602 22.2348V19.1681C0.769128 18.3223 1.45415 17.6373 2.29993 17.6348H34.3696Z" fill="#00BCD4"/>
<path d="M43.6999 17.6348H41.3999C42.2457 17.6373 42.9307 18.3223 42.9332 19.1681V22.2348C42.9307 23.0805 42.2457 23.7656 41.3999 23.7681H43.6999C44.5457 23.7656 45.2307 23.0805 45.2332 22.2348V19.1681C45.2307 18.3223 44.5457 17.6373 43.6999 17.6348Z" fill="#00838F"/>
<path d="M28.9416 23.7676H42.9333L39.6673 42.0756C39.3375 43.9042 37.7458 45.2344 35.8876 45.2342H10.1123C8.25417 45.2344 6.66244 43.9042 6.33265 42.0756L3.06665 23.7676H28.9416Z" fill="#00BCD4"/>
<path d="M40.6333 23.7676L37.3673 42.0756C37.0375 43.9042 35.4458 45.2344 33.5876 45.2342H35.8877C37.7458 45.2344 39.3375 43.9042 39.6673 42.0756L42.9333 23.7676H40.6333Z" fill="#00838F"/>
<path d="M24.5332 29.1349C24.5332 28.2881 23.8467 27.6016 22.9999 27.6016C22.153 27.6016 21.4666 28.2881 21.4666 29.1349V39.8682C21.4666 40.7151 22.153 41.4016 22.9999 41.4016C23.8467 41.4016 24.5332 40.7151 24.5332 39.8682V29.1349Z" fill="#00838F"/>
<path d="M33.7334 29.1349C33.7334 28.2881 33.0469 27.6016 32.2001 27.6016C31.3532 27.6016 30.6667 28.2881 30.6667 29.1349V39.8682C30.6667 40.7151 31.3532 41.4016 32.2001 41.4016C33.0469 41.4016 33.7334 40.7151 33.7334 39.8682V29.1349Z" fill="#00838F"/>
<path d="M15.3333 29.1349C15.3333 28.2881 14.6468 27.6016 13.7999 27.6016C12.9531 27.6016 12.2666 28.2881 12.2666 29.1349V39.8682C12.2666 40.7151 12.9531 41.4016 13.7999 41.4016C14.6468 41.4016 15.3333 40.7151 15.3333 39.8682V29.1349Z" fill="#00838F"/>
<path d="M23.0001 25.3009C29.7747 25.3009 35.2667 19.8089 35.2667 13.0342C35.2667 6.25955 29.7747 0.767578 23.0001 0.767578C16.2254 0.767578 10.7334 6.25955 10.7334 13.0342C10.7334 19.8089 16.2254 25.3009 23.0001 25.3009Z" fill="#60A917"/>
<path d="M23.0001 0.767578C22.6122 0.767578 22.2288 0.790578 21.8501 0.825845C28.1506 1.41726 32.9662 6.70605 32.9662 13.0342C32.9662 19.3624 28.1506 24.6512 21.8501 25.2426C22.2288 25.2779 22.6122 25.3009 23.0001 25.3009C29.7748 25.3009 35.2668 19.8089 35.2668 13.0342C35.2668 6.25955 29.7748 0.767578 23.0001 0.767578Z" fill="#549414"/>
<path d="M29.1332 11.5005H24.5332V6.90052C24.5332 6.05368 23.8468 5.36719 22.9999 5.36719C22.1531 5.36719 21.4666 6.05368 21.4666 6.90052V11.5005H16.8666C16.0197 11.5005 15.3333 12.187 15.3333 13.0339C15.3333 13.8807 16.0197 14.5672 16.8666 14.5672H21.4666V19.1672C21.4666 20.014 22.1531 20.7005 22.9999 20.7005C23.8468 20.7005 24.5332 20.014 24.5332 19.1672V14.5672H29.1332C29.9801 14.5672 30.6666 13.8807 30.6666 13.0339C30.6666 12.187 29.9801 11.5005 29.1332 11.5005Z" fill="#F5F5F5"/>
<path d="M43.7 16.8674H35.456C37.1034 11.5182 35.1515 5.71455 30.6065 2.44798C26.0616 -0.818596 19.9384 -0.818596 15.3935 2.44798C10.8485 5.71455 8.89662 11.5182 10.544 16.8674H2.3C1.02974 16.8674 0 17.8971 0 19.1674V22.2341C0 23.5043 1.02974 24.5341 2.3 24.5341H2.42497L5.5775 42.2119C5.97333 44.4056 7.88312 46.0013 10.1123 46.0007H35.8877C38.1174 46.0011 40.0273 44.4047 40.4225 42.2103L43.575 24.5341H43.7C44.9702 24.5341 46 23.5043 46 22.2341V19.1674C46 17.8971 44.9702 16.8674 43.7 16.8674ZM23 1.53406C29.3513 1.53406 34.5 6.68279 34.5 13.0341C34.5 19.3853 29.3513 24.5341 23 24.5341C16.6487 24.5341 11.5 19.3853 11.5 13.0341C11.5072 6.68576 16.6517 1.54124 23 1.53406ZM1.53333 22.2341V19.1674C1.53333 18.744 1.87658 18.4007 2.3 18.4007H11.1366C11.941 20.1738 13.1306 21.7453 14.6188 23.0007H2.3C1.87658 23.0007 1.53333 22.6575 1.53333 22.2341ZM38.9129 41.9374C38.6501 43.402 37.3756 44.4678 35.8877 44.4674H10.1123C8.62447 44.4675 7.3502 43.4018 7.08707 41.9374L3.98207 24.5341H16.8797C20.7038 26.5785 25.2962 26.5785 29.1203 24.5341H42.0179L38.9129 41.9374ZM44.4667 22.2341C44.4667 22.6575 44.1234 23.0007 43.7 23.0007H31.3812C32.8694 21.7453 34.059 20.1738 34.8634 18.4007H43.7C44.1234 18.4007 44.4667 18.744 44.4667 19.1674V22.2341Z" fill="black"/>
<path d="M5.36676 21.4669C5.79018 21.4669 6.13343 21.1237 6.13343 20.7003C6.13343 20.2768 5.79018 19.9336 5.36676 19.9336C4.94334 19.9336 4.6001 20.2768 4.6001 20.7003C4.6001 21.1237 4.94334 21.4669 5.36676 21.4669Z" fill="black"/>
<path d="M9.96662 21.4669C10.39 21.4669 10.7333 21.1237 10.7333 20.7003C10.7333 20.2768 10.39 19.9336 9.96662 19.9336C9.5432 19.9336 9.19995 20.2768 9.19995 20.7003C9.19995 21.1237 9.5432 21.4669 9.96662 21.4669Z" fill="black"/>
<path d="M36.0333 21.4669C36.4567 21.4669 36.8 21.1237 36.8 20.7003C36.8 20.2768 36.4567 19.9336 36.0333 19.9336C35.6099 19.9336 35.2666 20.2768 35.2666 20.7003C35.2666 21.1237 35.6099 21.4669 36.0333 21.4669Z" fill="black"/>
<path d="M40.6334 21.4669C41.0568 21.4669 41.4001 21.1237 41.4001 20.7003C41.4001 20.2768 41.0568 19.9336 40.6334 19.9336C40.21 19.9336 39.8667 20.2768 39.8667 20.7003C39.8667 21.1237 40.21 21.4669 40.6334 21.4669Z" fill="black"/>
<path d="M22.9999 26.834C21.7297 26.834 20.7 27.8637 20.7 29.134V39.8673C20.7 41.1376 21.7297 42.1673 22.9999 42.1673C24.2702 42.1673 25.2999 41.1376 25.2999 39.8673V29.134C25.2999 27.8637 24.2702 26.834 22.9999 26.834ZM23.7666 39.8673C23.7666 40.2907 23.4234 40.634 22.9999 40.634C22.5765 40.634 22.2333 40.2907 22.2333 39.8673V29.134C22.2333 28.7106 22.5765 28.3673 22.9999 28.3673C23.4234 28.3673 23.7666 28.7106 23.7666 29.134V39.8673Z" fill="black"/>
<path d="M32.1999 42.1673C33.4702 42.1673 34.4999 41.1376 34.4999 39.8673V29.134C34.4999 27.8637 33.4702 26.834 32.1999 26.834C30.9297 26.834 29.8999 27.8637 29.8999 29.134V39.8673C29.8999 41.1376 30.9297 42.1673 32.1999 42.1673ZM31.4332 29.134C31.4332 28.7106 31.7765 28.3673 32.1999 28.3673C32.6233 28.3673 32.9666 28.7106 32.9666 29.134V39.8673C32.9666 40.2907 32.6233 40.634 32.1999 40.634C31.7765 40.634 31.4332 40.2907 31.4332 39.8673V29.134Z" fill="black"/>
<path d="M13.8 26.834C12.5297 26.834 11.5 27.8637 11.5 29.134V39.8673C11.5 41.1376 12.5297 42.1673 13.8 42.1673C15.0703 42.1673 16.1 41.1376 16.1 39.8673V29.134C16.1 27.8637 15.0703 26.834 13.8 26.834ZM14.5667 39.8673C14.5667 40.2907 14.2234 40.634 13.8 40.634C13.3766 40.634 13.0333 40.2907 13.0333 39.8673V29.134C13.0333 28.7106 13.3766 28.3673 13.8 28.3673C14.2234 28.3673 14.5667 28.7106 14.5667 29.134V39.8673Z" fill="black"/>
<path d="M16.8667 15.3349H20.7V19.1682C20.7 20.4385 21.7297 21.4682 23 21.4682C24.2702 21.4682 25.3 20.4385 25.3 19.1682V15.3349H29.1333C30.4036 15.3349 31.4333 14.3051 31.4333 13.0349C31.4333 11.7646 30.4036 10.7349 29.1333 10.7349H25.3V6.90156C25.3 5.63131 24.2702 4.60156 23 4.60156C21.7297 4.60156 20.7 5.63131 20.7 6.90156V10.7349H16.8667C15.5964 10.7349 14.5667 11.7646 14.5667 13.0349C14.5667 14.3051 15.5964 15.3349 16.8667 15.3349ZM16.8667 12.2682H21.4666C21.8901 12.2682 22.2333 11.925 22.2333 11.5016V6.90156C22.2333 6.47814 22.5766 6.1349 23 6.1349C23.4234 6.1349 23.7666 6.47814 23.7666 6.90156V11.5016C23.7666 11.925 24.1099 12.2682 24.5333 12.2682H29.1333C29.5567 12.2682 29.9 12.6115 29.9 13.0349C29.9 13.4583 29.5567 13.8016 29.1333 13.8016H24.5333C24.1099 13.8016 23.7666 14.1448 23.7666 14.5682V19.1682C23.7666 19.5916 23.4234 19.9349 23 19.9349C22.5766 19.9349 22.2333 19.5916 22.2333 19.1682V14.5682C22.2333 14.1448 21.8901 13.8016 21.4666 13.8016H16.8667C16.4432 13.8016 16.1 13.4583 16.1 13.0349C16.1 12.6115 16.4432 12.2682 16.8667 12.2682Z" fill="black"/>
</svg>
