<svg width="79" height="78" viewBox="0 0 79 78" fill="none" xmlns="http://www.w3.org/2000/svg">
<g clip-path="url(#clip0_8967_171166)">
<path d="M77.6221 63.9171C80.1217 68.2496 76.9842 73.6654 71.9919 73.6654H7.00735C2.00547 73.6654 -1.11751 68.2412 1.37713 63.9171L33.8698 7.58C36.3706 3.24545 42.634 3.2533 45.1303 7.58L77.6221 63.9171ZM39.5 52.2695C36.0598 52.2695 33.2709 55.0584 33.2709 58.4987C33.2709 61.939 36.0598 64.7279 39.5 64.7279C42.9403 64.7279 45.7292 61.939 45.7292 58.4987C45.7292 55.0584 42.9403 52.2695 39.5 52.2695ZM33.586 29.8789L34.5905 48.2956C34.6375 49.1574 35.3501 49.832 36.2131 49.832H42.787C43.65 49.832 44.3626 49.1574 44.4096 48.2956L45.4141 29.8789C45.4649 28.9481 44.7237 28.1654 43.7915 28.1654H35.2084C34.2762 28.1654 33.5352 28.9481 33.586 29.8789Z" fill="url(#paint0_linear_8967_171166)"/>
</g>
<defs>
<linearGradient id="paint0_linear_8967_171166" x1="39.5" y1="4.33203" x2="39.5" y2="104.239" gradientUnits="userSpaceOnUse">
<stop stop-color="#F27129"/>
<stop offset="1" stop-color="#A3410A"/>
</linearGradient>
<clipPath id="clip0_8967_171166">
<rect width="78" height="78" fill="white" transform="translate(0.5)"/>
</clipPath>
</defs>
</svg>
