<svg width="153" height="96" viewBox="0 0 153 96" fill="none" xmlns="http://www.w3.org/2000/svg">
<g filter="url(#filter0_d_30_53742)">
<path d="M85.4306 36.7286H83.6013L83.5565 44.9997H80.1566L80.2014 36.7286H78.9687L78.984 33.9053H80.2167L80.2184 33.5872C80.2258 32.2219 80.6225 31.188 81.4083 30.4855C82.1943 29.7697 83.3428 29.4118 84.8539 29.4118C85.1057 29.4118 85.2912 29.4185 85.4105 29.4317L85.3948 32.3147C84.7455 32.2749 84.2877 32.3677 84.0214 32.593C83.7551 32.8184 83.6204 33.2226 83.6172 33.8059L83.6167 33.9053H85.4459L85.4306 36.7286ZM88.7596 32.7521C88.1632 32.7521 87.6736 32.5798 87.2911 32.2352C86.9219 31.8773 86.7387 31.4399 86.7415 30.9229C86.7444 30.3927 86.9323 29.9553 87.3053 29.6107C87.6917 29.2528 88.1831 29.0738 88.7796 29.0738C89.3628 29.0738 89.839 29.2528 90.2082 29.6107C90.5908 29.9553 90.7806 30.3927 90.7777 30.9229C90.7749 31.4399 90.5803 31.8773 90.194 32.2352C89.821 32.5798 89.3429 32.7521 88.7596 32.7521ZM90.4434 33.9053L90.3833 44.9997H86.9833L87.0435 33.9053H90.4434ZM99.6681 33.786C100.967 33.786 101.999 34.2101 102.763 35.0585C103.54 35.8935 103.925 37.0467 103.917 38.518L103.882 44.9997H100.502L100.535 38.9753C100.539 38.233 100.35 37.6564 99.9675 37.2455C99.5853 36.8346 99.0695 36.6292 98.42 36.6292C97.7705 36.6292 97.2524 36.8346 96.8658 37.2455C96.4791 37.6564 96.2838 38.233 96.2798 38.9753L96.2471 44.9997H92.8472L92.9073 33.9053H96.3073L96.2993 35.3766C96.6466 34.8861 97.1126 34.5018 97.6973 34.2234C98.2821 33.9318 98.9391 33.786 99.6681 33.786ZM105.599 39.4326C105.605 38.2927 105.823 37.2919 106.251 36.4303C106.693 35.5688 107.287 34.906 108.032 34.4421C108.777 33.9782 109.606 33.7462 110.521 33.7462C111.25 33.7462 111.912 33.8987 112.507 34.2035C113.115 34.5084 113.59 34.9193 113.932 35.4362L113.959 30.2867H117.359L117.28 44.9997H113.88L113.888 43.4091C113.567 43.9393 113.108 44.3634 112.51 44.6816C111.925 44.9997 111.241 45.1587 110.459 45.1587C109.544 45.1587 108.717 44.9268 107.977 44.4629C107.238 43.9857 106.652 43.3163 106.219 42.4547C105.799 41.5799 105.593 40.5725 105.599 39.4326ZM113.91 39.4525C113.914 38.6042 113.679 37.9348 113.205 37.4444C112.744 36.9539 112.175 36.7087 111.499 36.7087C110.823 36.7087 110.245 36.9539 109.765 37.4444C109.299 37.9215 109.063 38.5843 109.058 39.4326C109.054 40.2809 109.282 40.9569 109.743 41.4606C110.218 41.951 110.793 42.1963 111.469 42.1963C112.145 42.1963 112.717 41.951 113.183 41.4606C113.663 40.9702 113.905 40.3008 113.91 39.4525Z" fill="#F27129"/>
<path d="M45.4511 31.0647L45.4347 33.7888H39.7479L39.7302 36.7316H43.9853L43.9694 39.3761H39.7143L39.6803 45.023H36.2801L36.3641 31.0647H45.4511ZM48.9379 32.7747C48.3414 32.7747 47.852 32.6024 47.4696 32.2577C47.1006 31.8998 46.9176 31.4624 46.9207 30.9454C46.9239 30.4152 47.1122 29.9777 47.4854 29.6331C47.872 29.2752 48.3635 29.0962 48.96 29.0962C49.5433 29.0962 50.0194 29.2752 50.3885 29.6331C50.7708 29.9777 50.9604 30.4152 50.9572 30.9454C50.9541 31.4624 50.7592 31.8998 50.3727 32.2577C49.9994 32.6024 49.5212 32.7747 48.9379 32.7747ZM50.6211 33.928L50.5543 45.023H47.1542L47.2209 33.928H50.6211ZM56.4742 35.7771C56.8756 35.1674 57.3755 34.6902 57.9741 34.3455C58.5728 33.9876 59.2367 33.8087 59.9658 33.8087L59.9441 37.4076H59.0096C58.1612 37.4076 57.5238 37.5932 57.0973 37.9643C56.671 38.3222 56.4551 38.9585 56.4496 39.8732L56.4186 45.023H53.0184L53.0852 33.928H56.4853L56.4742 35.7771ZM66.0362 45.1821C65.0685 45.1821 64.2079 45.0164 63.4543 44.685C62.7007 44.3536 62.1069 43.9029 61.6728 43.3329C61.2389 42.7497 60.9976 42.1001 60.9489 41.3843H64.3093C64.3467 41.7687 64.5238 42.0803 64.8405 42.3189C65.1572 42.5575 65.5475 42.6768 66.0115 42.6768C66.4357 42.6768 66.7609 42.5972 66.9873 42.4382C67.2269 42.2658 67.3475 42.0471 67.3491 41.782C67.351 41.4639 67.1867 41.2319 66.8562 41.0861C66.5258 40.927 65.9899 40.7547 65.2487 40.5691C64.4545 40.3835 63.7928 40.1913 63.2638 39.9925C62.7348 39.7804 62.2794 39.4556 61.8976 39.0182C61.5159 38.5675 61.3273 37.9643 61.3319 37.2088C61.3357 36.5725 61.5115 35.9959 61.8593 35.4789C62.2204 34.9487 62.7399 34.5311 63.4178 34.2262C64.1089 33.9213 64.9251 33.7689 65.8663 33.7689C67.2581 33.7689 68.3497 34.1135 69.1409 34.8028C69.9454 35.4921 70.4038 36.4068 70.5163 37.5468H67.3746C67.3239 37.1624 67.1534 36.8575 66.8631 36.6321C66.5861 36.4068 66.2156 36.2941 65.7516 36.2941C65.354 36.2941 65.0486 36.3737 64.8355 36.5327C64.6226 36.6785 64.5153 36.884 64.5137 37.1491C64.5118 37.4673 64.676 37.7059 65.0065 37.8649C65.3502 38.024 65.8795 38.1831 66.5943 38.3421C67.4149 38.5542 68.0831 38.7663 68.5988 38.9784C69.1146 39.1772 69.5633 39.5086 69.9449 39.9726C70.3399 40.4233 70.5417 41.0331 70.5503 41.8019C70.5464 42.4514 70.3573 43.0347 69.983 43.5516C69.6221 44.0554 69.0961 44.453 68.405 44.7447C67.7272 45.0363 66.9376 45.1821 66.0362 45.1821ZM78.8124 42.1399L78.7951 45.023H77.0652C75.8324 45.023 74.8731 44.7248 74.1874 44.1283C73.5017 43.5185 73.163 42.531 73.1712 41.1656L73.1978 36.7514H71.8457L71.8627 33.928H73.2148L73.2311 31.2238H76.6312L76.6149 33.928H78.842L78.825 36.7514H76.598L76.5712 41.2054C76.5692 41.5368 76.6473 41.7754 76.8055 41.9212C76.9636 42.067 77.2283 42.1399 77.5995 42.1399H78.8124Z" fill="white"/>
<path d="M48.5852 48.6842L47.5816 52.0703H46.9531L46.2418 49.5076L45.4866 52.0703L44.863 52.0752L43.9032 48.6842H44.4927L45.1943 51.4418L45.9543 48.6842H46.5779L47.2844 51.4272L47.9908 48.6842H48.5852ZM50.4318 49.342C50.6364 49.342 50.8183 49.3858 50.9775 49.4735C51.1399 49.5612 51.2666 49.6911 51.3575 49.8633C51.4517 50.0354 51.4988 50.2433 51.4988 50.4869V52.0703H50.9483V50.5697C50.9483 50.3294 50.8882 50.1459 50.768 50.0192C50.6478 49.8893 50.4838 49.8243 50.2759 49.8243C50.068 49.8243 49.9024 49.8893 49.779 50.0192C49.6588 50.1459 49.5987 50.3294 49.5987 50.5697V52.0703H49.0433V48.465H49.5987V49.6976C49.6929 49.5839 49.8115 49.4963 49.9544 49.4345C50.1005 49.3728 50.2597 49.342 50.4318 49.342ZM52.0221 50.7159C52.0221 50.4463 52.0773 50.2076 52.1878 49.9997C52.3015 49.7918 52.4541 49.631 52.6457 49.5174C52.8406 49.4004 53.055 49.342 53.2889 49.342C53.5 49.342 53.6835 49.3842 53.8394 49.4686C53.9986 49.5498 54.1252 49.6522 54.2194 49.7756V49.3858H54.7797V52.0703H54.2194V51.6708C54.1252 51.7975 53.9969 51.903 53.8345 51.9875C53.6721 52.0719 53.487 52.1142 53.2791 52.1142C53.0485 52.1142 52.8374 52.0557 52.6457 51.9388C52.4541 51.8186 52.3015 51.6529 52.1878 51.4418C52.0773 51.2274 52.0221 50.9855 52.0221 50.7159ZM54.2194 50.7256C54.2194 50.5405 54.1804 50.3797 54.1025 50.2433C54.0278 50.1069 53.9287 50.0029 53.8053 49.9315C53.6819 49.86 53.5487 49.8243 53.4058 49.8243C53.2629 49.8243 53.1297 49.86 53.0063 49.9315C52.8829 49.9997 52.7822 50.102 52.7042 50.2384C52.6295 50.3716 52.5922 50.5307 52.5922 50.7159C52.5922 50.901 52.6295 51.0634 52.7042 51.2031C52.7822 51.3428 52.8829 51.4499 53.0063 51.5246C53.133 51.5961 53.2661 51.6318 53.4058 51.6318C53.5487 51.6318 53.6819 51.5961 53.8053 51.5246C53.9287 51.4532 54.0278 51.3493 54.1025 51.2128C54.1804 51.0732 54.2194 50.9108 54.2194 50.7256ZM56.1572 49.8389V51.3249C56.1572 51.4256 56.1799 51.4987 56.2254 51.5441C56.2741 51.5864 56.3553 51.6075 56.469 51.6075H56.81V52.0703H56.3716C56.1215 52.0703 55.9298 52.0118 55.7967 51.8949C55.6635 51.778 55.5969 51.588 55.5969 51.3249V49.8389H55.2802V49.3858H55.5969V48.7183H56.1572V49.3858H56.81V49.8389H56.1572ZM61.0041 49.3858L59.3573 53.3322H58.7824L59.3281 52.0265L58.2709 49.3858H58.8896L59.6448 51.4321L60.4292 49.3858H61.0041ZM62.5876 52.1142C62.3343 52.1142 62.1053 52.0573 61.9007 51.9436C61.6961 51.8267 61.5353 51.6643 61.4184 51.4564C61.3014 51.2453 61.243 51.0017 61.243 50.7256C61.243 50.4528 61.303 50.2108 61.4232 49.9997C61.5434 49.7886 61.7074 49.6262 61.9153 49.5125C62.1232 49.3988 62.3554 49.342 62.612 49.342C62.8686 49.342 63.1008 49.3988 63.3087 49.5125C63.5166 49.6262 63.6806 49.7886 63.8008 49.9997C63.921 50.2108 63.981 50.4528 63.981 50.7256C63.981 50.9985 63.9193 51.2404 63.7959 51.4516C63.6725 51.6627 63.5036 51.8267 63.2892 51.9436C63.0781 52.0573 62.8442 52.1142 62.5876 52.1142ZM62.5876 51.6318C62.7306 51.6318 62.8637 51.5977 62.9871 51.5295C63.1138 51.4613 63.2161 51.359 63.2941 51.2226C63.372 51.0862 63.411 50.9205 63.411 50.7256C63.411 50.5307 63.3737 50.3667 63.299 50.2336C63.2243 50.0971 63.1252 49.9948 63.0018 49.9266C62.8783 49.8584 62.7452 49.8243 62.6023 49.8243C62.4593 49.8243 62.3262 49.8584 62.2027 49.9266C62.0826 49.9948 61.9868 50.0971 61.9153 50.2336C61.8438 50.3667 61.8081 50.5307 61.8081 50.7256C61.8081 51.0147 61.8812 51.2388 62.0274 51.398C62.1768 51.5539 62.3635 51.6318 62.5876 51.6318ZM66.9612 49.3858V52.0703H66.4058V51.7536C66.3181 51.8641 66.2028 51.9518 66.0599 52.0167C65.9203 52.0784 65.7708 52.1093 65.6117 52.1093C65.4006 52.1093 65.2106 52.0654 65.0417 51.9777C64.876 51.89 64.7445 51.7601 64.647 51.588C64.5528 51.4158 64.5057 51.208 64.5057 50.9644V49.3858H65.0563V50.8815C65.0563 51.1219 65.1164 51.307 65.2365 51.4369C65.3567 51.5636 65.5207 51.627 65.7286 51.627C65.9365 51.627 66.1005 51.5636 66.2207 51.4369C66.3441 51.307 66.4058 51.1219 66.4058 50.8815V49.3858H66.9612ZM69.6076 49.8389V51.3249C69.6076 51.4256 69.6304 51.4987 69.6758 51.5441C69.7246 51.5864 69.8058 51.6075 69.9195 51.6075H70.2605V52.0703H69.822C69.5719 52.0703 69.3803 52.0118 69.2471 51.8949C69.1139 51.778 69.0474 51.588 69.0474 51.3249V49.8389H68.7307V49.3858H69.0474V48.7183H69.6076V49.3858H70.2605V49.8389H69.6076ZM72.1609 49.342C72.3656 49.342 72.5474 49.3858 72.7066 49.4735C72.869 49.5612 72.9957 49.6911 73.0866 49.8633C73.1808 50.0354 73.2279 50.2433 73.2279 50.4869V52.0703H72.6774V50.5697C72.6774 50.3294 72.6173 50.1459 72.4971 50.0192C72.3769 49.8893 72.2129 49.8243 72.005 49.8243C71.7972 49.8243 71.6315 49.8893 71.5081 50.0192C71.3879 50.1459 71.3278 50.3294 71.3278 50.5697V52.0703H70.7724V48.465H71.3278V49.6976C71.422 49.5839 71.5406 49.4963 71.6835 49.4345C71.8296 49.3728 71.9888 49.342 72.1609 49.342ZM74.2189 49.0302C74.1183 49.0302 74.0338 48.9961 73.9656 48.9278C73.8974 48.8596 73.8633 48.7752 73.8633 48.6745C73.8633 48.5738 73.8974 48.4894 73.9656 48.4212C74.0338 48.3529 74.1183 48.3188 74.2189 48.3188C74.3164 48.3188 74.3992 48.3529 74.4674 48.4212C74.5356 48.4894 74.5697 48.5738 74.5697 48.6745C74.5697 48.7752 74.5356 48.8596 74.4674 48.9278C74.3992 48.9961 74.3164 49.0302 74.2189 49.0302ZM74.4918 49.3858V52.0703H73.9364V49.3858H74.4918ZM76.5754 49.342C76.7865 49.342 76.9749 49.3858 77.1406 49.4735C77.3095 49.5612 77.441 49.6911 77.5352 49.8633C77.6294 50.0354 77.6765 50.2433 77.6765 50.4869V52.0703H77.126V50.5697C77.126 50.3294 77.0659 50.1459 76.9457 50.0192C76.8255 49.8893 76.6615 49.8243 76.4536 49.8243C76.2457 49.8243 76.0801 49.8893 75.9567 50.0192C75.8365 50.1459 75.7764 50.3294 75.7764 50.5697V52.0703H75.221V49.3858H75.7764V49.6928C75.8673 49.5823 75.9827 49.4963 76.1223 49.4345C76.2652 49.3728 76.4163 49.342 76.5754 49.342ZM79.4471 50.7305L80.6846 52.0703H79.9343L78.9404 50.9156V52.0703H78.385V48.465H78.9404V50.56L79.9148 49.3858H80.6846L79.4471 50.7305ZM81.6917 51.4028L81.1022 52.7475H80.7416L81.0875 51.4028H81.6917ZM87.0479 49.3858L86.2147 52.0703H85.6301L85.0893 50.0874L84.5485 52.0703H83.9639L83.1259 49.3858H83.691L84.2513 51.5441L84.8213 49.3858H85.4011L85.9468 51.5344L86.5022 49.3858H87.0479ZM89.9233 50.6623C89.9233 50.763 89.9168 50.8539 89.9038 50.9351H87.8527C87.8689 51.1495 87.9485 51.3216 88.0914 51.4516C88.2343 51.5815 88.4097 51.6464 88.6176 51.6464C88.9164 51.6464 89.1276 51.5214 89.251 51.2713H89.8502C89.769 51.5181 89.6213 51.7211 89.4069 51.8803C89.1958 52.0362 88.9327 52.1142 88.6176 52.1142C88.361 52.1142 88.1304 52.0573 87.9258 51.9436C87.7244 51.8267 87.5653 51.6643 87.4483 51.4564C87.3346 51.2453 87.2778 51.0017 87.2778 50.7256C87.2778 50.4495 87.333 50.2076 87.4435 49.9997C87.5571 49.7886 87.7147 49.6262 87.916 49.5125C88.1207 49.3988 88.3545 49.342 88.6176 49.342C88.871 49.342 89.0967 49.3972 89.2948 49.5076C89.493 49.6181 89.6472 49.774 89.7577 49.9753C89.8681 50.1735 89.9233 50.4025 89.9233 50.6623ZM89.3435 50.4869C89.3403 50.2823 89.2672 50.1182 89.1243 49.9948C88.9814 49.8714 88.8044 49.8097 88.5933 49.8097C88.4016 49.8097 88.2376 49.8714 88.1012 49.9948C87.9648 50.115 87.8836 50.279 87.8576 50.4869H89.3435ZM91.5504 50.7159C91.5504 50.4463 91.6056 50.2076 91.716 49.9997C91.8297 49.7918 91.9823 49.631 92.174 49.5174C92.3689 49.4004 92.5849 49.342 92.822 49.342C92.9974 49.342 93.1695 49.3809 93.3384 49.4589C93.5105 49.5336 93.647 49.6343 93.7476 49.761V48.465H94.3079V52.0703H93.7476V51.6659C93.6567 51.7959 93.53 51.903 93.3676 51.9875C93.2085 52.0719 93.025 52.1142 92.8171 52.1142C92.5832 52.1142 92.3689 52.0557 92.174 51.9388C91.9823 51.8186 91.8297 51.6529 91.716 51.4418C91.6056 51.2274 91.5504 50.9855 91.5504 50.7159ZM93.7476 50.7256C93.7476 50.5405 93.7087 50.3797 93.6307 50.2433C93.556 50.1069 93.4569 50.0029 93.3335 49.9315C93.2101 49.86 93.0769 49.8243 92.934 49.8243C92.7911 49.8243 92.6579 49.86 92.5345 49.9315C92.4111 49.9997 92.3104 50.102 92.2324 50.2384C92.1577 50.3716 92.1204 50.5307 92.1204 50.7159C92.1204 50.901 92.1577 51.0634 92.2324 51.2031C92.3104 51.3428 92.4111 51.4499 92.5345 51.5246C92.6612 51.5961 92.7944 51.6318 92.934 51.6318C93.0769 51.6318 93.2101 51.5961 93.3335 51.5246C93.4569 51.4532 93.556 51.3493 93.6307 51.2128C93.7087 51.0732 93.7476 50.9108 93.7476 50.7256ZM97.4978 50.6623C97.4978 50.763 97.4913 50.8539 97.4783 50.9351H95.4272C95.4434 51.1495 95.523 51.3216 95.6659 51.4516C95.8088 51.5815 95.9842 51.6464 96.1921 51.6464C96.4909 51.6464 96.7021 51.5214 96.8255 51.2713H97.4247C97.3435 51.5181 97.1958 51.7211 96.9814 51.8803C96.7703 52.0362 96.5072 52.1142 96.1921 52.1142C95.9355 52.1142 95.7049 52.0573 95.5003 51.9436C95.2989 51.8267 95.1398 51.6643 95.0228 51.4564C94.9091 51.2453 94.8523 51.0017 94.8523 50.7256C94.8523 50.4495 94.9075 50.2076 95.018 49.9997C95.1316 49.7886 95.2892 49.6262 95.4905 49.5125C95.6952 49.3988 95.929 49.342 96.1921 49.342C96.4455 49.342 96.6712 49.3972 96.8693 49.5076C97.0675 49.6181 97.2217 49.774 97.3322 49.9753C97.4426 50.1735 97.4978 50.4025 97.4978 50.6623ZM96.918 50.4869C96.9148 50.2823 96.8417 50.1182 96.6988 49.9948C96.5559 49.8714 96.3789 49.8097 96.1678 49.8097C95.9761 49.8097 95.8121 49.8714 95.6757 49.9948C95.5393 50.115 95.4581 50.279 95.4321 50.4869H96.918ZM98.5998 48.465V52.0703H98.0444V48.465H98.5998ZM99.6116 49.0302C99.5109 49.0302 99.4265 48.9961 99.3583 48.9278C99.29 48.8596 99.2559 48.7752 99.2559 48.6745C99.2559 48.5738 99.29 48.4894 99.3583 48.4212C99.4265 48.3529 99.5109 48.3188 99.6116 48.3188C99.709 48.3188 99.7919 48.3529 99.8601 48.4212C99.9283 48.4894 99.9624 48.5738 99.9624 48.6745C99.9624 48.7752 99.9283 48.8596 99.8601 48.9278C99.7919 48.9961 99.709 49.0302 99.6116 49.0302ZM99.8844 49.3858V52.0703H99.329V49.3858H99.8844ZM101.651 51.5734L102.411 49.3858H103.001L101.978 52.0703H101.315L100.297 49.3858H100.891L101.651 51.5734ZM105.881 50.6623C105.881 50.763 105.875 50.8539 105.862 50.9351H103.811C103.827 51.1495 103.906 51.3216 104.049 51.4516C104.192 51.5815 104.368 51.6464 104.575 51.6464C104.874 51.6464 105.085 51.5214 105.209 51.2713H105.808C105.727 51.5181 105.579 51.7211 105.365 51.8803C105.154 52.0362 104.891 52.1142 104.575 52.1142C104.319 52.1142 104.088 52.0573 103.884 51.9436C103.682 51.8267 103.523 51.6643 103.406 51.4564C103.292 51.2453 103.236 51.0017 103.236 50.7256C103.236 50.4495 103.291 50.2076 103.401 49.9997C103.515 49.7886 103.672 49.6262 103.874 49.5125C104.079 49.3988 104.312 49.342 104.575 49.342C104.829 49.342 105.055 49.3972 105.253 49.5076C105.451 49.6181 105.605 49.774 105.716 49.9753C105.826 50.1735 105.881 50.4025 105.881 50.6623ZM105.301 50.4869C105.298 50.2823 105.225 50.1182 105.082 49.9948C104.939 49.8714 104.762 49.8097 104.551 49.8097C104.359 49.8097 104.195 49.8714 104.059 49.9948C103.923 50.115 103.841 50.279 103.815 50.4869H105.301ZM106.983 49.7756C107.064 49.6392 107.172 49.5336 107.305 49.4589C107.441 49.3809 107.602 49.342 107.787 49.342V49.9169H107.646C107.428 49.9169 107.262 49.9721 107.149 50.0825C107.038 50.193 106.983 50.3846 106.983 50.6574V52.0703H106.428V49.3858H106.983V49.7756ZM108.522 52.1044C108.421 52.1044 108.337 52.0703 108.268 52.0021C108.2 51.9339 108.166 51.8494 108.166 51.7488C108.166 51.6481 108.2 51.5636 108.268 51.4954C108.337 51.4272 108.421 51.3931 108.522 51.3931C108.619 51.3931 108.702 51.4272 108.77 51.4954C108.838 51.5636 108.872 51.6481 108.872 51.7488C108.872 51.8494 108.838 51.9339 108.77 52.0021C108.702 52.0703 108.619 52.1044 108.522 52.1044Z" fill="white"/>
</g>
<defs>
<filter id="filter0_d_30_53742" x="0.945618" y="0.807275" width="151.753" height="94.9252" filterUnits="userSpaceOnUse" color-interpolation-filters="sRGB">
<feFlood flood-opacity="0" result="BackgroundImageFix"/>
<feColorMatrix in="SourceAlpha" type="matrix" values="0 0 0 0 0 0 0 0 0 0 0 0 0 0 0 0 0 0 127 0" result="hardAlpha"/>
<feOffset dy="7.06674"/>
<feGaussianBlur stdDeviation="17.6668"/>
<feComposite in2="hardAlpha" operator="out"/>
<feColorMatrix type="matrix" values="0 0 0 0 0 0 0 0 0 0 0 0 0 0 0 0 0 0 0.08 0"/>
<feBlend mode="normal" in2="BackgroundImageFix" result="effect1_dropShadow_30_53742"/>
<feBlend mode="normal" in="SourceGraphic" in2="effect1_dropShadow_30_53742" result="shape"/>
</filter>
</defs>
</svg>
