<svg width="46" height="47" viewBox="0 0 46 47" fill="none" xmlns="http://www.w3.org/2000/svg">
<path d="M0.316765 25.1118C0.473797 24.9246 0.68206 24.779 0.925138 24.6979L11.5 21.1738L23 25.0063V42.421L11.9277 46.1109C11.7889 46.1572 11.6444 46.1802 11.5 46.1802C11.3556 46.1802 11.2111 46.1572 11.0723 46.1109L0.925228 42.7293C0.372688 42.5452 -1.90735e-06 42.0282 -1.90735e-06 41.4458V25.9815C-1.90735e-06 25.6554 0.116982 25.3499 0.316765 25.1118Z" fill="#8BB9FF"/>
<path d="M11.5 28.8391V46.1808C11.3555 46.1808 11.2111 46.1577 11.0723 46.1114L0.92523 42.7299C0.372688 42.5458 -9.53674e-07 42.0287 -9.53674e-07 41.4463V25.982C-9.53674e-07 25.6559 0.116982 25.3504 0.316767 25.1123L11.5 28.8391Z" fill="#005EDF"/>
<path d="M23 25.0068V42.4216L11.9277 46.1115C11.7889 46.1577 11.6444 46.1808 11.5 46.1808V28.8392L23 25.0068Z" fill="#4793FF"/>
<path d="M11.8167 3.86486C11.9737 3.67761 12.182 3.53203 12.4251 3.45095L22.5722 0.0694059C22.8498 -0.0231353 23.15 -0.0231353 23.4277 0.0694059L33.5748 3.45095C33.8179 3.53194 34.0262 3.67761 34.1832 3.86486C34.383 4.10297 34.5 4.40847 34.5 4.73453V21.174L23 25.0064L11.5 21.174V4.73453C11.4999 4.40847 11.6169 4.10297 11.8167 3.86486Z" fill="#FFDD54"/>
<path d="M11.5 4.73491C11.5 4.40885 11.617 4.10335 11.8168 3.86523L23 7.59205V25.0068L11.5 21.1744V4.73491Z" fill="#FF8E00"/>
<path d="M23 7.59205L34.1832 3.86523C34.383 4.10335 34.5 4.40885 34.5 4.73491V21.1744L23 25.0068V7.59205Z" fill="#FFB454"/>
<path d="M11.8168 3.86481C11.9738 3.67756 12.1821 3.53199 12.4252 3.4509L22.5723 0.0693608C22.7111 0.0230902 22.8555 0 23 0V7.59162L11.8168 3.86481Z" fill="#FFB454"/>
<path d="M34.5 21.1738L45.0749 24.698C45.318 24.779 45.5262 24.9246 45.6832 25.1119C45.883 25.3499 46 25.6554 46 25.9815V41.4458C46 42.0282 45.6273 42.5452 45.0748 42.7293L34.9277 46.1109C34.7889 46.1572 34.6444 46.1802 34.5 46.1802C34.3555 46.1802 34.2111 46.1572 34.0723 46.1109L23 42.421V25.0063L34.5 21.1738Z" fill="#FF6B6B"/>
<path d="M45.6832 25.1113C45.883 25.3494 46 25.6549 46 25.981V41.4453C46 42.0277 45.6273 42.5447 45.0748 42.7289L34.9277 46.1104C34.7889 46.1567 34.6444 46.1798 34.5 46.1798V28.8381L45.6832 25.1113Z" fill="#F90024"/>
<path d="M34.5 28.8382V46.1798C34.3555 46.1798 34.2111 46.1567 34.0723 46.1105L23 42.4206V25.0059L34.5 28.8382Z" fill="#A50017"/>
<path d="M23.0727 33.8689C29.1156 33.8689 34.0145 28.9701 34.0145 22.9271C34.0145 16.8842 29.1156 11.9854 23.0727 11.9854C17.0297 11.9854 12.1309 16.8842 12.1309 22.9271C12.1309 28.9701 17.0297 33.8689 23.0727 33.8689Z" fill="#006DF0"/>
<path d="M23.0726 11.9854C20.9085 11.9854 18.793 12.6271 16.9937 13.8294C15.1943 15.0317 13.7919 16.7406 12.9638 18.7399C12.1356 20.7393 11.9189 22.9393 12.3411 25.0618C12.7633 27.1843 13.8054 29.1339 15.3356 30.6641L30.8096 15.1902C29.7947 14.1726 28.5887 13.3656 27.2609 12.8157C25.9331 12.2657 24.5098 11.9835 23.0726 11.9854Z" fill="#2488FF"/>
<path d="M27.9773 21.4186H24.5816V18.0229C24.5816 17.6226 24.4226 17.2387 24.1395 16.9557C23.8565 16.6727 23.4726 16.5137 23.0724 16.5137C22.6721 16.5137 22.2882 16.6727 22.0052 16.9557C21.7222 17.2387 21.5631 17.6226 21.5631 18.0229V21.4186H18.1674C17.7671 21.4186 17.3833 21.5776 17.1002 21.8607C16.8172 22.1437 16.6582 22.5276 16.6582 22.9278C16.6582 23.3281 16.8172 23.712 17.1002 23.995C17.3833 24.278 17.7671 24.437 18.1674 24.437H21.5631V27.8328C21.5631 28.233 21.7222 28.6169 22.0052 28.8999C22.2882 29.183 22.6721 29.342 23.0724 29.342C23.4726 29.342 23.8565 29.183 24.1395 28.8999C24.4226 28.6169 24.5816 28.233 24.5816 27.8328V24.437H27.9773C28.3776 24.437 28.7614 24.278 29.0445 23.995C29.3275 23.712 29.4865 23.3281 29.4865 22.9278C29.4865 22.5276 29.3275 22.1437 29.0445 21.8607C28.7614 21.5776 28.3776 21.4186 27.9773 21.4186Z" fill="#FFCD00"/>
<path d="M23.073 34.2466C20.8343 34.2466 18.6459 33.5827 16.7845 32.339C14.923 31.0952 13.4722 29.3274 12.6155 27.2591C11.7588 25.1908 11.5347 22.9149 11.9714 20.7193C12.4082 18.5236 13.4862 16.5067 15.0692 14.9237C16.6522 13.3407 18.6691 12.2626 20.8648 11.8259C23.0605 11.3891 25.3363 11.6133 27.4046 12.47C29.4729 13.3267 31.2407 14.7775 32.4845 16.6389C33.7283 18.5004 34.3921 20.6888 34.3921 22.9275C34.3887 25.9285 33.1951 28.8056 31.0731 30.9276C28.9511 33.0496 26.074 34.2432 23.073 34.2466ZM23.073 12.363C20.9836 12.363 18.941 12.9826 17.2037 14.1434C15.4664 15.3043 14.1123 16.9542 13.3127 18.8846C12.5131 20.8151 12.3039 22.9392 12.7115 24.9885C13.1191 27.0378 14.1253 28.9203 15.6028 30.3977C17.0803 31.8752 18.9627 32.8814 21.012 33.289C23.0613 33.6966 25.1855 33.4874 27.1159 32.6878C29.0463 31.8882 30.6962 30.5341 31.8571 28.7968C33.0179 27.0595 33.6375 25.017 33.6375 22.9275C33.6343 20.1266 32.5202 17.4413 30.5397 15.4608C28.5592 13.4803 25.8739 12.3662 23.073 12.363Z" fill="#231F20"/>
<path d="M22.3181 13.9016C22.218 13.9055 22.1205 13.8695 22.047 13.8015C21.9735 13.7335 21.93 13.6391 21.9261 13.539C21.9222 13.4389 21.9582 13.3414 22.0262 13.2679C22.0942 13.1944 22.1886 13.1509 22.2887 13.147C22.5482 13.1278 22.8124 13.1172 23.0727 13.1172C23.1728 13.1172 23.2687 13.1569 23.3395 13.2277C23.4102 13.2985 23.45 13.3944 23.45 13.4945C23.45 13.5946 23.4102 13.6905 23.3395 13.7613C23.2687 13.832 23.1728 13.8718 23.0727 13.8718C22.832 13.8718 22.5882 13.8812 22.3479 13.9005L22.3181 13.9016Z" fill="#231F20"/>
<path d="M13.641 23.3052C13.5409 23.3052 13.445 23.2654 13.3742 23.1947C13.3034 23.1239 13.2637 23.0279 13.2637 22.9279C13.2603 20.7347 13.9933 18.604 15.3451 16.877C16.697 15.1501 18.5894 13.9269 20.7192 13.4036C20.8164 13.3796 20.9192 13.3952 21.0049 13.4469C21.0906 13.4987 21.1523 13.5824 21.1763 13.6796C21.2003 13.7768 21.1847 13.8796 21.133 13.9653C21.0812 14.051 20.9975 14.1127 20.9003 14.1367C18.9345 14.6199 17.1878 15.7489 15.94 17.3429C14.6922 18.9369 14.0155 20.9036 14.0183 22.9279C14.0183 23.0279 13.9785 23.1239 13.9078 23.1947C13.837 23.2654 13.7411 23.3052 13.641 23.3052Z" fill="#231F20"/>
<path d="M23.0727 29.7187C22.5726 29.7181 22.0931 29.5191 21.7394 29.1655C21.3857 28.8118 21.1868 28.3323 21.1862 27.8321V24.8137H18.1678C17.6674 24.8137 17.1876 24.615 16.8338 24.2612C16.48 23.9074 16.2812 23.4275 16.2812 22.9272C16.2812 22.4269 16.48 21.947 16.8338 21.5932C17.1876 21.2394 17.6674 21.0407 18.1678 21.0407H21.1862V18.0223C21.1862 17.5219 21.385 17.0421 21.7387 16.6883C22.0925 16.3345 22.5724 16.1357 23.0727 16.1357C23.573 16.1357 24.0529 16.3345 24.4067 16.6883C24.7605 17.0421 24.9592 17.5219 24.9592 18.0223V21.0407H27.9777C28.478 21.0407 28.9578 21.2394 29.3116 21.5932C29.6654 21.947 29.8642 22.4269 29.8642 22.9272C29.8642 23.4275 29.6654 23.9074 29.3116 24.2612C28.9578 24.615 28.478 24.8137 27.9777 24.8137H24.9592V27.8321C24.9586 28.3323 24.7597 28.8118 24.406 29.1655C24.0524 29.5191 23.5729 29.7181 23.0727 29.7187ZM18.1678 21.7953C17.8676 21.7953 17.5797 21.9145 17.3674 22.1268C17.1551 22.3391 17.0359 22.627 17.0359 22.9272C17.0359 23.2274 17.1551 23.5153 17.3674 23.7276C17.5797 23.9399 17.8676 24.0591 18.1678 24.0591H21.5635C21.6636 24.0591 21.7595 24.0989 21.8303 24.1696C21.901 24.2404 21.9408 24.3363 21.9408 24.4364V27.8321C21.9408 28.1323 22.0601 28.4203 22.2723 28.6325C22.4846 28.8448 22.7725 28.9641 23.0727 28.9641C23.3729 28.9641 23.6608 28.8448 23.8731 28.6325C24.0854 28.4203 24.2046 28.1323 24.2046 27.8321V24.4364C24.2046 24.3363 24.2444 24.2404 24.3151 24.1696C24.3859 24.0989 24.4819 24.0591 24.5819 24.0591H27.9777C28.2779 24.0591 28.5658 23.9399 28.778 23.7276C28.9903 23.5153 29.1096 23.2274 29.1096 22.9272C29.1096 22.627 28.9903 22.3391 28.778 22.1268C28.5658 21.9145 28.2779 21.7953 27.9777 21.7953H24.5819C24.4819 21.7953 24.3859 21.7555 24.3151 21.6848C24.2444 21.614 24.2046 21.5181 24.2046 21.418V18.0223C24.2046 17.7221 24.0854 17.4342 23.8731 17.2219C23.6608 17.0096 23.3729 16.8903 23.0727 16.8903C22.7725 16.8903 22.4846 17.0096 22.2723 17.2219C22.0601 17.4342 21.9408 17.7221 21.9408 18.0223V21.418C21.9408 21.5181 21.901 21.614 21.8303 21.6848C21.7595 21.7555 21.6636 21.7953 21.5635 21.7953H18.1678Z" fill="#231F20"/>
</svg>
