<svg width="14" height="18" viewBox="0 0 14 18" fill="none" xmlns="http://www.w3.org/2000/svg">
<path d="M13.8139 5.36724L9.35932 0.912699C9.30018 0.853623 9.22997 0.806777 9.15272 0.77484C9.07547 0.742902 8.99268 0.726497 8.90909 0.726563H1.27273C0.935179 0.726563 0.611456 0.860653 0.372773 1.09934C0.13409 1.33802 0 1.66174 0 1.99929V15.9993C0 16.3368 0.13409 16.6606 0.372773 16.8992C0.611456 17.1379 0.935179 17.272 1.27273 17.272H12.7273C13.0648 17.272 13.3885 17.1379 13.6272 16.8992C13.8659 16.6606 14 16.3368 14 15.9993V5.81747C14.0001 5.73388 13.9837 5.65109 13.9517 5.57384C13.9198 5.49659 13.8729 5.42639 13.8139 5.36724ZM9.35932 11.995L7.45023 13.9041C7.39113 13.9632 7.32094 14.0102 7.24369 14.0422C7.16644 14.0742 7.08363 14.0907 7 14.0907C6.91637 14.0907 6.83356 14.0742 6.75631 14.0422C6.67906 14.0102 6.60887 13.9632 6.54977 13.9041L4.64068 11.995C4.52127 11.8756 4.45419 11.7136 4.45419 11.5447C4.45419 11.3759 4.52127 11.2139 4.64068 11.0945C4.76009 10.9751 4.92204 10.908 5.09091 10.908C5.25978 10.908 5.42173 10.9751 5.54114 11.0945L6.36364 11.9178V8.36293C6.36364 8.19415 6.43068 8.03229 6.55002 7.91295C6.66936 7.79361 6.83123 7.72656 7 7.72656C7.16877 7.72656 7.33064 7.79361 7.44998 7.91295C7.56932 8.03229 7.63636 8.19415 7.63636 8.36293V11.9178L8.45886 11.0945C8.57827 10.9751 8.74022 10.908 8.90909 10.908C9.07796 10.908 9.23991 10.9751 9.35932 11.0945C9.47873 11.2139 9.54581 11.3759 9.54581 11.5447C9.54581 11.7136 9.47873 11.8756 9.35932 11.995ZM8.90909 5.81747V2.31747L12.4091 5.81747H8.90909Z" fill="#FEFEFE"/>
</svg>
