<svg width="44" height="55" viewBox="0 0 44 55" fill="none" xmlns="http://www.w3.org/2000/svg">
<path d="M9.28604 10.9374L9.28125 52.0595C9.28107 53.6747 10.6025 54.9965 12.2177 54.9967L40.776 55C42.3918 55.0002 43.714 53.6784 43.7141 52.0626L43.718 18.8217C43.7181 17.9198 43.3599 17.0548 42.7223 16.417L35.3057 8.99863C34.668 8.36086 33.8032 8.00249 32.9013 8.0024L12.2241 8C10.6083 7.99982 9.28623 9.32162 9.28604 10.9374Z" fill="url(#paint0_linear_7041_210825)"/>
<path d="M34.8753 26.9131H18.1242C17.0967 26.9131 16.2637 27.747 16.2637 28.7745V46.4278C16.2637 47.4552 17.0967 48.2883 18.1242 48.2883H34.8753C35.9028 48.2883 36.7358 47.4552 36.7358 46.4278V28.7745C36.7358 27.747 35.9028 26.9131 34.8753 26.9131ZM33.2997 33.2252H28.5535C28.1826 33.2252 27.8819 32.9245 27.8819 32.5536V30.3491C27.8819 29.9782 28.1826 29.6775 28.5535 29.6775H33.2997C33.6706 29.6775 33.9713 29.9782 33.9713 30.3491V32.5536C33.9713 32.9245 33.6706 33.2252 33.2997 33.2252ZM28.5535 35.9897H33.2997C33.6706 35.9897 33.9713 36.2904 33.9713 36.6613V38.5401C33.9713 38.9111 33.6706 39.2117 33.2997 39.2117H28.5535C28.1826 39.2117 27.8819 38.9111 27.8819 38.5401V36.6613C27.882 36.2904 28.1827 35.9897 28.5535 35.9897ZM24.4459 39.2116H19.6997C19.3288 39.2116 19.0281 38.911 19.0281 38.5401V36.6612C19.0281 36.2903 19.3288 35.9896 19.6997 35.9896H24.4459C24.8168 35.9896 25.1175 36.2903 25.1175 36.6612V38.5401C25.1175 38.911 24.8168 39.2116 24.4459 39.2116ZM25.1175 30.3492V32.5537C25.1175 32.9246 24.8168 33.2253 24.4459 33.2253H19.6997C19.3288 33.2253 19.0281 32.9246 19.0281 32.5537V30.3492C19.0281 29.9783 19.3288 29.6776 19.6997 29.6776H24.4459C24.8168 29.6776 25.1175 29.9783 25.1175 30.3492ZM19.6997 41.9762H24.4459C24.8168 41.9762 25.1175 42.2768 25.1175 42.6477V44.8523C25.1175 45.2232 24.8168 45.5239 24.4459 45.5239H19.6997C19.3288 45.5239 19.0281 45.2232 19.0281 44.8523V42.6477C19.0282 42.2768 19.3289 41.9762 19.6997 41.9762ZM27.882 44.8522V42.6477C27.882 42.2768 28.1827 41.9761 28.5536 41.9761H33.2998C33.6707 41.9761 33.9714 42.2768 33.9714 42.6477V44.8522C33.9714 45.2231 33.6707 45.5238 33.2998 45.5238H28.5535C28.1827 45.5238 27.882 45.2231 27.882 44.8522Z" fill="#EBEFF0"/>
<path d="M35.3035 8.99809C34.8667 8.5613 34.3232 8.25573 33.7344 8.10645V17.6829L43.717 27.6655V18.82C43.717 17.9182 43.3587 17.0532 42.7211 16.4155L35.3035 8.99809Z" fill="url(#paint1_linear_7041_210825)"/>
<path d="M43.6161 17.9952C43.627 18.0425 43.637 18.0883 43.6462 18.1327H34.6479C34.0107 18.1327 33.4941 17.6162 33.4941 16.979V8.05566C33.5645 8.0682 33.6384 8.08285 33.7146 8.09971C34.3853 8.24807 34.9969 8.59299 35.4827 9.07872L42.6387 16.2347C43.1226 16.7185 43.4623 17.3285 43.6161 17.9952Z" fill="url(#paint2_linear_7041_210825)"/>
<path d="M43.7161 49.2109V52.0601C43.7161 53.6759 42.3941 54.9979 40.7783 54.9979H12.22C10.6047 54.9979 9.2832 53.6763 9.2832 52.0611V49.2109H43.7161Z" fill="url(#paint3_linear_7041_210825)"/>
<g clip-path="url(#clip0_7041_210825)">
<path d="M13.0009 25.9857C20.1767 25.9857 25.9938 20.1686 25.9938 12.9929C25.9938 5.81711 20.1767 0 13.0009 0C5.82516 0 0.00805664 5.81711 0.00805664 12.9929C0.00805664 20.1686 5.82516 25.9857 13.0009 25.9857Z" fill="url(#paint4_linear_7041_210825)"/>
<path d="M7.6765 1.13672C1.13086 4.0772 -1.79165 11.7673 1.14883 18.3128C4.08931 24.8584 11.7793 27.781 18.325 24.8404C24.8706 21.8999 27.7931 14.2099 24.8525 7.66431C23.5742 4.81874 21.3148 2.52809 18.487 1.21084C17.3109 1.53033 16.1594 1.9347 15.0417 2.42077C12.0685 3.70327 9.68598 4.68476 8.32878 4.68476C7.79844 4.74477 7.28668 4.46858 7.04576 3.99238C6.70904 3.27966 6.79489 2.43897 7.26878 1.80905L7.6765 1.13672Z" fill="url(#paint5_linear_7041_210825)"/>
<path d="M25.9319 11.7253C25.7497 9.83721 25.1538 8.01257 24.1865 6.38088C22.9822 4.34882 21.2492 2.68148 19.1724 1.5562C17.8263 1.88357 16.511 2.32723 15.2415 2.882C9.96152 5.15898 7.5611 6.00948 6.60612 4.22999C6.18592 3.3616 6.27638 2.33258 6.84161 1.55078C0.523306 4.95238 -1.84109 12.8319 1.5605 19.1501C4.9621 25.4684 12.8416 27.8329 19.1599 24.4313C23.3682 22.1656 25.9928 17.7725 25.9936 12.9931C25.9936 12.5654 25.9731 12.1428 25.9319 11.7253Z" fill="url(#paint6_linear_7041_210825)"/>
<path d="M21.2102 2.92383C19.3349 3.79704 17.0861 5.42168 13.343 8.59848C12.1909 9.60329 10.8892 10.4223 9.48465 11.026C8.43624 11.4773 7.30948 11.7188 6.16824 11.7368C4.90595 11.7823 3.67217 11.3546 2.70887 10.5377C1.99748 9.88372 1.68786 8.85945 1.73005 7.51256C1.74416 7.06593 1.76852 6.70054 1.79444 6.41469C-1.83872 12.6026 0.232404 20.5643 6.42037 24.1974C12.6083 27.8306 20.5701 25.7595 24.2032 19.5715C27.4488 14.0437 26.1779 6.97495 21.2102 2.92383Z" fill="url(#paint7_linear_7041_210825)"/>
<path d="M25.9321 11.7244C25.7498 9.83639 25.1539 8.01175 24.1867 6.38006C23.5 5.22159 22.6383 4.1763 21.632 3.28125C19.6754 4.14741 17.3037 5.89444 13.6678 8.98026C8.81606 13.0974 4.42399 12.7958 2.36891 10.9059C1.43502 10.0473 1.16981 8.78642 1.22878 7.48878C-1.80794 13.9903 1.00086 21.7225 7.50245 24.7593C14.004 27.796 21.7362 24.9872 24.773 18.4856C25.5763 16.7657 25.993 14.8906 25.9937 12.9923C25.9938 12.5646 25.9732 12.142 25.9321 11.7244Z" fill="url(#paint8_linear_7041_210825)"/>
<path d="M13.0008 25.9858C20.1766 25.9864 25.9941 20.1698 25.9947 12.994C25.995 10.4172 25.2289 7.89852 23.7941 5.7581C23.54 5.70976 23.2819 5.68547 23.0232 5.68555H22.9345C21.81 5.70827 20.743 6.28428 19.4741 7.55326C17.9474 9.19973 16.5365 10.9498 15.2514 12.791C14.0554 14.4743 12.6016 15.9587 10.9437 17.1896C9.51784 18.2927 7.7821 18.9213 5.98048 18.987C5.02728 18.9824 4.08604 18.7746 3.2195 18.3774C2.32119 17.9886 1.55149 17.353 0.999922 16.5443C0.692313 16.0918 0.418867 15.617 0.181885 15.1238C1.22532 21.3911 6.64717 25.9853 13.0008 25.9858Z" fill="url(#paint9_linear_7041_210825)"/>
<path d="M25.9321 11.726C25.7498 9.83791 25.1539 8.01327 24.1867 6.38158C23.7868 6.2424 23.3649 6.17705 22.9416 6.18886C20.9136 6.22948 19.0897 8.43607 15.6553 13.0902C12.3984 17.5073 7.79402 20.9866 3.01108 18.8358C2.02691 18.41 1.18452 17.7125 0.58252 16.8251C2.69248 23.6837 9.96295 27.5332 16.8215 25.4231C22.2773 23.7447 25.9986 18.702 25.9939 12.9938C25.9938 12.5661 25.9732 12.1435 25.9321 11.726Z" fill="url(#paint10_linear_7041_210825)"/>
<path d="M12.2322 17.4857C12.655 17.9084 13.3404 17.9084 13.7632 17.4857L18.0287 13.2203C18.4441 12.7901 18.4322 12.1047 18.0021 11.6893C17.5825 11.284 16.9173 11.284 16.4977 11.6893L14.0837 14.1005V4.52803C14.0837 3.93005 13.599 3.44531 13.001 3.44531C12.403 3.44531 11.9183 3.93005 11.9183 4.52803V14.107L9.50437 11.6931C9.07423 11.2776 8.38883 11.2896 7.97338 11.7196C7.56812 12.1392 7.56812 12.8044 7.97338 13.224L12.2322 17.4857Z" fill="white"/>
<path d="M17.2631 19.1973H8.73873C8.14074 19.1973 7.65601 19.682 7.65601 20.28C7.65601 20.878 8.14074 21.3627 8.73873 21.3627H17.2631C17.8611 21.3627 18.3458 20.878 18.3458 20.28C18.3458 19.682 17.8611 19.1973 17.2631 19.1973Z" fill="white"/>
</g>
<defs>
<linearGradient id="paint0_linear_7041_210825" x1="17.4862" y1="26.3227" x2="39.8414" y2="48.6778" gradientUnits="userSpaceOnUse">
<stop stop-color="#28A265"/>
<stop offset="1" stop-color="#28895E"/>
</linearGradient>
<linearGradient id="paint1_linear_7041_210825" x1="40.7936" y1="24.0112" x2="37.2458" y2="13.6443" gradientUnits="userSpaceOnUse">
<stop stop-color="#108372" stop-opacity="0"/>
<stop offset="1" stop-color="#108372"/>
</linearGradient>
<linearGradient id="paint2_linear_7041_210825" x1="34.6347" y1="13.4139" x2="38.7557" y2="17.5351" gradientUnits="userSpaceOnUse">
<stop stop-color="#91D1B2"/>
<stop offset="1" stop-color="#28A265"/>
</linearGradient>
<linearGradient id="paint3_linear_7041_210825" x1="26.4997" y1="50.7313" x2="26.4997" y2="55.3009" gradientUnits="userSpaceOnUse">
<stop stop-color="#108372" stop-opacity="0"/>
<stop offset="1" stop-color="#108372"/>
</linearGradient>
<linearGradient id="paint4_linear_7041_210825" x1="26.8178" y1="12.9929" x2="-0.11374" y2="12.9929" gradientUnits="userSpaceOnUse">
<stop stop-color="#FAAD37"/>
<stop offset="1" stop-color="#F78B1F"/>
</linearGradient>
<linearGradient id="paint5_linear_7041_210825" x1="13.196" y1="13.0853" x2="3.01016" y2="9.36394" gradientUnits="userSpaceOnUse">
<stop stop-color="#F4841A"/>
<stop offset="1" stop-color="#F26F11"/>
</linearGradient>
<linearGradient id="paint6_linear_7041_210825" x1="0.231516" y1="13.7685" x2="25.9173" y2="13.7685" gradientUnits="userSpaceOnUse">
<stop stop-color="#F4841A"/>
<stop offset="1" stop-color="#F26F11"/>
</linearGradient>
<linearGradient id="paint7_linear_7041_210825" x1="15.8882" y1="14.3422" x2="2.80066" y2="12.0084" gradientUnits="userSpaceOnUse">
<stop stop-color="#F16430"/>
<stop offset="1" stop-color="#E73D14"/>
</linearGradient>
<linearGradient id="paint8_linear_7041_210825" x1="-0.701088" y1="14.6322" x2="25.6533" y2="14.6322" gradientUnits="userSpaceOnUse">
<stop stop-color="#F16430"/>
<stop offset="1" stop-color="#E73D14"/>
</linearGradient>
<linearGradient id="paint9_linear_7041_210825" x1="16.4455" y1="16.034" x2="1.40252" y2="17.6738" gradientUnits="userSpaceOnUse">
<stop offset="0.003" stop-color="#CE3814"/>
<stop offset="0.999" stop-color="#D63914"/>
</linearGradient>
<linearGradient id="paint10_linear_7041_210825" x1="-0.111048" y1="16.0942" x2="25.6609" y2="16.0942" gradientUnits="userSpaceOnUse">
<stop offset="0.003" stop-color="#DD3814"/>
<stop offset="0.999" stop-color="#D63914"/>
</linearGradient>
<clipPath id="clip0_7041_210825">
<rect width="26" height="26" fill="white"/>
</clipPath>
</defs>
</svg>
