<svg width="15" height="15" viewBox="0 0 15 15" fill="none" xmlns="http://www.w3.org/2000/svg">
<path d="M13.9834 3.65866L10.8412 0.517096C10.7367 0.412603 10.6127 0.329713 10.4762 0.27316C10.3397 0.216607 10.1933 0.1875 10.0456 0.1875C9.89783 0.1875 9.75152 0.216607 9.61501 0.27316C9.47851 0.329713 9.35448 0.412603 9.25001 0.517096L0.579771 9.18733C0.474851 9.29142 0.391667 9.41532 0.335055 9.55184C0.278443 9.68836 0.249534 9.83477 0.250006 9.98256V13.1248C0.250006 13.4232 0.368532 13.7093 0.579511 13.9203C0.790489 14.1313 1.07664 14.2498 1.37501 14.2498H13.1875C13.3367 14.2498 13.4798 14.1906 13.5853 14.0851C13.6907 13.9796 13.75 13.8365 13.75 13.6873C13.75 13.5381 13.6907 13.3951 13.5853 13.2896C13.4798 13.1841 13.3367 13.1248 13.1875 13.1248H6.10844L13.9834 5.24983C14.0879 5.14536 14.1708 5.02133 14.2274 4.88482C14.2839 4.74831 14.313 4.602 14.313 4.45424C14.313 4.30649 14.2839 4.16017 14.2274 4.02367C14.1708 3.88716 14.0879 3.76313 13.9834 3.65866ZM3.57719 11.7186L9.92922 5.36655L11.1027 6.53936L4.75001 12.8921L3.57719 11.7186ZM9.13188 4.57061L2.78126 10.9233L1.60774 9.74983L7.96047 3.3978L9.13188 4.57061ZM1.37501 11.1076L3.39227 13.1248H1.37501V11.1076Z" fill="#636363"/>
</svg>
