<svg width="35" height="48" viewBox="0 0 35 48" fill="none" xmlns="http://www.w3.org/2000/svg">
<path d="M0.00479202 3.43738L1.9276e-08 44.5595C-0.000184281 46.1747 1.32125 47.4965 2.93646 47.4967L31.4948 47.5C33.1105 47.5002 34.4327 46.1784 34.4329 44.5626L34.4368 11.3217C34.4369 10.4198 34.0787 9.55479 33.4411 8.91701L26.0245 1.49863C25.3868 0.860861 24.5219 0.502488 23.6201 0.502396L2.94282 0.5C1.32706 0.499816 0.00497632 1.82162 0.00479202 3.43738Z" fill="url(#paint0_linear_7041_217770)"/>
<path d="M25.596 19.4141H8.84489C7.81741 19.4141 6.98438 20.248 6.98438 21.2755V38.9287C6.98438 39.9562 7.81741 40.7892 8.84489 40.7892H25.596C26.6235 40.7892 27.4565 39.9562 27.4565 38.9287V21.2755C27.4565 20.248 26.6235 19.4141 25.596 19.4141ZM24.0204 25.7262H19.2742C18.9033 25.7262 18.6026 25.4255 18.6026 25.0546V22.8501C18.6026 22.4792 18.9033 22.1785 19.2742 22.1785H24.0204C24.3913 22.1785 24.692 22.4792 24.692 22.8501V25.0546C24.692 25.4255 24.3913 25.7262 24.0204 25.7262ZM19.2742 28.4907H24.0204C24.3913 28.4907 24.692 28.7914 24.692 29.1623V31.0411C24.692 31.412 24.3913 31.7127 24.0204 31.7127H19.2742C18.9033 31.7127 18.6026 31.412 18.6026 31.0411V29.1623C18.6027 28.7914 18.9034 28.4907 19.2742 28.4907ZM15.1666 31.7126H10.4204C10.0495 31.7126 9.74879 31.4119 9.74879 31.041V29.1622C9.74879 28.7913 10.0495 28.4906 10.4204 28.4906H15.1666C15.5375 28.4906 15.8382 28.7913 15.8382 29.1622V31.041C15.8382 31.4119 15.5375 31.7126 15.1666 31.7126ZM15.8382 22.8502V25.0547C15.8382 25.4256 15.5375 25.7263 15.1666 25.7263H10.4204C10.0495 25.7263 9.74879 25.4256 9.74879 25.0547V22.8502C9.74879 22.4793 10.0495 22.1786 10.4204 22.1786H15.1666C15.5375 22.1786 15.8382 22.4793 15.8382 22.8502ZM10.4204 34.4771H15.1666C15.5375 34.4771 15.8382 34.7778 15.8382 35.1487V37.3532C15.8382 37.7241 15.5375 38.0248 15.1666 38.0248H10.4204C10.0495 38.0248 9.74879 37.7241 9.74879 37.3532V35.1487C9.74889 34.7778 10.0496 34.4771 10.4204 34.4771ZM18.6027 37.3531V35.1486C18.6027 34.7777 18.9034 34.477 19.2743 34.477H24.0205C24.3914 34.477 24.6921 34.7777 24.6921 35.1486V37.3531C24.6921 37.7241 24.3914 38.0247 24.0205 38.0247H19.2742C18.9034 38.0247 18.6027 37.7241 18.6027 37.3531Z" fill="#EBEFF0"/>
<path d="M26.0223 1.49712C25.5855 1.06032 25.042 0.754752 24.4531 0.605469V10.1819L34.4358 20.1646V11.3191C34.4358 10.4172 34.0775 9.55225 33.4398 8.91448L26.0223 1.49712Z" fill="url(#paint1_linear_7041_217770)"/>
<path d="M34.3329 10.4942C34.3438 10.5415 34.3538 10.5874 34.363 10.6317H25.3647C24.7275 10.6317 24.2109 10.1152 24.2109 9.47797V0.554688C24.2812 0.56722 24.3552 0.581872 24.4314 0.598735C25.1021 0.747097 25.7137 1.09202 26.1995 1.57774L33.3555 8.73368C33.8394 9.21756 34.1791 9.8275 34.3329 10.4942Z" fill="url(#paint2_linear_7041_217770)"/>
<path d="M34.4368 41.7109V44.5601C34.4368 46.1759 33.1148 47.4979 31.4991 47.4979H2.94074C1.32543 47.4979 0.00390625 46.1763 0.00390625 44.5611V41.7109H34.4368Z" fill="url(#paint3_linear_7041_217770)"/>
<defs>
<linearGradient id="paint0_linear_7041_217770" x1="8.20497" y1="18.8227" x2="30.5602" y2="41.1778" gradientUnits="userSpaceOnUse">
<stop stop-color="#28A265"/>
<stop offset="1" stop-color="#28895E"/>
</linearGradient>
<linearGradient id="paint1_linear_7041_217770" x1="31.5123" y1="16.5103" x2="27.9645" y2="6.14334" gradientUnits="userSpaceOnUse">
<stop stop-color="#108372" stop-opacity="0"/>
<stop offset="1" stop-color="#108372"/>
</linearGradient>
<linearGradient id="paint2_linear_7041_217770" x1="25.3515" y1="5.91295" x2="29.4725" y2="10.0341" gradientUnits="userSpaceOnUse">
<stop stop-color="#91D1B2"/>
<stop offset="1" stop-color="#28A265"/>
</linearGradient>
<linearGradient id="paint3_linear_7041_217770" x1="17.2204" y1="43.2313" x2="17.2204" y2="47.8009" gradientUnits="userSpaceOnUse">
<stop stop-color="#108372" stop-opacity="0"/>
<stop offset="1" stop-color="#108372"/>
</linearGradient>
</defs>
</svg>
