<svg width="32" height="39" viewBox="0 0 32 39" fill="none" xmlns="http://www.w3.org/2000/svg">
<path d="M31.8125 18.1242V35.3742C31.8125 36.1367 31.5096 36.8679 30.9704 37.4071C30.4313 37.9463 29.7 38.2492 28.9375 38.2492H3.0625C2.3 38.2492 1.56873 37.9463 1.02957 37.4071C0.490401 36.8679 0.1875 36.1367 0.1875 35.3742V18.1242C0.1875 17.3617 0.490401 16.6304 1.02957 16.0912C1.56873 15.5521 2.3 15.2492 3.0625 15.2492H7.375C7.75625 15.2492 8.12188 15.4006 8.39147 15.6702C8.66105 15.9398 8.8125 16.3054 8.8125 16.6867C8.8125 17.0679 8.66105 17.4336 8.39147 17.7031C8.12188 17.9727 7.75625 18.1242 7.375 18.1242H3.0625V35.3742H28.9375V18.1242H24.625C24.2438 18.1242 23.8781 17.9727 23.6085 17.7031C23.3389 17.4336 23.1875 17.0679 23.1875 16.6867C23.1875 16.3054 23.3389 15.9398 23.6085 15.6702C23.8781 15.4006 24.2438 15.2492 24.625 15.2492H28.9375C29.7 15.2492 30.4313 15.5521 30.9704 16.0912C31.5096 16.6304 31.8125 17.3617 31.8125 18.1242ZM9.82953 10.5162C11.5758 8.76925 14.5625 10.006 14.5625 12.4761V22.4367C14.5625 22.8179 14.714 23.1836 14.9835 23.4531C15.2531 23.7227 15.6188 23.8742 16 23.8742C16.3812 23.8742 16.7469 23.7227 17.0165 23.4531C17.2861 23.1836 17.4375 22.8179 17.4375 22.4367V12.4761C17.4375 10.006 20.4242 8.76925 22.1705 10.5162C22.4402 10.7859 22.806 10.9375 23.1875 10.9375C23.569 10.9375 23.9348 10.7859 24.2045 10.5162C24.4743 10.2465 24.6258 9.88064 24.6258 9.49918C24.6258 9.11772 24.4743 8.75188 24.2045 8.48215L17.017 1.29465C16.8835 1.16099 16.725 1.05496 16.5505 0.982623C16.376 0.910282 16.1889 0.873047 16 0.873047C15.8111 0.873047 15.624 0.910282 15.4495 0.982623C15.275 1.05496 15.1165 1.16099 14.983 1.29465L7.79547 8.48215C7.52573 8.75188 7.3742 9.11772 7.3742 9.49918C7.3742 9.88064 7.52574 10.2465 7.79547 10.5162C8.0652 10.7859 8.43104 10.9375 8.8125 10.9375C9.19396 10.9375 9.5598 10.7859 9.82953 10.5162Z" fill="url(#paint0_linear_7041_210858)"/>
<defs>
<linearGradient id="paint0_linear_7041_210858" x1="35" y1="12.999" x2="36.1224" y2="31.4395" gradientUnits="userSpaceOnUse">
<stop stop-color="#373A60"/>
<stop offset="1" stop-color="#7178C6"/>
</linearGradient>
</defs>
</svg>
