<svg width="207" height="135" viewBox="0 0 207 135" fill="none" xmlns="http://www.w3.org/2000/svg">
<path d="M124.072 33.6416H119.57L119.459 53.9992H111.091L111.201 33.6416H108.167L108.205 26.6926H111.239L111.243 25.9096C111.261 22.5493 112.238 20.0046 114.172 18.2755C116.106 16.5138 118.933 15.633 122.652 15.633C123.272 15.633 123.729 15.6493 124.022 15.6819L123.984 22.7777C122.386 22.6798 121.259 22.9082 120.603 23.4628C119.948 24.0174 119.616 25.0125 119.609 26.4479L119.607 26.6926H124.109L124.072 33.6416ZM132.266 23.8543C130.797 23.8543 129.593 23.4302 128.651 22.582C127.742 21.7011 127.292 20.6245 127.298 19.3521C127.305 18.0472 127.768 16.9706 128.686 16.1223C129.637 15.2415 130.847 14.801 132.315 14.801C133.75 14.801 134.922 15.2415 135.831 16.1223C136.773 16.9706 137.24 18.0472 137.233 19.3521C137.226 20.6245 136.747 21.7011 135.796 22.582C134.878 23.4302 133.701 23.8543 132.266 23.8543ZM136.41 26.6926L136.262 53.9992H127.894L128.042 26.6926H136.41ZM159.115 26.399C162.312 26.399 164.851 27.443 166.732 29.5309C168.646 31.5863 169.593 34.4246 169.573 38.0459L169.486 53.9992H161.167L161.247 39.1714C161.257 37.3445 160.792 35.9253 159.851 34.914C158.911 33.9026 157.641 33.3969 156.043 33.3969C154.444 33.3969 153.169 33.9026 152.217 34.914C151.266 35.9253 150.785 37.3445 150.775 39.1714L150.695 53.9992H142.326L142.474 26.6926H150.843L150.823 30.3139C151.678 29.1068 152.825 28.1607 154.264 27.4756C155.703 26.7579 157.32 26.399 159.115 26.399ZM173.712 40.297C173.727 37.4913 174.263 35.0281 175.318 32.9076C176.406 30.787 177.867 29.1558 179.7 28.0139C181.533 26.8721 183.575 26.3011 185.826 26.3011C187.621 26.3011 189.25 26.6763 190.714 27.4267C192.211 28.177 193.38 29.1884 194.221 30.4607L194.29 17.7862H202.658L202.462 53.9992H194.093L194.115 50.0843C193.325 51.3893 192.193 52.4332 190.721 53.2162C189.281 53.9992 187.599 54.3907 185.674 54.3907C183.423 54.3907 181.387 53.8198 179.566 52.6779C177.746 51.5034 176.303 49.8559 175.238 47.7353C174.205 45.5821 173.697 43.1027 173.712 40.297ZM194.167 40.3459C194.179 38.258 193.6 36.6104 192.433 35.4033C191.297 34.1962 189.898 33.5927 188.234 33.5927C186.57 33.5927 185.147 34.1962 183.966 35.4033C182.818 36.5778 182.238 38.209 182.227 40.297C182.216 42.3849 182.778 44.0488 183.913 45.2885C185.081 46.4956 186.497 47.0992 188.161 47.0992C189.824 47.0992 191.231 46.4956 192.379 45.2885C193.56 44.0814 194.156 42.4339 194.167 40.3459Z" fill="#F27129"/>
<path d="M25.7213 19.7021L25.681 26.4068H11.684L11.6404 33.6498H22.1137L22.0745 40.1588H11.6012L11.5176 54.0576H3.14879L3.35554 19.7021H25.7213ZM34.3034 23.9109C32.8352 23.9109 31.6305 23.4867 30.6895 22.6384C29.7812 21.7575 29.3309 20.6808 29.3386 19.4084C29.3464 18.1034 29.8097 17.0267 30.7283 16.1784C31.6798 15.2975 32.8897 14.857 34.3579 14.857C35.7935 14.857 36.9654 15.2975 37.8736 16.1784C38.8147 17.0267 39.2813 18.1034 39.2735 19.4084C39.2658 20.6808 38.7862 21.7575 37.8348 22.6384C36.9161 23.4867 35.739 23.9109 34.3034 23.9109ZM38.4462 26.7494L38.2819 54.0576H29.9131L30.0774 26.7494H38.4462ZM52.8525 31.3007C53.8403 29.7999 55.0709 28.6254 56.5442 27.7771C58.0177 26.8962 59.6517 26.4557 61.4462 26.4557L61.3929 35.3138H59.0927C57.0046 35.3138 55.4357 35.7705 54.3862 36.6841C53.3368 37.565 52.8053 39.1311 52.7918 41.3823L52.7155 54.0576H44.3467L44.511 26.7494H52.8798L52.8525 31.3007ZM76.3873 54.4491C74.0055 54.4491 71.8872 54.0413 70.0324 53.2256C68.1776 52.41 66.7161 51.3007 65.6478 49.8978C64.5798 48.4622 63.9858 46.8635 63.8659 45.1017H72.1368C72.229 46.0478 72.6648 46.8146 73.4444 47.4018C74.2239 47.9891 75.1846 48.2827 76.3265 48.2827C77.3706 48.2827 78.1711 48.087 78.7282 47.6955C79.318 47.2713 79.6149 46.733 79.6188 46.0805C79.6235 45.2974 79.2191 44.7265 78.4056 44.3676C77.5923 43.9761 76.2734 43.5519 74.4491 43.0952C72.4942 42.6384 70.8657 42.1653 69.5636 41.6759C68.2616 41.1539 67.1408 40.3545 66.2011 39.2779C65.2616 38.1686 64.7975 36.6841 64.8087 34.8244C64.8181 33.2583 65.2508 31.8391 66.1067 30.5666C66.9955 29.2616 68.2741 28.2338 69.9426 27.4834C71.6438 26.733 73.6526 26.3578 75.9691 26.3578C79.3949 26.3578 82.0815 27.2061 84.0289 28.9027C86.009 30.5993 87.1374 32.8505 87.4141 35.6563H79.6815C79.5567 34.7102 79.1371 33.9598 78.4226 33.4051C77.7408 32.8505 76.8289 32.5732 75.687 32.5732C74.7082 32.5732 73.9566 32.7689 73.4322 33.1604C72.908 33.5193 72.6439 34.025 72.64 34.6776C72.6353 35.4606 73.0396 36.0479 73.8529 36.4394C74.6989 36.8309 76.0016 37.2224 77.7611 37.6139C79.7808 38.136 81.4253 38.658 82.6946 39.18C83.9641 39.6694 85.0686 40.485 86.0079 41.627C86.98 42.7363 87.4767 44.2371 87.4979 46.1294C87.4883 47.7281 87.0229 49.1637 86.1017 50.4361C85.2133 51.6759 83.9186 52.6547 82.2177 53.3725C80.5494 54.0902 78.6059 54.4491 76.3873 54.4491ZM107.833 46.9614L107.791 54.0576H103.533C100.499 54.0576 98.1375 53.3235 96.4498 51.8553C94.7622 50.3545 93.9285 47.9239 93.9487 44.5633L94.0141 33.6988H90.6862L90.728 26.7494H94.0559L94.096 20.0936H102.465L102.425 26.7494H107.906L107.864 33.6988H102.383L102.317 44.6612C102.312 45.4769 102.504 46.0642 102.894 46.423C103.283 46.7819 103.934 46.9614 104.848 46.9614H107.833Z" fill="#060505"/>
<path d="M17.7796 66.819L14.9746 76.8594H12.6012L10.7168 69.7103L8.74612 76.8594L6.38706 76.8738L3.68278 66.819H5.84045L7.60974 74.6154L9.65234 66.819H11.8963L13.8238 74.5722L15.6075 66.819H17.7796ZM23.7263 68.7753C24.3305 68.7753 24.8675 68.9095 25.3374 69.1781C25.8073 69.437 26.1717 69.8254 26.4306 70.3432C26.6991 70.8515 26.8334 71.4652 26.8334 72.1844V76.8594H24.8195V72.4577C24.8195 71.8248 24.6613 71.3405 24.3449 71.0049C24.0284 70.6597 23.5969 70.487 23.0503 70.487C22.4941 70.487 22.0529 70.6597 21.7269 71.0049C21.4104 71.3405 21.2522 71.8248 21.2522 72.4577V76.8594H19.2384V66.2149H21.2522V69.8829C21.5111 69.5377 21.8563 69.2692 22.2879 69.0774C22.7194 68.876 23.1989 68.7753 23.7263 68.7753ZM28.3744 72.8461C28.3744 72.0406 28.5326 71.3261 28.8491 70.7028C29.1752 70.0795 29.6115 69.6 30.1581 69.2644C30.7143 68.9287 31.3328 68.7609 32.0137 68.7609C32.6083 68.7609 33.1261 68.8808 33.5672 69.1205C34.0179 69.3603 34.3775 69.6623 34.6461 70.0267V68.8904H36.6743V76.8594H34.6461V75.6942C34.3871 76.0682 34.0275 76.3799 33.5672 76.6292C33.1165 76.869 32.5939 76.9888 31.9993 76.9888C31.328 76.9888 30.7143 76.8162 30.1581 76.471C29.6115 76.1258 29.1752 75.6415 28.8491 75.0182C28.5326 74.3852 28.3744 73.6612 28.3744 72.8461ZM34.6461 72.8749C34.6461 72.3858 34.5502 71.9686 34.3584 71.6234C34.1666 71.2686 33.9077 71.0001 33.5816 70.8179C33.2556 70.6261 32.9055 70.5302 32.5315 70.5302C32.1575 70.5302 31.8123 70.6213 31.4959 70.8035C31.1794 70.9857 30.9205 71.2542 30.7191 71.609C30.5273 71.9543 30.4314 72.3666 30.4314 72.8461C30.4314 73.3256 30.5273 73.7475 30.7191 74.1119C30.9205 74.4668 31.1794 74.7401 31.4959 74.9319C31.8219 75.1236 32.1671 75.2195 32.5315 75.2195C32.9055 75.2195 33.2556 75.1284 33.5816 74.9462C33.9077 74.7544 34.1666 74.4859 34.3584 74.1407C34.5502 73.7859 34.6461 73.3639 34.6461 72.8749ZM41.1296 70.5446V74.3996C41.1296 74.6681 41.192 74.8647 41.3166 74.9894C41.4509 75.1045 41.6715 75.162 41.9783 75.162H42.9133V76.8594H41.6475C39.9501 76.8594 39.1014 76.0347 39.1014 74.3852V70.5446H38.1521V68.8904H39.1014V66.9197H41.1296V68.8904H42.9133V70.5446H41.1296ZM55.7008 68.8904L50.7669 80.6281H48.6236L50.3498 76.658L47.1564 68.8904H49.4148L51.4717 74.4572L53.5575 68.8904H55.7008ZM60.4688 76.9888C59.7016 76.9888 59.0112 76.821 58.3974 76.4854C57.7837 76.1402 57.2994 75.6559 56.9446 75.0325C56.5994 74.4092 56.4268 73.69 56.4268 72.8749C56.4268 72.0598 56.6042 71.3405 56.959 70.7172C57.3234 70.0939 57.8173 69.6144 58.4406 69.2788C59.0639 68.9335 59.7592 68.7609 60.5263 68.7609C61.2935 68.7609 61.9888 68.9335 62.6121 69.2788C63.2354 69.6144 63.7245 70.0939 64.0793 70.7172C64.4437 71.3405 64.6259 72.0598 64.6259 72.8749C64.6259 73.69 64.4389 74.4092 64.0649 75.0325C63.7005 75.6559 63.2018 76.1402 62.5689 76.4854C61.9456 76.821 61.2456 76.9888 60.4688 76.9888ZM60.4688 75.2339C60.8332 75.2339 61.1736 75.1476 61.4901 74.975C61.8161 74.7928 62.0751 74.5243 62.2669 74.1695C62.4587 73.8147 62.5545 73.3831 62.5545 72.8749C62.5545 72.1173 62.3532 71.5371 61.9504 71.1343C61.5572 70.722 61.0729 70.5158 60.4976 70.5158C59.9222 70.5158 59.4379 70.722 59.0447 71.1343C58.6611 71.5371 58.4694 72.1173 58.4694 72.8749C58.4694 73.6325 58.6564 74.2174 59.0303 74.6298C59.4139 75.0325 59.8934 75.2339 60.4688 75.2339ZM73.7701 68.8904V76.8594H71.7418V75.8525C71.4829 76.1977 71.1425 76.471 70.7205 76.6724C70.3082 76.8642 69.8575 76.9601 69.3684 76.9601C68.7451 76.9601 68.1937 76.8306 67.7142 76.5717C67.2347 76.3032 66.8559 75.9148 66.5778 75.4065C66.3093 74.8887 66.1751 74.275 66.1751 73.5653V68.8904H68.1889V73.2776C68.1889 73.9106 68.3471 74.3996 68.6636 74.7449C68.98 75.0805 69.4116 75.2483 69.9582 75.2483C70.5144 75.2483 70.9507 75.0805 71.2672 74.7449C71.5836 74.3996 71.7418 73.9106 71.7418 73.2776V68.8904H73.7701ZM81.8169 70.5446V74.3996C81.8169 74.6681 81.8793 74.8647 82.0039 74.9894C82.1382 75.1045 82.3588 75.162 82.6656 75.162H83.6006V76.8594H82.3348C80.6374 76.8594 79.7887 76.0347 79.7887 74.3852V70.5446H78.8394V68.8904H79.7887V66.9197H81.8169V68.8904H83.6006V70.5446H81.8169ZM89.6809 68.7753C90.285 68.7753 90.822 68.9095 91.2919 69.1781C91.7618 69.437 92.1262 69.8254 92.3852 70.3432C92.6537 70.8515 92.7879 71.4652 92.7879 72.1844V76.8594H90.7741V72.4577C90.7741 71.8248 90.6159 71.3405 90.2994 71.0049C89.9829 70.6597 89.5514 70.487 89.0048 70.487C88.4486 70.487 88.0075 70.6597 87.6814 71.0049C87.365 71.3405 87.2067 71.8248 87.2067 72.4577V76.8594H85.1929V66.2149H87.2067V69.8829C87.4657 69.5377 87.8109 69.2692 88.2424 69.0774C88.674 68.876 89.1534 68.7753 89.6809 68.7753ZM95.8681 67.941C95.5133 67.941 95.216 67.8307 94.9763 67.6102C94.7461 67.38 94.631 67.0971 94.631 66.7615C94.631 66.4258 94.7461 66.1477 94.9763 65.9272C95.216 65.697 95.5133 65.5819 95.8681 65.5819C96.2229 65.5819 96.5154 65.697 96.7456 65.9272C96.9853 66.1477 97.1052 66.4258 97.1052 66.7615C97.1052 67.0971 96.9853 67.38 96.7456 67.6102C96.5154 67.8307 96.2229 67.941 95.8681 67.941ZM96.8606 68.8904V76.8594H94.8468V68.8904H96.8606ZM103.41 68.7753C104.36 68.7753 105.127 69.0774 105.712 69.6815C106.297 70.2761 106.589 71.1104 106.589 72.1844V76.8594H104.575V72.4577C104.575 71.8248 104.417 71.3405 104.101 71.0049C103.784 70.6597 103.353 70.487 102.806 70.487C102.25 70.487 101.809 70.6597 101.483 71.0049C101.166 71.3405 101.008 71.8248 101.008 72.4577V76.8594H98.9942V68.8904H101.008V69.8829C101.276 69.5377 101.617 69.2692 102.029 69.0774C102.451 68.876 102.912 68.7753 103.41 68.7753ZM113.366 76.8594L110.662 73.4646V76.8594H108.648V66.2149H110.662V72.2707L113.337 68.8904H115.955L112.446 72.8893L115.984 76.8594H113.366ZM119.393 74.7449L117.71 78.7869H116.415L117.35 74.7449H119.393ZM135.607 68.8904L133.277 76.8594H131.105L129.652 71.2926L128.199 76.8594H126.013L123.668 68.8904H125.711L127.12 74.9606L128.645 68.8904H130.774L132.27 74.9462L133.68 68.8904H135.607ZM144.249 72.7023C144.249 72.9899 144.229 73.2489 144.191 73.479H138.365C138.413 74.0544 138.615 74.5051 138.969 74.8312C139.324 75.1572 139.761 75.3202 140.278 75.3202C141.026 75.3202 141.559 74.999 141.875 74.3565H144.047C143.817 75.1236 143.376 75.7566 142.724 76.2552C142.072 76.7443 141.271 76.9888 140.322 76.9888C139.554 76.9888 138.864 76.821 138.25 76.4854C137.646 76.1402 137.171 75.6559 136.826 75.0325C136.49 74.4092 136.323 73.69 136.323 72.8749C136.323 72.0502 136.49 71.3261 136.826 70.7028C137.162 70.0795 137.632 69.6 138.236 69.2644C138.84 68.9287 139.535 68.7609 140.322 68.7609C141.079 68.7609 141.755 68.9239 142.35 69.25C142.954 69.576 143.419 70.0411 143.745 70.6453C144.081 71.2398 144.249 71.9255 144.249 72.7023ZM142.163 72.1269C142.153 71.609 141.966 71.1967 141.602 70.8898C141.237 70.5734 140.791 70.4151 140.264 70.4151C139.765 70.4151 139.343 70.5686 138.998 70.8754C138.663 71.1727 138.456 71.5899 138.38 72.1269H142.163ZM148.916 72.8461C148.916 72.0406 149.074 71.3261 149.391 70.7028C149.717 70.0795 150.158 69.6 150.714 69.2644C151.27 68.9287 151.889 68.7609 152.57 68.7609C153.087 68.7609 153.581 68.876 154.051 69.1061C154.521 69.3267 154.895 69.624 155.173 69.998V66.2149H157.216V76.8594H155.173V75.6798C154.924 76.073 154.574 76.3895 154.123 76.6292C153.672 76.869 153.15 76.9888 152.555 76.9888C151.884 76.9888 151.27 76.8162 150.714 76.471C150.158 76.1258 149.717 75.6415 149.391 75.0182C149.074 74.3852 148.916 73.6612 148.916 72.8461ZM155.187 72.8749C155.187 72.3858 155.092 71.9686 154.9 71.6234C154.708 71.2686 154.449 71.0001 154.123 70.8179C153.797 70.6261 153.447 70.5302 153.073 70.5302C152.699 70.5302 152.354 70.6213 152.037 70.8035C151.721 70.9857 151.462 71.2542 151.261 71.609C151.069 71.9543 150.973 72.3666 150.973 72.8461C150.973 73.3256 151.069 73.7475 151.261 74.1119C151.462 74.4668 151.721 74.7401 152.037 74.9319C152.363 75.1236 152.709 75.2195 153.073 75.2195C153.447 75.2195 153.797 75.1284 154.123 74.9462C154.449 74.7544 154.708 74.4859 154.9 74.1407C155.092 73.7859 155.187 73.3639 155.187 72.8749ZM166.734 72.7023C166.734 72.9899 166.715 73.2489 166.677 73.479H160.851C160.899 74.0544 161.1 74.5051 161.455 74.8312C161.81 75.1572 162.246 75.3202 162.764 75.3202C163.512 75.3202 164.045 74.999 164.361 74.3565H166.533C166.303 75.1236 165.862 75.7566 165.21 76.2552C164.558 76.7443 163.757 76.9888 162.807 76.9888C162.04 76.9888 161.35 76.821 160.736 76.4854C160.132 76.1402 159.657 75.6559 159.312 75.0325C158.976 74.4092 158.809 73.69 158.809 72.8749C158.809 72.0502 158.976 71.3261 159.312 70.7028C159.648 70.0795 160.118 69.6 160.722 69.2644C161.326 68.9287 162.021 68.7609 162.807 68.7609C163.565 68.7609 164.241 68.9239 164.836 69.25C165.44 69.576 165.905 70.0411 166.231 70.6453C166.567 71.2398 166.734 71.9255 166.734 72.7023ZM164.649 72.1269C164.639 71.609 164.452 71.1967 164.088 70.8898C163.723 70.5734 163.277 70.4151 162.75 70.4151C162.251 70.4151 161.829 70.5686 161.484 70.8754C161.148 71.1727 160.942 71.5899 160.866 72.1269H164.649ZM170.362 66.2149V76.8594H168.348V66.2149H170.362ZM173.517 67.941C173.162 67.941 172.865 67.8307 172.625 67.6102C172.395 67.38 172.28 67.0971 172.28 66.7615C172.28 66.4258 172.395 66.1477 172.625 65.9272C172.865 65.697 173.162 65.5819 173.517 65.5819C173.872 65.5819 174.164 65.697 174.394 65.9272C174.634 66.1477 174.754 66.4258 174.754 66.7615C174.754 67.0971 174.634 67.38 174.394 67.6102C174.164 67.8307 173.872 67.941 173.517 67.941ZM174.509 68.8904V76.8594H172.496V68.8904H174.509ZM179.966 75.0038L181.979 68.8904H184.123L181.174 76.8594H178.729L175.794 68.8904H177.952L179.966 75.0038ZM192.806 72.7023C192.806 72.9899 192.787 73.2489 192.748 73.479H186.922C186.97 74.0544 187.172 74.5051 187.527 74.8312C187.881 75.1572 188.318 75.3202 188.836 75.3202C189.584 75.3202 190.116 74.999 190.432 74.3565H192.604C192.374 75.1236 191.933 75.7566 191.281 76.2552C190.629 76.7443 189.828 76.9888 188.879 76.9888C188.112 76.9888 187.421 76.821 186.807 76.4854C186.203 76.1402 185.729 75.6559 185.383 75.0325C185.048 74.4092 184.88 73.69 184.88 72.8749C184.88 72.0502 185.048 71.3261 185.383 70.7028C185.719 70.0795 186.189 69.6 186.793 69.2644C187.397 68.9287 188.092 68.7609 188.879 68.7609C189.636 68.7609 190.312 68.9239 190.907 69.25C191.511 69.576 191.976 70.0411 192.302 70.6453C192.638 71.2398 192.806 71.9255 192.806 72.7023ZM190.72 72.1269C190.71 71.609 190.523 71.1967 190.159 70.8898C189.795 70.5734 189.349 70.4151 188.821 70.4151C188.323 70.4151 187.901 70.5686 187.555 70.8754C187.22 71.1727 187.014 71.5899 186.937 72.1269H190.72ZM196.433 70.1274C196.692 69.7055 197.028 69.3746 197.44 69.1349C197.862 68.8952 198.342 68.7753 198.879 68.7753V70.8898H198.346C197.714 70.8898 197.234 71.0385 196.908 71.3357C196.592 71.633 196.433 72.1509 196.433 72.8893V76.8594H194.419V68.8904H196.433V70.1274ZM201.271 76.9601C200.906 76.9601 200.604 76.8498 200.365 76.6292C200.134 76.3991 200.019 76.1162 200.019 75.7805C200.019 75.4449 200.134 75.1668 200.365 74.9462C200.604 74.7161 200.906 74.601 201.271 74.601C201.626 74.601 201.918 74.7161 202.148 74.9462C202.378 75.1668 202.493 75.4449 202.493 75.7805C202.493 76.1162 202.378 76.3991 202.148 76.6292C201.918 76.8498 201.626 76.9601 201.271 76.9601Z" fill="#060505"/>
<path d="M28.0283 109.973C30.5763 109.973 32.1163 111.261 32.1163 113.389C32.1163 115.517 30.5763 116.805 28.0283 116.805H25.6063V119.773H24.2063V109.973H28.0283ZM27.9863 115.587C29.7783 115.587 30.7163 114.789 30.7163 113.389C30.7163 111.989 29.7783 111.191 27.9863 111.191H25.6063V115.587H27.9863ZM42.4029 119.773L41.3249 117.323H36.1169L35.0389 119.773H33.5969L38.0349 109.973H39.4209L43.8729 119.773H42.4029ZM36.6069 116.203H40.8349L38.7209 111.401L36.6069 116.203ZM54.8128 119.773H53.2868L51.1728 116.763C50.9768 116.777 50.7668 116.791 50.5568 116.791H48.1348V119.773H46.7348V109.973H50.5568C53.1048 109.973 54.6448 111.261 54.6448 113.389C54.6448 114.901 53.8608 115.993 52.4888 116.483L54.8128 119.773ZM50.5148 115.601C52.3068 115.601 53.2448 114.789 53.2448 113.389C53.2448 111.989 52.3068 111.191 50.5148 111.191H48.1348V115.601H50.5148ZM60.116 119.773V111.191H56.756V109.973H64.862V111.191H61.502V119.773H60.116ZM74.8148 109.973H76.2148V119.773H75.0668L69.1868 112.465V119.773H67.7868V109.973H68.9348L74.8148 117.281V109.973ZM81.9481 118.555H87.6601V119.773H80.5481V109.973H87.4641V111.191H81.9481V114.201H86.8621V115.391H81.9481V118.555ZM99.405 119.773H97.879L95.765 116.763C95.569 116.777 95.359 116.791 95.149 116.791H92.727V119.773H91.327V109.973H95.149C97.697 109.973 99.237 111.261 99.237 113.389C99.237 114.901 98.453 115.993 97.081 116.483L99.405 119.773ZM95.107 115.601C96.899 115.601 97.837 114.789 97.837 113.389C97.837 111.989 96.899 111.191 95.107 111.191H92.727V115.601H95.107ZM120.575 109.973H121.905L118.629 119.773H117.159L114.485 111.947L111.811 119.773H110.313L107.037 109.973H108.479L111.125 117.939L113.883 109.973H115.171L117.873 117.981L120.575 109.973ZM125.017 119.773V109.973H126.417V119.773H125.017ZM132.697 119.773V111.191H129.337V109.973H137.443V111.191H134.083V119.773H132.697ZM147.396 109.973H148.796V119.773H147.396V115.405H141.768V119.773H140.368V109.973H141.768V114.187H147.396V109.973ZM162.349 119.885C159.773 119.885 158.205 118.387 158.205 115.545V109.973H159.605V115.489C159.605 117.659 160.599 118.639 162.363 118.639C164.127 118.639 165.135 117.659 165.135 115.489V109.973H166.493V115.545C166.493 118.387 164.939 119.885 162.349 119.885ZM173.619 119.885C172.121 119.885 170.651 119.381 169.867 118.653L170.385 117.561C171.113 118.219 172.359 118.695 173.619 118.695C175.313 118.695 176.041 118.037 176.041 117.183C176.041 114.789 170.105 116.301 170.105 112.661C170.105 111.149 171.281 109.861 173.857 109.861C175.005 109.861 176.195 110.169 177.007 110.729L176.545 111.849C175.691 111.303 174.725 111.051 173.857 111.051C172.191 111.051 171.477 111.751 171.477 112.605C171.477 114.999 177.413 113.501 177.413 117.099C177.413 118.597 176.209 119.885 173.619 119.885ZM180.733 116.679L180.481 109.973H182.063L181.797 116.679H180.733ZM181.279 119.857C180.747 119.857 180.355 119.451 180.355 118.961C180.355 118.457 180.747 118.065 181.279 118.065C181.797 118.065 182.175 118.457 182.175 118.961C182.175 119.451 181.797 119.857 181.279 119.857Z" fill="#060505"/>
<path d="M24.2363 128.898C24.2363 128.898 126.629 122.189 87.2021 134" stroke="url(#paint0_linear_30_15551)" stroke-width="2" stroke-linecap="round"/>
<defs>
<linearGradient id="paint0_linear_30_15551" x1="60.2363" y1="127" x2="60.2363" y2="137.087" gradientUnits="userSpaceOnUse">
<stop stop-color="#F27129"/>
<stop offset="1" stop-color="#A3410A"/>
</linearGradient>
</defs>
</svg>
