<svg width="312" height="114" viewBox="0 0 312 114" fill="none" xmlns="http://www.w3.org/2000/svg">
<path d="M188.026 50.1609H181.206L181.039 80.9988H168.363L168.53 50.1609H163.934L163.991 39.6345H168.587L168.593 38.4485C168.621 33.3582 170.1 29.5035 173.03 26.8842C175.96 24.2156 180.242 22.8813 185.876 22.8813C186.815 22.8813 187.507 22.906 187.951 22.9554L187.893 33.7042C185.472 33.5559 183.765 33.9018 182.772 34.742C181.779 35.5821 181.277 37.0894 181.265 39.2639L181.263 39.6345H188.083L188.026 50.1609ZM200.438 35.335C198.214 35.335 196.389 34.6926 194.963 33.4076C193.586 32.0733 192.903 30.4425 192.914 28.5151C192.925 26.5383 193.625 24.9075 195.016 23.6225C196.456 22.2882 198.289 21.621 200.513 21.621C202.687 21.621 204.463 22.2882 205.839 23.6225C207.265 24.9075 207.973 26.5383 207.962 28.5151C207.952 30.4425 207.226 32.0733 205.786 33.4076C204.395 34.6926 202.613 35.335 200.438 35.335ZM206.716 39.6345L206.492 80.9988H193.815L194.04 39.6345H206.716ZM241.109 39.1898C245.952 39.1898 249.799 40.7712 252.648 43.934C255.547 47.0475 256.981 51.347 256.952 56.8326L256.821 80.9988H244.219L244.34 58.5376C244.355 55.7701 243.65 53.6203 242.225 52.0883C240.801 50.5563 238.877 49.7903 236.456 49.7903C234.034 49.7903 232.103 50.5563 230.661 52.0883C229.22 53.6203 228.491 55.7701 228.476 58.5376L228.355 80.9988H215.678L215.902 39.6345H228.579L228.549 45.1201C229.844 43.2916 231.581 41.8584 233.761 40.8206C235.942 39.7334 238.391 39.1898 241.109 39.1898ZM263.222 60.2425C263.245 55.9924 264.056 52.2613 265.654 49.049C267.303 45.8367 269.515 43.3657 272.292 41.636C275.069 39.9063 278.163 39.0415 281.573 39.0415C284.291 39.0415 286.759 39.6098 288.976 40.7465C291.244 41.8831 293.014 43.4151 294.289 45.3425L294.393 26.143H307.069L306.772 80.9988H294.096L294.128 75.0684C292.931 77.0452 291.217 78.6267 288.987 79.8127C286.806 80.9988 284.258 81.5918 281.342 81.5918C277.932 81.5918 274.848 80.727 272.09 78.9973C269.332 77.2182 267.146 74.7225 265.533 71.5102C263.969 68.2485 263.199 64.4926 263.222 60.2425ZM294.208 60.3167C294.225 57.1538 293.349 54.6581 291.58 52.8296C289.86 51.0011 287.74 50.0868 285.219 50.0868C282.699 50.0868 280.544 51.0011 278.755 52.8296C277.016 54.6087 276.137 57.0797 276.12 60.2425C276.103 63.4054 276.954 65.9258 278.674 67.8038C280.443 69.6323 282.588 70.5465 285.108 70.5465C287.629 70.5465 289.759 69.6323 291.498 67.8038C293.288 65.9752 294.191 63.4795 294.208 60.3167Z" fill="#F27129"/>
<path d="M38.97 29.0462L38.9089 39.2026H17.7061L17.6401 50.1745H33.5051L33.4458 60.0343H17.5808L17.4541 81.0884H4.77691L5.0901 29.0462H38.97ZM51.9702 35.4218C49.7461 35.4218 47.9213 34.7793 46.4958 33.4943C45.1199 32.1599 44.4378 30.5289 44.4494 28.6014C44.4613 26.6245 45.1631 24.9936 46.5547 23.7086C47.996 22.3742 49.8287 21.707 52.0527 21.707C54.2274 21.707 56.0026 22.3742 57.3784 23.7086C58.804 24.9936 59.5108 26.6245 59.4989 28.6014C59.4873 30.5289 58.7609 32.1599 57.3195 33.4943C55.928 34.7793 54.1448 35.4218 51.9702 35.4218ZM58.2458 39.7216L57.9969 81.0884H45.3197L45.5687 39.7216H58.2458ZM80.0685 46.616C81.5649 44.3426 83.429 42.5634 85.6608 41.2784C87.8929 39.944 90.3681 39.2768 93.0864 39.2768L93.0056 52.695H89.5213C86.3581 52.695 83.9816 53.3869 82.3918 54.7708C80.8022 56.1052 79.9971 58.4775 79.9766 61.8876L79.861 81.0884H67.1839L67.4328 39.7216H80.11L80.0685 46.616ZM115.719 81.6814C112.111 81.6814 108.903 81.0637 106.093 79.8281C103.283 78.5925 101.069 76.9122 99.451 74.787C97.8331 72.6124 96.9334 70.1907 96.7517 67.5218H109.281C109.42 68.9551 110.081 70.1165 111.261 71.0061C112.442 71.8957 113.897 72.3406 115.627 72.3406C117.209 72.3406 118.421 72.044 119.265 71.4509C120.159 70.8084 120.608 69.993 120.614 69.0045C120.622 67.8184 120.009 66.9535 118.777 66.4098C117.545 65.8168 115.547 65.1743 112.783 64.4823C109.822 63.7904 107.355 63.0738 105.383 62.3325C103.41 61.5417 101.713 60.3308 100.289 58.6999C98.866 57.0195 98.1629 54.7708 98.1799 51.9537C98.1941 49.5814 98.8496 47.4315 100.146 45.504C101.493 43.5271 103.429 41.9703 105.957 40.8336C108.534 39.6968 111.577 39.1285 115.086 39.1285C120.275 39.1285 124.345 40.4135 127.295 42.9835C130.294 45.5534 132.004 48.9636 132.423 53.214H120.709C120.52 51.7807 119.885 50.644 118.802 49.8038C117.77 48.9636 116.388 48.5435 114.658 48.5435C113.176 48.5435 112.037 48.84 111.243 49.4331C110.449 49.9768 110.049 50.7428 110.043 51.7313C110.036 52.9174 110.648 53.807 111.88 54.4001C113.162 54.9932 115.135 55.5862 117.8 56.1793C120.86 56.9701 123.351 57.7608 125.274 58.5516C127.197 59.293 128.87 60.5285 130.293 62.2583C131.765 63.9387 132.518 66.2121 132.55 69.0787C132.535 71.5004 131.83 73.675 130.435 75.6025C129.089 77.4805 127.128 78.9632 124.551 80.0505C122.024 81.1378 119.08 81.6814 115.719 81.6814ZM163.354 70.3389L163.289 81.0884H156.84C152.243 81.0884 148.667 79.9764 146.11 77.7523C143.554 75.4789 142.291 71.7969 142.322 66.7064L142.421 50.2486H137.379L137.443 39.7216H142.484L142.545 29.6393H155.222L155.161 39.7216H163.464L163.401 50.2486H155.098L154.998 66.8546C154.99 68.0902 155.282 68.9798 155.871 69.5235C156.461 70.0671 157.448 70.3389 158.832 70.3389H163.354Z" fill="white"/>
<path d="M51.9319 93.7564L48.1847 106.398H45.8382L43.1825 96.8305L40.363 106.398L38.0347 106.417L34.4513 93.7564H36.6523L39.2716 104.052L42.1093 93.7564H44.4376L47.0752 103.997L49.7127 93.7564H51.9319ZM58.8263 96.212C59.5903 96.212 60.2694 96.3757 60.8636 96.7032C61.4699 97.0306 61.9429 97.5157 62.2824 98.1584C62.6341 98.8011 62.8099 99.5772 62.8099 100.487V106.398H60.7545V100.796C60.7545 99.8985 60.5301 99.2134 60.0814 98.7404C59.6327 98.2554 59.0203 98.0128 58.2442 98.0128C57.4681 98.0128 56.8497 98.2554 56.3889 98.7404C55.9402 99.2134 55.7158 99.8985 55.7158 100.796V106.398H53.6422V92.9378H55.7158V97.5399C56.0675 97.1155 56.5101 96.7881 57.0437 96.5576C57.5894 96.3272 58.1836 96.212 58.8263 96.212ZM64.7638 101.342C64.7638 100.335 64.9699 99.4438 65.3823 98.6677C65.8067 97.8916 66.3766 97.2913 67.0921 96.8669C67.8197 96.4303 68.6201 96.212 69.4932 96.212C70.2814 96.212 70.9666 96.3697 71.5487 96.685C72.1429 96.9881 72.6158 97.3701 72.9675 97.8309V96.3757H75.0593V106.398H72.9675V104.907C72.6158 105.38 72.1368 105.774 71.5305 106.089C70.9241 106.405 70.2329 106.562 69.4568 106.562C68.5958 106.562 67.8076 106.344 67.0921 105.907C66.3766 105.459 65.8067 104.84 65.3823 104.052C64.9699 103.252 64.7638 102.348 64.7638 101.342ZM72.9675 101.378C72.9675 100.687 72.822 100.087 72.5309 99.5772C72.252 99.0679 71.8821 98.6798 71.4213 98.413C70.9605 98.1462 70.4633 98.0128 69.9298 98.0128C69.3962 98.0128 68.899 98.1462 68.4382 98.413C67.9774 98.6677 67.6014 99.0497 67.3104 99.559C67.0315 100.056 66.892 100.65 66.892 101.342C66.892 102.033 67.0315 102.639 67.3104 103.161C67.6014 103.682 67.9774 104.082 68.4382 104.361C68.9111 104.628 69.4083 104.761 69.9298 104.761C70.4633 104.761 70.9605 104.628 71.4213 104.361C71.8821 104.094 72.252 103.706 72.5309 103.197C72.822 102.676 72.9675 102.069 72.9675 101.378ZM80.2023 98.0674V103.615C80.2023 103.991 80.2872 104.264 80.4569 104.434C80.6388 104.592 80.942 104.67 81.3664 104.67H82.6397V106.398H81.0026C80.0689 106.398 79.3534 106.18 78.8562 105.744C78.359 105.307 78.1104 104.598 78.1104 103.615V98.0674H76.9281V96.3757H78.1104V93.8837H80.2023V96.3757H82.6397V98.0674H80.2023ZM98.2983 96.3757L92.1501 111.11H90.0037L92.041 106.235L88.0937 96.3757H90.4039L93.2233 104.016L96.1519 96.3757H98.2983ZM104.211 106.562C103.265 106.562 102.41 106.35 101.646 105.925C100.882 105.489 100.282 104.883 99.8451 104.106C99.4085 103.318 99.1902 102.409 99.1902 101.378C99.1902 100.359 99.4146 99.4559 99.8632 98.6677C100.312 97.8795 100.924 97.2731 101.7 96.8487C102.477 96.4243 103.344 96.212 104.302 96.212C105.26 96.212 106.127 96.4243 106.903 96.8487C107.679 97.2731 108.291 97.8795 108.74 98.6677C109.189 99.4559 109.413 100.359 109.413 101.378C109.413 102.397 109.183 103.3 108.722 104.088C108.261 104.877 107.63 105.489 106.83 105.925C106.042 106.35 105.169 106.562 104.211 106.562ZM104.211 104.761C104.744 104.761 105.241 104.634 105.702 104.379C106.175 104.125 106.557 103.743 106.848 103.233C107.139 102.724 107.285 102.106 107.285 101.378C107.285 100.65 107.145 100.038 106.866 99.5408C106.587 99.0315 106.218 98.6495 105.757 98.3948C105.296 98.1402 104.799 98.0128 104.265 98.0128C103.732 98.0128 103.234 98.1402 102.774 98.3948C102.325 98.6495 101.967 99.0315 101.7 99.5408C101.434 100.038 101.3 100.65 101.3 101.378C101.3 102.457 101.573 103.294 102.119 103.888C102.677 104.47 103.374 104.761 104.211 104.761ZM120.54 96.3757V106.398H118.466V105.216C118.139 105.628 117.708 105.956 117.175 106.198C116.653 106.429 116.095 106.544 115.501 106.544C114.713 106.544 114.003 106.38 113.373 106.053C112.754 105.725 112.263 105.24 111.899 104.598C111.548 103.955 111.372 103.179 111.372 102.269V96.3757H113.427V101.96C113.427 102.857 113.652 103.549 114.1 104.034C114.549 104.507 115.162 104.743 115.938 104.743C116.714 104.743 117.326 104.507 117.775 104.034C118.236 103.549 118.466 102.857 118.466 101.96V96.3757H120.54ZM130.42 98.0674V103.615C130.42 103.991 130.505 104.264 130.675 104.434C130.857 104.592 131.16 104.67 131.584 104.67H132.858V106.398H131.221C130.287 106.398 129.571 106.18 129.074 105.744C128.577 105.307 128.328 104.598 128.328 103.615V98.0674H127.146V96.3757H128.328V93.8837H130.42V96.3757H132.858V98.0674H130.42ZM139.953 96.212C140.717 96.212 141.396 96.3757 141.99 96.7032C142.597 97.0306 143.07 97.5157 143.409 98.1584C143.761 98.8011 143.937 99.5772 143.937 100.487V106.398H141.881V100.796C141.881 99.8985 141.657 99.2134 141.208 98.7404C140.759 98.2554 140.147 98.0128 139.371 98.0128C138.595 98.0128 137.976 98.2554 137.516 98.7404C137.067 99.2134 136.843 99.8985 136.843 100.796V106.398H134.769V92.9378H136.843V97.5399C137.194 97.1155 137.637 96.7881 138.17 96.5576C138.716 96.3272 139.31 96.212 139.953 96.212ZM147.637 95.0479C147.261 95.0479 146.946 94.9205 146.691 94.6659C146.436 94.4112 146.309 94.0959 146.309 93.72C146.309 93.3441 146.436 93.0288 146.691 92.7741C146.946 92.5195 147.261 92.3921 147.637 92.3921C148.001 92.3921 148.31 92.5195 148.564 92.7741C148.819 93.0288 148.946 93.3441 148.946 93.72C148.946 94.0959 148.819 94.4112 148.564 94.6659C148.31 94.9205 148.001 95.0479 147.637 95.0479ZM148.655 96.3757V106.398H146.582V96.3757H148.655ZM156.435 96.212C157.223 96.212 157.926 96.3757 158.545 96.7032C159.175 97.0306 159.666 97.5157 160.018 98.1584C160.37 98.8011 160.546 99.5772 160.546 100.487V106.398H158.49V100.796C158.49 99.8985 158.266 99.2134 157.817 98.7404C157.368 98.2554 156.756 98.0128 155.98 98.0128C155.204 98.0128 154.585 98.2554 154.125 98.7404C153.676 99.2134 153.452 99.8985 153.452 100.796V106.398H151.378V96.3757H153.452V97.5217C153.791 97.1094 154.222 96.7881 154.743 96.5576C155.277 96.3272 155.841 96.212 156.435 96.212ZM167.156 101.396L171.776 106.398H168.975L165.264 102.087V106.398H163.191V92.9378H165.264V100.76L168.902 96.3757H171.776L167.156 101.396ZM175.536 103.906L173.335 108.927H171.989L173.281 103.906H175.536ZM195.534 96.3757L192.424 106.398H190.241L188.222 98.9951L186.203 106.398H184.02L180.891 96.3757H183.001L185.093 104.434L187.221 96.3757H189.386L191.423 104.398L193.497 96.3757H195.534ZM206.27 101.142C206.27 101.517 206.246 101.857 206.197 102.16H198.539C198.6 102.961 198.897 103.603 199.43 104.088C199.964 104.573 200.619 104.816 201.395 104.816C202.511 104.816 203.299 104.349 203.76 103.415H205.997C205.694 104.337 205.142 105.095 204.342 105.689C203.553 106.271 202.571 106.562 201.395 106.562C200.437 106.562 199.576 106.35 198.812 105.925C198.06 105.489 197.466 104.883 197.029 104.106C196.605 103.318 196.393 102.409 196.393 101.378C196.393 100.347 196.599 99.4438 197.011 98.6677C197.435 97.8795 198.024 97.2731 198.775 96.8487C199.539 96.4243 200.413 96.212 201.395 96.212C202.341 96.212 203.184 96.4182 203.923 96.8305C204.663 97.2428 205.239 97.8249 205.651 98.5767C206.064 99.3165 206.27 100.171 206.27 101.142ZM204.105 100.487C204.093 99.7227 203.82 99.1103 203.287 98.6495C202.753 98.1887 202.092 97.9583 201.304 97.9583C200.588 97.9583 199.976 98.1887 199.467 98.6495C198.957 99.0982 198.654 99.7106 198.557 100.487H204.105ZM212.344 101.342C212.344 100.335 212.551 99.4438 212.963 98.6677C213.387 97.8916 213.957 97.2913 214.673 96.8669C215.4 96.4303 216.207 96.212 217.092 96.212C217.747 96.212 218.39 96.3576 219.02 96.6486C219.663 96.9275 220.172 97.3034 220.548 97.7764V92.9378H222.64V106.398H220.548V104.889C220.209 105.374 219.736 105.774 219.129 106.089C218.535 106.405 217.85 106.562 217.074 106.562C216.201 106.562 215.4 106.344 214.673 105.907C213.957 105.459 213.387 104.84 212.963 104.052C212.551 103.252 212.344 102.348 212.344 101.342ZM220.548 101.378C220.548 100.687 220.403 100.087 220.112 99.5772C219.833 99.0679 219.463 98.6798 219.002 98.413C218.541 98.1462 218.044 98.0128 217.51 98.0128C216.977 98.0128 216.48 98.1462 216.019 98.413C215.558 98.6677 215.182 99.0497 214.891 99.559C214.612 100.056 214.473 100.65 214.473 101.342C214.473 102.033 214.612 102.639 214.891 103.161C215.182 103.682 215.558 104.082 216.019 104.361C216.492 104.628 216.989 104.761 217.51 104.761C218.044 104.761 218.541 104.628 219.002 104.361C219.463 104.094 219.833 103.706 220.112 103.197C220.403 102.676 220.548 102.069 220.548 101.378ZM234.55 101.142C234.55 101.517 234.525 101.857 234.477 102.16H226.819C226.879 102.961 227.177 103.603 227.71 104.088C228.244 104.573 228.899 104.816 229.675 104.816C230.79 104.816 231.579 104.349 232.039 103.415H234.277C233.974 104.337 233.422 105.095 232.621 105.689C231.833 106.271 230.851 106.562 229.675 106.562C228.717 106.562 227.856 106.35 227.092 105.925C226.34 105.489 225.746 104.883 225.309 104.106C224.885 103.318 224.672 102.409 224.672 101.378C224.672 100.347 224.879 99.4438 225.291 98.6677C225.715 97.8795 226.303 97.2731 227.055 96.8487C227.819 96.4243 228.692 96.212 229.675 96.212C230.621 96.212 231.463 96.4182 232.203 96.8305C232.943 97.2428 233.519 97.8249 233.931 98.5767C234.343 99.3165 234.55 100.171 234.55 101.142ZM232.385 100.487C232.373 99.7227 232.1 99.1103 231.566 98.6495C231.033 98.1887 230.372 97.9583 229.584 97.9583C228.868 97.9583 228.256 98.1887 227.746 98.6495C227.237 99.0982 226.934 99.7106 226.837 100.487H232.385ZM238.664 92.9378V106.398H236.59V92.9378H238.664ZM242.441 95.0479C242.066 95.0479 241.75 94.9205 241.496 94.6659C241.241 94.4112 241.114 94.0959 241.114 93.72C241.114 93.3441 241.241 93.0288 241.496 92.7741C241.75 92.5195 242.066 92.3921 242.441 92.3921C242.805 92.3921 243.114 92.5195 243.369 92.7741C243.624 93.0288 243.751 93.3441 243.751 93.72C243.751 94.0959 243.624 94.4112 243.369 94.6659C243.114 94.9205 242.805 95.0479 242.441 95.0479ZM243.46 96.3757V106.398H241.386V96.3757H243.46ZM250.057 104.543L252.895 96.3757H255.096L251.276 106.398H248.802L245 96.3757H247.219L250.057 104.543ZM265.849 101.142C265.849 101.517 265.825 101.857 265.776 102.16H258.118C258.179 102.961 258.476 103.603 259.01 104.088C259.543 104.573 260.198 104.816 260.974 104.816C262.09 104.816 262.878 104.349 263.339 103.415H265.576C265.273 104.337 264.721 105.095 263.921 105.689C263.133 106.271 262.151 106.562 260.974 106.562C260.016 106.562 259.155 106.35 258.391 105.925C257.639 105.489 257.045 104.883 256.609 104.106C256.184 103.318 255.972 102.409 255.972 101.378C255.972 100.347 256.178 99.4438 256.59 98.6677C257.015 97.8795 257.603 97.2731 258.355 96.8487C259.119 96.4243 259.992 96.212 260.974 96.212C261.92 96.212 262.763 96.4182 263.503 96.8305C264.242 97.2428 264.818 97.8249 265.231 98.5767C265.643 99.3165 265.849 100.171 265.849 101.142ZM263.685 100.487C263.672 99.7227 263.4 99.1103 262.866 98.6495C262.332 98.1887 261.671 97.9583 260.883 97.9583C260.168 97.9583 259.555 98.1887 259.046 98.6495C258.537 99.0982 258.234 99.7106 258.137 100.487H263.685ZM269.963 97.8309C270.267 97.3216 270.667 96.9275 271.164 96.6486C271.673 96.3576 272.274 96.212 272.965 96.212V98.3585H272.437C271.625 98.3585 271.006 98.5646 270.582 98.9769C270.17 99.3892 269.963 100.105 269.963 101.123V106.398H267.89V96.3757H269.963V97.8309ZM275.708 106.526C275.332 106.526 275.016 106.398 274.762 106.144C274.507 105.889 274.38 105.574 274.38 105.198C274.38 104.822 274.507 104.507 274.762 104.252C275.016 103.997 275.332 103.87 275.708 103.87C276.071 103.87 276.381 103.997 276.635 104.252C276.89 104.507 277.017 104.822 277.017 105.198C277.017 105.574 276.89 105.889 276.635 106.144C276.381 106.398 276.071 106.526 275.708 106.526Z" fill="white"/>
</svg>
