<svg width="18" height="17" viewBox="0 0 18 17" fill="none" xmlns="http://www.w3.org/2000/svg">
<path d="M1.375 4.8137H4.38969C4.35617 4.78534 4.3218 4.75784 4.28914 4.72776C4.02814 4.49588 3.81779 4.21264 3.67125 3.89576C3.52472 3.57888 3.44514 3.23516 3.4375 2.88612C3.42621 2.50428 3.49308 2.12416 3.63402 1.76909C3.77495 1.41403 3.98696 1.09152 4.25704 0.821357C4.52712 0.551196 4.84957 0.339085 5.20459 0.198049C5.55962 0.0570118 5.93972 -0.00997528 6.32156 0.00119981C6.67075 0.00872093 7.01463 0.0882415 7.33167 0.234784C7.64871 0.381326 7.93209 0.591735 8.16406 0.85284C8.48506 1.22486 8.74601 1.6447 8.9375 2.09722C9.12899 1.6447 9.38994 1.22486 9.71094 0.85284C9.94291 0.591735 10.2263 0.381326 10.5433 0.234784C10.8604 0.0882415 11.2042 0.00872093 11.5534 0.00119981C11.9353 -0.00997528 12.3154 0.0570118 12.6704 0.198049C13.0254 0.339085 13.3479 0.551196 13.618 0.821357C13.888 1.09152 14.1001 1.41403 14.241 1.76909C14.3819 2.12416 14.4488 2.50428 14.4375 2.88612C14.4299 3.23516 14.3503 3.57888 14.2037 3.89576C14.0572 4.21264 13.8469 4.49588 13.5859 4.72776C13.5532 4.75612 13.5188 4.78362 13.4853 4.8137H16.5C16.8647 4.8137 17.2144 4.95857 17.4723 5.21643C17.7301 5.47429 17.875 5.82403 17.875 6.1887V8.9387C17.875 9.30337 17.7301 9.65311 17.4723 9.91097C17.2144 10.1688 16.8647 10.3137 16.5 10.3137V15.8137C16.5 16.1784 16.3551 16.5281 16.0973 16.786C15.8394 17.0438 15.4897 17.1887 15.125 17.1887H9.96875C9.87758 17.1887 9.79015 17.1525 9.72568 17.088C9.66122 17.0236 9.625 16.9361 9.625 16.8449V8.9387H16.5V6.1887H9.625V8.9387H8.25V6.1887H1.375V8.9387H8.25V16.8449C8.25 16.9361 8.21378 17.0236 8.14932 17.088C8.08485 17.1525 7.99742 17.1887 7.90625 17.1887H2.75C2.38533 17.1887 2.03559 17.0438 1.77773 16.786C1.51987 16.5281 1.375 16.1784 1.375 15.8137V10.3137C1.01033 10.3137 0.660591 10.1688 0.402729 9.91097C0.144865 9.65311 0 9.30337 0 8.9387V6.1887C0 5.82403 0.144865 5.47429 0.402729 5.21643C0.660591 4.95857 1.01033 4.8137 1.375 4.8137ZM12.6749 3.69651C12.7951 3.58766 12.8915 3.45512 12.9581 3.30724C13.0246 3.15935 13.0599 2.9993 13.0616 2.83714C13.066 2.64713 13.0324 2.45817 12.9628 2.28132C12.8931 2.10448 12.7889 1.9433 12.6562 1.80724C12.5235 1.67118 12.365 1.56297 12.19 1.48896C12.0149 1.41494 11.8269 1.37661 11.6368 1.3762H11.5947C11.4325 1.37795 11.2725 1.4132 11.1246 1.47975C10.9767 1.5463 10.8442 1.64271 10.7353 1.76292C10.0143 2.57761 9.75992 3.92854 9.67055 4.76386C10.5093 4.67534 11.8594 4.42097 12.6749 3.69651ZM5.19836 3.69651C6.01391 4.41839 7.36742 4.67276 8.20617 4.76214C8.10391 3.85893 7.82031 2.53636 7.13281 1.76378C7.02396 1.64357 6.89142 1.54716 6.74354 1.48061C6.59565 1.41406 6.4356 1.37881 6.27344 1.37706H6.23133C6.04126 1.37825 5.85334 1.41736 5.67859 1.4921C5.50383 1.56685 5.34575 1.67572 5.21361 1.81235C5.08147 1.94897 4.97793 2.11059 4.90905 2.28774C4.84017 2.46489 4.80735 2.65401 4.8125 2.84401C4.8153 3.00507 4.85114 3.16384 4.91781 3.31049C4.98448 3.45713 5.08055 3.58852 5.20008 3.69651H5.19836Z" fill="white"/>
</svg>
