<svg width="81" height="32" viewBox="0 0 81 32" fill="none" xmlns="http://www.w3.org/2000/svg">
<path d="M48.2362 13.0857H46.486L46.4431 20.9997H43.1899L43.2328 13.0857H42.0533L42.0679 10.3843H43.2474L43.2491 10.0799C43.2562 8.7736 43.6357 7.78436 44.3876 7.11217C45.1396 6.42731 46.2385 6.08488 47.6844 6.08488C47.9253 6.08488 48.1029 6.09122 48.2169 6.1039L48.202 8.86238C47.5807 8.82433 47.1427 8.91311 46.8879 9.12872C46.6331 9.34432 46.5041 9.73114 46.5011 10.2892L46.5006 10.3843H48.2508L48.2362 13.0857ZM51.4215 9.28091C50.8508 9.28091 50.3824 9.11604 50.0164 8.78629C49.6631 8.44385 49.4878 8.02533 49.4905 7.5307C49.4933 7.0234 49.6731 6.60487 50.03 6.27512C50.3997 5.93269 50.8699 5.76147 51.4406 5.76147C51.9986 5.76147 52.4543 5.93269 52.8076 6.27512C53.1736 6.60487 53.3552 7.0234 53.3525 7.5307C53.3498 8.02533 53.1636 8.44385 52.7939 8.78629C52.437 9.11604 51.9796 9.28091 51.4215 9.28091ZM53.0326 10.3843L52.9751 20.9997H49.7219L49.7795 10.3843H53.0326ZM61.859 10.2702C63.1019 10.2702 64.089 10.676 64.8202 11.4877C65.5641 12.2867 65.9323 13.3901 65.9247 14.7979L65.8911 20.9997H62.657L62.6882 15.2354C62.692 14.5252 62.5111 13.9735 62.1455 13.5803C61.7798 13.1872 61.2862 12.9906 60.6648 12.9906C60.0433 12.9906 59.5476 13.1872 59.1777 13.5803C58.8077 13.9735 58.6208 14.5252 58.617 15.2354L58.5858 20.9997H55.3326L55.3901 10.3843H58.6433L58.6357 11.7921C58.9679 11.3228 59.4138 10.955 59.9733 10.6887C60.5329 10.4097 61.1614 10.2702 61.859 10.2702ZM67.5337 15.673C67.5396 14.5823 67.7478 13.6247 68.1581 12.8003C68.5811 11.976 69.1489 11.3418 69.8615 10.8979C70.5742 10.4541 71.3681 10.2321 72.2432 10.2321C72.9407 10.2321 73.5741 10.378 74.1432 10.6697C74.7251 10.9614 75.1795 11.3545 75.5066 11.8491L75.5333 6.92193H78.7865L78.7102 20.9997H75.457L75.4653 19.4778C75.1581 19.9851 74.7184 20.3909 74.146 20.6953C73.5863 20.9997 72.9323 21.1519 72.184 21.1519C71.3089 21.1519 70.5174 20.9299 69.8096 20.486C69.1018 20.0295 68.5409 19.389 68.1268 18.5646C67.7255 17.7276 67.5278 16.7637 67.5337 15.673ZM75.4858 15.692C75.4902 14.8803 75.2654 14.2398 74.8113 13.7706C74.37 13.3013 73.8259 13.0667 73.179 13.0667C72.5322 13.0667 71.9792 13.3013 71.5201 13.7706C71.0737 14.2271 70.8484 14.8613 70.844 15.673C70.8396 16.4847 71.058 17.1315 71.4993 17.6134C71.9533 18.0827 72.5038 18.3173 73.1506 18.3173C73.7974 18.3173 74.3441 18.0827 74.7905 17.6134C75.2496 17.1442 75.4814 16.5037 75.4858 15.692Z" fill="#F27129"/>
<path d="M10.0004 7.6674L9.98521 10.2739H4.54391L4.52745 13.0896H8.59891L8.58412 15.6199H4.51266L4.48107 21.0231H1.22771L1.30579 7.6674H10.0004ZM13.337 9.30357C12.7662 9.30357 12.2979 9.13868 11.932 8.80891C11.5789 8.46646 11.4037 8.0479 11.4066 7.55325C11.4096 7.04591 11.5896 6.62736 11.9467 6.29759C12.3165 5.95513 12.7868 5.78391 13.3576 5.78391C13.9157 5.78391 14.3713 5.95513 14.7244 6.29759C15.0903 6.62736 15.2718 7.04591 15.2688 7.55325C15.2659 8.0479 15.0796 8.46646 14.7097 8.80891C14.3527 9.13868 13.8951 9.30357 13.337 9.30357ZM14.9477 10.407L14.8856 21.0231H11.6323L11.6943 10.407H14.9477ZM20.5484 12.1764C20.9323 11.5929 21.4106 11.1363 21.9833 10.8066C22.5561 10.4641 23.1913 10.2929 23.8889 10.2929L23.8687 13.7364H22.9745C22.1628 13.7364 21.5529 13.914 21.145 14.2691C20.7371 14.6116 20.5306 15.2204 20.5255 16.0956L20.4967 21.0231H17.2433L17.3054 10.407H20.5587L20.5484 12.1764ZM29.6991 21.1753C28.7732 21.1753 27.9497 21.0167 27.2286 20.6997C26.5074 20.3826 25.9392 19.9513 25.5238 19.4059C25.1085 18.8479 24.8775 18.2264 24.8308 17.5415H28.0461C28.082 17.9093 28.2515 18.2074 28.5545 18.4357C28.8576 18.664 29.2311 18.7781 29.675 18.7781C30.0809 18.7781 30.3921 18.702 30.6086 18.5498C30.8379 18.3849 30.9533 18.1756 30.9548 17.922C30.9565 17.6176 30.7993 17.3956 30.483 17.2561C30.1668 17.1039 29.6541 16.939 28.9448 16.7614C28.1849 16.5839 27.5518 16.4 27.0455 16.2097C26.5394 16.0068 26.1036 15.696 25.7382 15.2775C25.3729 14.8462 25.1924 14.2691 25.1966 13.5462C25.2002 12.9374 25.3683 12.3856 25.7009 11.891C26.0464 11.3837 26.5434 10.9841 27.1919 10.6924C27.8532 10.4007 28.6341 10.2548 29.5346 10.2548C30.8664 10.2548 31.9109 10.5846 32.668 11.2441C33.4379 11.9037 33.8767 12.7788 33.9845 13.8696H30.9785C30.9299 13.5018 30.7667 13.2101 30.4889 12.9945C30.2238 12.7788 29.8693 12.671 29.4254 12.671C29.0449 12.671 28.7527 12.7471 28.5489 12.8993C28.3451 13.0388 28.2425 13.2354 28.241 13.4891C28.2392 13.7935 28.3964 14.0218 28.7126 14.174C29.0415 14.3262 29.548 14.4784 30.232 14.6306C31.0172 14.8336 31.6566 15.0365 32.15 15.2394C32.6436 15.4297 33.073 15.7468 33.4382 16.1907C33.8162 16.6219 34.0094 17.2054 34.0178 17.941C34.0141 18.5625 33.8333 19.1206 33.4753 19.6152C33.13 20.0972 32.6268 20.4777 31.9656 20.7567C31.3171 21.0358 30.5616 21.1753 29.6991 21.1753ZM41.9232 18.2644L41.9071 21.0231H40.2518C39.0723 21.0231 38.1544 20.7377 37.4982 20.1669C36.842 19.5835 36.5178 18.6386 36.5254 17.3322L36.5501 13.1086H35.2564L35.2722 10.407H36.5659L36.581 7.8196H39.8344L39.8192 10.407H41.9501L41.9343 13.1086H39.8035L39.7785 17.3702C39.7767 17.6873 39.8515 17.9156 40.0028 18.0551C40.1542 18.1947 40.4075 18.2644 40.7626 18.2644H41.9232Z" fill="#060505"/>
<path d="M8.53355 26.1775L7.40055 30H6.69105L5.88805 27.107L5.03555 30L4.33155 30.0055L3.24805 26.1775H3.91355L4.70555 29.2905L5.56355 26.1775H6.26755L7.06506 29.274L7.86255 26.1775H8.53355ZM10.6182 26.92C10.8492 26.92 11.0545 26.9695 11.2342 27.0685C11.4175 27.1675 11.5605 27.3142 11.6632 27.5085C11.7695 27.7028 11.8227 27.9375 11.8227 28.2125V30H11.2012V28.306C11.2012 28.0347 11.1334 27.8275 10.9977 27.6845C10.862 27.5378 10.6769 27.4645 10.4422 27.4645C10.2075 27.4645 10.0205 27.5378 9.88118 27.6845C9.74552 27.8275 9.67768 28.0347 9.67768 28.306V30H9.05068V25.93H9.67768V27.3215C9.78402 27.1932 9.91785 27.0942 10.0792 27.0245C10.2442 26.9548 10.4239 26.92 10.6182 26.92ZM12.4135 28.471C12.4135 28.1667 12.4758 27.8972 12.6005 27.6625C12.7288 27.4278 12.9011 27.2463 13.1175 27.118C13.3375 26.986 13.5795 26.92 13.8435 26.92C14.0818 26.92 14.289 26.9677 14.465 27.063C14.6446 27.1547 14.7876 27.2702 14.894 27.4095V26.9695H15.5265V30H14.894V29.549C14.7876 29.692 14.6428 29.8112 14.4595 29.9065C14.2761 30.0018 14.0671 30.0495 13.8325 30.0495C13.5721 30.0495 13.3338 29.9835 13.1175 29.8515C12.9011 29.7158 12.7288 29.5288 12.6005 29.2905C12.4758 29.0485 12.4135 28.7753 12.4135 28.471ZM14.894 28.482C14.894 28.273 14.85 28.0915 14.762 27.9375C14.6776 27.7835 14.5658 27.6662 14.4265 27.5855C14.2871 27.5048 14.1368 27.4645 13.9755 27.4645C13.8141 27.4645 13.6638 27.5048 13.5245 27.5855C13.3851 27.6625 13.2715 27.778 13.1835 27.932C13.0991 28.0823 13.057 28.262 13.057 28.471C13.057 28.68 13.0991 28.8633 13.1835 29.021C13.2715 29.1787 13.3851 29.2997 13.5245 29.384C13.6675 29.4647 13.8178 29.505 13.9755 29.505C14.1368 29.505 14.2871 29.4647 14.4265 29.384C14.5658 29.3033 14.6776 29.186 14.762 29.032C14.85 28.8743 14.894 28.691 14.894 28.482ZM17.0815 27.481V29.1585C17.0815 29.2722 17.1072 29.3547 17.1585 29.406C17.2135 29.4537 17.3052 29.4775 17.4335 29.4775H17.8185V30H17.3235C17.0412 30 16.8248 29.934 16.6745 29.802C16.5242 29.67 16.449 29.4555 16.449 29.1585V27.481H16.0915V26.9695H16.449V26.216H17.0815V26.9695H17.8185V27.481H17.0815ZM22.5531 26.9695L20.6941 31.4245H20.0451L20.6611 29.9505L19.4676 26.9695H20.1661L21.0186 29.2795L21.9041 26.9695H22.5531ZM24.3408 30.0495C24.0548 30.0495 23.7963 29.9853 23.5653 29.857C23.3343 29.725 23.1528 29.5417 23.0208 29.307C22.8888 29.0687 22.8228 28.7937 22.8228 28.482C22.8228 28.174 22.8906 27.9008 23.0263 27.6625C23.1619 27.4242 23.3471 27.2408 23.5818 27.1125C23.8164 26.9842 24.0786 26.92 24.3683 26.92C24.6579 26.92 24.9201 26.9842 25.1548 27.1125C25.3894 27.2408 25.5746 27.4242 25.7103 27.6625C25.8459 27.9008 25.9138 28.174 25.9138 28.482C25.9138 28.79 25.8441 29.0632 25.7048 29.3015C25.5654 29.5398 25.3748 29.725 25.1328 29.857C24.8944 29.9853 24.6304 30.0495 24.3408 30.0495ZM24.3408 29.505C24.5021 29.505 24.6524 29.4665 24.7918 29.3895C24.9348 29.3125 25.0503 29.197 25.1383 29.043C25.2263 28.889 25.2703 28.702 25.2703 28.482C25.2703 28.262 25.2281 28.0768 25.1438 27.9265C25.0594 27.7725 24.9476 27.657 24.8083 27.58C24.6689 27.503 24.5186 27.4645 24.3573 27.4645C24.1959 27.4645 24.0456 27.503 23.9063 27.58C23.7706 27.657 23.6624 27.7725 23.5818 27.9265C23.5011 28.0768 23.4608 28.262 23.4608 28.482C23.4608 28.8083 23.5433 29.0613 23.7083 29.241C23.8769 29.417 24.0878 29.505 24.3408 29.505ZM29.2781 26.9695V30H28.6511V29.6425C28.5521 29.7672 28.4219 29.8662 28.2606 29.9395C28.1029 30.0092 27.9343 30.044 27.7546 30.044C27.5163 30.044 27.3018 29.9945 27.1111 29.8955C26.9241 29.7965 26.7756 29.6498 26.6656 29.4555C26.5593 29.2612 26.5061 29.0265 26.5061 28.7515V26.9695H27.1276V28.658C27.1276 28.9293 27.1954 29.1383 27.3311 29.285C27.4668 29.428 27.6519 29.4995 27.8866 29.4995C28.1213 29.4995 28.3064 29.428 28.4421 29.285C28.5814 29.1383 28.6511 28.9293 28.6511 28.658V26.9695H29.2781ZM32.2656 27.481V29.1585C32.2656 29.2722 32.2912 29.3547 32.3426 29.406C32.3976 29.4537 32.4892 29.4775 32.6176 29.4775H33.0026V30H32.5076C32.2252 30 32.0089 29.934 31.8586 29.802C31.7082 29.67 31.6331 29.4555 31.6331 29.1585V27.481H31.2756V26.9695H31.6331V26.216H32.2656V26.9695H33.0026V27.481H32.2656ZM35.148 26.92C35.379 26.92 35.5843 26.9695 35.764 27.0685C35.9473 27.1675 36.0903 27.3142 36.193 27.5085C36.2993 27.7028 36.3525 27.9375 36.3525 28.2125V30H35.731V28.306C35.731 28.0347 35.6631 27.8275 35.5275 27.6845C35.3918 27.5378 35.2066 27.4645 34.972 27.4645C34.7373 27.4645 34.5503 27.5378 34.411 27.6845C34.2753 27.8275 34.2075 28.0347 34.2075 28.306V30H33.5805V25.93H34.2075V27.3215C34.3138 27.1932 34.4476 27.0942 34.609 27.0245C34.774 26.9548 34.9536 26.92 35.148 26.92ZM37.4712 26.568C37.3576 26.568 37.2622 26.5295 37.1852 26.4525C37.1082 26.3755 37.0697 26.2802 37.0697 26.1665C37.0697 26.0528 37.1082 25.9575 37.1852 25.8805C37.2622 25.8035 37.3576 25.765 37.4712 25.765C37.5812 25.765 37.6747 25.8035 37.7517 25.8805C37.8287 25.9575 37.8672 26.0528 37.8672 26.1665C37.8672 26.2802 37.8287 26.3755 37.7517 26.4525C37.6747 26.5295 37.5812 26.568 37.4712 26.568ZM37.7792 26.9695V30H37.1522V26.9695H37.7792ZM40.1314 26.92C40.3698 26.92 40.5824 26.9695 40.7694 27.0685C40.9601 27.1675 41.1086 27.3142 41.2149 27.5085C41.3213 27.7028 41.3744 27.9375 41.3744 28.2125V30H40.7529V28.306C40.7529 28.0347 40.6851 27.8275 40.5494 27.6845C40.4138 27.5378 40.2286 27.4645 39.9939 27.4645C39.7593 27.4645 39.5723 27.5378 39.4329 27.6845C39.2973 27.8275 39.2294 28.0347 39.2294 28.306V30H38.6024V26.9695H39.2294V27.316C39.3321 27.1913 39.4623 27.0942 39.6199 27.0245C39.7813 26.9548 39.9518 26.92 40.1314 26.92ZM43.3732 28.4875L44.7702 30H43.9232L42.8012 28.6965V30H42.1742V25.93H42.8012V28.295L43.9012 26.9695H44.7702L43.3732 28.4875ZM45.9071 29.2465L45.2416 30.7645H44.8346L45.2251 29.2465H45.9071ZM51.9537 26.9695L51.0132 30H50.3532L49.7427 27.7615L49.1322 30H48.4722L47.5262 26.9695H48.1642L48.7967 29.406L49.4402 26.9695H50.0947L50.7107 29.395L51.3377 26.9695H51.9537ZM55.1998 28.4105C55.1998 28.5242 55.1924 28.6268 55.1778 28.7185H52.8623C52.8806 28.9605 52.9704 29.1548 53.1318 29.3015C53.2931 29.4482 53.4911 29.5215 53.7258 29.5215C54.0631 29.5215 54.3014 29.3803 54.4408 29.098H55.1173C55.0256 29.3767 54.8588 29.6058 54.6168 29.7855C54.3784 29.9615 54.0814 30.0495 53.7258 30.0495C53.4361 30.0495 53.1758 29.9853 52.9448 29.857C52.7174 29.725 52.5378 29.5417 52.4058 29.307C52.2774 29.0687 52.2133 28.7937 52.2133 28.482C52.2133 28.1703 52.2756 27.8972 52.4003 27.6625C52.5286 27.4242 52.7064 27.2408 52.9338 27.1125C53.1648 26.9842 53.4288 26.92 53.7258 26.92C54.0118 26.92 54.2666 26.9823 54.4903 27.107C54.7139 27.2317 54.8881 27.4077 55.0128 27.635C55.1374 27.8587 55.1998 28.1172 55.1998 28.4105ZM54.5453 28.2125C54.5416 27.9815 54.4591 27.7963 54.2978 27.657C54.1364 27.5177 53.9366 27.448 53.6983 27.448C53.4819 27.448 53.2968 27.5177 53.1428 27.657C52.9888 27.7927 52.8971 27.9778 52.8678 28.2125H54.5453ZM57.0365 28.471C57.0365 28.1667 57.0988 27.8972 57.2235 27.6625C57.3518 27.4278 57.5242 27.2463 57.7405 27.118C57.9605 26.986 58.2043 26.92 58.472 26.92C58.67 26.92 58.8643 26.964 59.055 27.052C59.2493 27.1363 59.4033 27.25 59.517 27.393V25.93H60.1495V30H59.517V29.5435C59.4143 29.6902 59.2713 29.8112 59.088 29.9065C58.9083 30.0018 58.7012 30.0495 58.4665 30.0495C58.2025 30.0495 57.9605 29.9835 57.7405 29.8515C57.5242 29.7158 57.3518 29.5288 57.2235 29.2905C57.0988 29.0485 57.0365 28.7753 57.0365 28.471ZM59.517 28.482C59.517 28.273 59.473 28.0915 59.385 27.9375C59.3007 27.7835 59.1888 27.6662 59.0495 27.5855C58.9102 27.5048 58.7598 27.4645 58.5985 27.4645C58.4372 27.4645 58.2868 27.5048 58.1475 27.5855C58.0082 27.6625 57.8945 27.778 57.8065 27.932C57.7222 28.0823 57.68 28.262 57.68 28.471C57.68 28.68 57.7222 28.8633 57.8065 29.021C57.8945 29.1787 58.0082 29.2997 58.1475 29.384C58.2905 29.4647 58.4408 29.505 58.5985 29.505C58.7598 29.505 58.9102 29.4647 59.0495 29.384C59.1888 29.3033 59.3007 29.186 59.385 29.032C59.473 28.8743 59.517 28.691 59.517 28.482ZM63.7505 28.4105C63.7505 28.5242 63.7432 28.6268 63.7285 28.7185H61.413C61.4314 28.9605 61.5212 29.1548 61.6825 29.3015C61.8439 29.4482 62.0419 29.5215 62.2765 29.5215C62.6139 29.5215 62.8522 29.3803 62.9915 29.098H63.668C63.5764 29.3767 63.4095 29.6058 63.1675 29.7855C62.9292 29.9615 62.6322 30.0495 62.2765 30.0495C61.9869 30.0495 61.7265 29.9853 61.4955 29.857C61.2682 29.725 61.0885 29.5417 60.9565 29.307C60.8282 29.0687 60.764 28.7937 60.764 28.482C60.764 28.1703 60.8264 27.8972 60.951 27.6625C61.0794 27.4242 61.2572 27.2408 61.4845 27.1125C61.7155 26.9842 61.9795 26.92 62.2765 26.92C62.5625 26.92 62.8174 26.9823 63.041 27.107C63.2647 27.2317 63.4389 27.4077 63.5635 27.635C63.6882 27.8587 63.7505 28.1172 63.7505 28.4105ZM63.096 28.2125C63.0924 27.9815 63.0099 27.7963 62.8485 27.657C62.6872 27.5177 62.4874 27.448 62.249 27.448C62.0327 27.448 61.8475 27.5177 61.6935 27.657C61.5395 27.7927 61.4479 27.9778 61.4185 28.2125H63.096ZM64.9946 25.93V30H64.3676V25.93H64.9946ZM66.1368 26.568C66.0231 26.568 65.9278 26.5295 65.8508 26.4525C65.7738 26.3755 65.7353 26.2802 65.7353 26.1665C65.7353 26.0528 65.7738 25.9575 65.8508 25.8805C65.9278 25.8035 66.0231 25.765 66.1368 25.765C66.2468 25.765 66.3403 25.8035 66.4173 25.8805C66.4943 25.9575 66.5328 26.0528 66.5328 26.1665C66.5328 26.2802 66.4943 26.3755 66.4173 26.4525C66.3403 26.5295 66.2468 26.568 66.1368 26.568ZM66.4448 26.9695V30H65.8178V26.9695H66.4448ZM68.4395 29.439L69.2975 26.9695H69.963L68.808 30H68.06L66.9105 26.9695H67.5815L68.4395 29.439ZM73.2144 28.4105C73.2144 28.5242 73.2071 28.6268 73.1924 28.7185H70.8769C70.8952 28.9605 70.9851 29.1548 71.1464 29.3015C71.3077 29.4482 71.5057 29.5215 71.7404 29.5215C72.0777 29.5215 72.3161 29.3803 72.4554 29.098H73.1319C73.0402 29.3767 72.8734 29.6058 72.6314 29.7855C72.3931 29.9615 72.0961 30.0495 71.7404 30.0495C71.4507 30.0495 71.1904 29.9853 70.9594 29.857C70.7321 29.725 70.5524 29.5417 70.4204 29.307C70.2921 29.0687 70.2279 28.7937 70.2279 28.482C70.2279 28.1703 70.2902 27.8972 70.4149 27.6625C70.5432 27.4242 70.7211 27.2408 70.9484 27.1125C71.1794 26.9842 71.4434 26.92 71.7404 26.92C72.0264 26.92 72.2812 26.9823 72.5049 27.107C72.7286 27.2317 72.9027 27.4077 73.0274 27.635C73.1521 27.8587 73.2144 28.1172 73.2144 28.4105ZM72.5599 28.2125C72.5562 27.9815 72.4737 27.7963 72.3124 27.657C72.1511 27.5177 71.9512 27.448 71.7129 27.448C71.4966 27.448 71.3114 27.5177 71.1574 27.657C71.0034 27.7927 70.9117 27.9778 70.8824 28.2125H72.5599ZM74.4584 27.4095C74.5501 27.2555 74.6711 27.1363 74.8214 27.052C74.9754 26.964 75.1569 26.92 75.3659 26.92V27.569H75.2064C74.9608 27.569 74.7738 27.6313 74.6454 27.756C74.5208 27.8807 74.4584 28.097 74.4584 28.405V30H73.8314V26.9695H74.4584V27.4095ZM76.1953 30.0385C76.0816 30.0385 75.9863 30 75.9093 29.923C75.8323 29.846 75.7938 29.7507 75.7938 29.637C75.7938 29.5233 75.8323 29.428 75.9093 29.351C75.9863 29.274 76.0816 29.2355 76.1953 29.2355C76.3053 29.2355 76.3988 29.274 76.4758 29.351C76.5528 29.428 76.5913 29.5233 76.5913 29.637C76.5913 29.7507 76.5528 29.846 76.4758 29.923C76.3988 30 76.3053 30.0385 76.1953 30.0385Z" fill="#060505"/>
</svg>
