<svg width="23" height="22" viewBox="0 0 23 22" fill="none" xmlns="http://www.w3.org/2000/svg">
<path d="M20.0559 5.6831L12.4934 1.54521C12.2913 1.43356 12.0642 1.375 11.8334 1.375C11.6025 1.375 11.3754 1.43356 11.1734 1.54521L3.61087 5.68482C3.3949 5.80299 3.21462 5.97698 3.08885 6.18861C2.96308 6.40024 2.89643 6.64176 2.89587 6.88795V15.107C2.89643 15.3532 2.96308 15.5947 3.08885 15.8064C3.21462 16.018 3.3949 16.192 3.61087 16.3101L11.1734 20.4497C11.3754 20.5614 11.6025 20.62 11.8334 20.62C12.0642 20.62 12.2913 20.5614 12.4934 20.4497L20.0559 16.3101C20.2718 16.192 20.4521 16.018 20.5779 15.8064C20.7037 15.5947 20.7703 15.3532 20.7709 15.107V6.88881C20.7708 6.64218 20.7043 6.40013 20.5786 6.188C20.4528 5.97587 20.2722 5.80148 20.0559 5.6831ZM11.8334 2.74834L18.7385 6.52959L16.1792 7.92951L9.27415 4.14826L11.8334 2.74834ZM11.8334 10.3108L4.9283 6.52959L7.84244 4.93373L14.7475 8.71498L11.8334 10.3108ZM19.3959 15.1105L12.5209 18.8737V11.4994L15.2709 9.99459V13.0608C15.2709 13.2432 15.3433 13.418 15.4722 13.547C15.6012 13.6759 15.776 13.7483 15.9584 13.7483C16.1407 13.7483 16.3156 13.6759 16.4445 13.547C16.5734 13.418 16.6459 13.2432 16.6459 13.0608V9.24178L19.3959 7.73701V15.107V15.1105Z" fill="url(#paint0_linear_7041_232812)"/>
<defs>
<linearGradient id="paint0_linear_7041_232812" x1="11.8334" y1="1.375" x2="11.8334" y2="29.1065" gradientUnits="userSpaceOnUse">
<stop stop-color="#F27129"/>
<stop offset="1" stop-color="#A3410A"/>
</linearGradient>
</defs>
</svg>
