<svg width="28" height="28" viewBox="0 0 28 28" fill="none" xmlns="http://www.w3.org/2000/svg">
<path d="M10.25 11.1875C10.0646 11.1875 9.88332 11.1325 9.72915 11.0295C9.57498 10.9265 9.45482 10.7801 9.38386 10.6088C9.31291 10.4375 9.29434 10.249 9.33051 10.0671C9.36669 9.88525 9.45598 9.7182 9.58709 9.58709C9.7182 9.45598 9.88525 9.36669 10.0671 9.33051C10.249 9.29434 10.4375 9.31291 10.6088 9.38386C10.7801 9.45482 10.9265 9.57498 11.0295 9.72915C11.1325 9.88332 11.1875 10.0646 11.1875 10.25C11.1875 10.4986 11.0887 10.7371 10.9129 10.9129C10.7371 11.0887 10.4986 11.1875 10.25 11.1875ZM17.75 16.8125C17.5646 16.8125 17.3833 16.8675 17.2292 16.9705C17.075 17.0735 16.9548 17.2199 16.8839 17.3912C16.8129 17.5625 16.7943 17.751 16.8305 17.9329C16.8667 18.1148 16.956 18.2818 17.0871 18.4129C17.2182 18.544 17.3852 18.6333 17.5671 18.6695C17.749 18.7057 17.9375 18.6871 18.1088 18.6161C18.2801 18.5452 18.4265 18.425 18.5295 18.2708C18.6325 18.1167 18.6875 17.9354 18.6875 17.75C18.6875 17.5014 18.5887 17.2629 18.4129 17.0871C18.2371 16.9113 17.9986 16.8125 17.75 16.8125ZM27.125 14C27.125 15.2234 26.2449 16.141 25.468 16.9508C25.0262 17.4125 24.5691 17.8883 24.3969 18.3066C24.2375 18.6898 24.2281 19.325 24.2188 19.9402C24.2012 21.084 24.1824 22.3801 23.2812 23.2812C22.3801 24.1824 21.084 24.2012 19.9402 24.2188C19.325 24.2281 18.6898 24.2375 18.3066 24.3969C17.8883 24.5691 17.4125 25.0262 16.9508 25.468C16.141 26.2449 15.2234 27.125 14 27.125C12.7766 27.125 11.859 26.2449 11.0492 25.468C10.5875 25.0262 10.1117 24.5691 9.69336 24.3969C9.31016 24.2375 8.675 24.2281 8.05977 24.2188C6.91602 24.2012 5.61992 24.1824 4.71875 23.2812C3.81758 22.3801 3.79883 21.084 3.78125 19.9402C3.77187 19.325 3.7625 18.6898 3.60312 18.3066C3.43086 17.8883 2.97383 17.4125 2.53203 16.9508C1.75508 16.141 0.875 15.2234 0.875 14C0.875 12.7766 1.75508 11.859 2.53203 11.0492C2.97383 10.5875 3.43086 10.1117 3.60312 9.69336C3.7625 9.31016 3.77187 8.675 3.78125 8.05977C3.79883 6.91602 3.81758 5.61992 4.71875 4.71875C5.61992 3.81758 6.91602 3.79883 8.05977 3.78125C8.675 3.77187 9.31016 3.7625 9.69336 3.60312C10.1117 3.43086 10.5875 2.97383 11.0492 2.53203C11.859 1.75508 12.7766 0.875 14 0.875C15.2234 0.875 16.141 1.75508 16.9508 2.53203C17.4125 2.97383 17.8883 3.43086 18.3066 3.60312C18.6898 3.7625 19.325 3.77187 19.9402 3.78125C21.084 3.79883 22.3801 3.81758 23.2812 4.71875C24.1824 5.61992 24.2012 6.91602 24.2188 8.05977C24.2281 8.675 24.2375 9.31016 24.3969 9.69336C24.5691 10.1117 25.0262 10.5875 25.468 11.0492C26.2449 11.859 27.125 12.7766 27.125 14ZM10.25 13.0625C10.8063 13.0625 11.35 12.8975 11.8125 12.5885C12.2751 12.2795 12.6355 11.8402 12.8484 11.3263C13.0613 10.8124 13.117 10.2469 13.0085 9.70131C12.8999 9.15574 12.6321 8.6546 12.2387 8.26126C11.8454 7.86793 11.3443 7.60006 10.7987 7.49154C10.2531 7.38302 9.68762 7.43872 9.1737 7.65159C8.65979 7.86446 8.22053 8.22495 7.91149 8.68746C7.60245 9.14997 7.4375 9.69374 7.4375 10.25C7.4375 10.9959 7.73382 11.7113 8.26126 12.2387C8.78871 12.7662 9.50408 13.0625 10.25 13.0625ZM19.3508 9.97578C19.4379 9.88868 19.507 9.78527 19.5541 9.67146C19.6013 9.55766 19.6255 9.43568 19.6255 9.3125C19.6255 9.18932 19.6013 9.06734 19.5541 8.95354C19.507 8.83973 19.4379 8.73632 19.3508 8.64922C19.2637 8.56212 19.1603 8.49302 19.0465 8.44588C18.9327 8.39874 18.8107 8.37448 18.6875 8.37448C18.5643 8.37448 18.4423 8.39874 18.3285 8.44588C18.2147 8.49302 18.1113 8.56212 18.0242 8.64922L8.64922 18.0242C8.56212 18.1113 8.49302 18.2147 8.44588 18.3285C8.39874 18.4423 8.37448 18.5643 8.37448 18.6875C8.37448 18.8107 8.39874 18.9327 8.44588 19.0465C8.49302 19.1603 8.56212 19.2637 8.64922 19.3508C8.82513 19.5267 9.06372 19.6255 9.3125 19.6255C9.43568 19.6255 9.55766 19.6013 9.67146 19.5541C9.78527 19.507 9.88868 19.4379 9.97578 19.3508L19.3508 9.97578ZM20.5625 17.75C20.5625 17.1937 20.3976 16.65 20.0885 16.1875C19.7795 15.7249 19.3402 15.3645 18.8263 15.1516C18.3124 14.9387 17.7469 14.883 17.2013 14.9915C16.6557 15.1001 16.1546 15.3679 15.7613 15.7613C15.3679 16.1546 15.1001 16.6557 14.9915 17.2013C14.883 17.7469 14.9387 18.3124 15.1516 18.8263C15.3645 19.3402 15.7249 19.7795 16.1875 20.0885C16.65 20.3976 17.1937 20.5625 17.75 20.5625C18.4959 20.5625 19.2113 20.2662 19.7387 19.7387C20.2662 19.2113 20.5625 18.4959 20.5625 17.75Z" fill="url(#paint0_linear_8911_86986)"/>
<defs>
<linearGradient id="paint0_linear_8911_86986" x1="14" y1="0.875" x2="14" y2="38.7005" gradientUnits="userSpaceOnUse">
<stop stop-color="#F27129"/>
<stop offset="1" stop-color="#A3410A"/>
</linearGradient>
</defs>
</svg>
