<svg width="416" height="130" viewBox="0 0 416 130" fill="none" xmlns="http://www.w3.org/2000/svg">
<path opacity="0.1" d="M109.537 33.5351L19.5388 123.53C18.6006 124.469 17.3281 124.996 16.0013 124.996C14.6745 124.996 13.4021 124.469 12.4639 123.53C11.5257 122.592 10.9986 121.32 10.9986 119.993C10.9986 118.666 11.5257 117.394 12.4639 116.456L102.463 26.4605C103.4 25.5223 104.672 24.995 105.998 24.9944C107.324 24.9938 108.596 25.5201 109.534 26.4574C110.473 27.3947 111 28.6663 111.001 29.9925C111.001 31.3187 110.475 32.5907 109.537 33.5289V33.5351ZM12.5889 58.4089C8.3695 54.1888 5.99941 48.4655 6 42.4981C6.00059 36.5306 8.3718 30.8078 12.592 26.5886C16.8122 22.3694 22.5357 19.9994 28.5033 20C34.471 20.0006 40.194 22.3717 44.4134 26.5917C48.6328 30.8118 51.0029 36.5351 51.0023 42.5025C51.0017 48.47 48.6305 54.1928 44.4103 58.412C40.1901 62.6312 34.4666 65.0012 28.4989 65.0006C22.5313 65 16.8082 62.6289 12.5889 58.4089ZM16.0013 42.5097C16.0029 44.5649 16.5113 46.588 17.4815 48.3998C18.4516 50.2116 19.8535 51.7563 21.5631 52.897C23.2727 54.0378 25.2373 54.7394 27.2828 54.9397C29.3282 55.14 31.3916 54.8329 33.29 54.0455C35.1885 53.2581 36.8635 52.0148 38.1667 50.4256C39.47 48.8364 40.3612 46.9504 40.7615 44.9345C41.1619 42.9187 41.059 40.8353 40.4619 38.8687C39.8648 36.9022 38.792 35.1132 37.3385 33.6601C35.5896 31.9119 33.3615 30.7216 30.9359 30.2399C28.5104 29.7582 25.9965 30.0068 23.7123 30.9542C21.428 31.9016 19.4761 33.5052 18.1036 35.5621C16.731 37.619 15.9994 40.0369 16.0013 42.5097ZM116 107.506C115.999 112.711 114.193 117.755 110.89 121.778C107.586 125.801 102.991 128.554 97.885 129.569C92.7794 130.583 87.4801 129.796 82.8899 127.341C78.2997 124.887 74.7026 120.916 72.7115 116.107C70.7205 111.298 70.4586 105.947 71.9706 100.966C73.4826 95.9853 76.6748 91.6828 81.0034 88.7918C85.3321 85.9007 90.5292 84.5999 95.7094 85.111C100.89 85.6221 105.732 87.9134 109.412 91.5946C111.508 93.6794 113.17 96.1592 114.3 98.8905C115.431 101.622 116.009 104.55 116 107.506ZM106 107.506C106.001 104.614 104.999 101.812 103.164 99.5761C101.33 97.3403 98.7775 95.8097 95.9412 95.2449C93.105 94.6802 90.1607 95.1164 87.6099 96.4791C85.0592 97.8418 83.0599 100.047 81.9528 102.718C80.8456 105.39 80.699 108.362 81.538 111.13C82.377 113.897 84.1497 116.288 86.554 117.895C88.9582 119.502 91.8454 120.226 94.7234 119.943C97.6015 119.66 100.292 118.388 102.338 116.343C103.502 115.186 104.425 113.808 105.054 112.292C105.683 110.775 106.004 109.148 106 107.506Z" fill="url(#paint0_linear_2_4708)"/>
<g filter="url(#filter0_d_2_4708)">
<path d="M402.2 5H13.8C12.8059 5 12 5.80589 12 6.8V19.278C12 20.7832 13.7377 21.6236 14.9176 20.689L19.4041 17.1353C20.0589 16.6166 20.9846 16.6166 21.6394 17.1353L27.9258 22.1147C28.5807 22.6334 29.5063 22.6334 30.1611 22.1147L36.4476 17.1353C37.1024 16.6166 38.028 16.6166 38.6829 17.1353L44.9693 22.1147C45.6241 22.6334 46.5498 22.6334 47.2046 22.1147L53.4911 17.1353C54.1459 16.6166 55.0715 16.6166 55.7263 17.1353L62.0128 22.1147C62.6676 22.6334 63.5932 22.6334 64.2481 22.1147L70.5345 17.1353C71.1894 16.6166 72.115 16.6166 72.7698 17.1353L79.0563 22.1147C79.7111 22.6334 80.6367 22.6334 81.2915 22.1147L87.578 17.1353C88.2328 16.6166 89.1585 16.6166 89.8133 17.1353L96.0998 22.1147C96.7546 22.6334 97.6802 22.6334 98.335 22.1147L104.621 17.1353C105.276 16.6166 106.202 16.6166 106.857 17.1353L113.143 22.1147C113.798 22.6334 114.724 22.6334 115.379 22.1147L121.665 17.1353C122.32 16.6166 123.245 16.6166 123.9 17.1353L130.187 22.1147C130.842 22.6334 131.767 22.6334 132.422 22.1147L138.708 17.1353C139.363 16.6166 140.289 16.6166 140.944 17.1353L147.23 22.1147C147.885 22.6334 148.811 22.6334 149.465 22.1147L155.752 17.1353C156.407 16.6166 157.332 16.6166 157.987 17.1353L164.274 22.1147C164.928 22.6334 165.854 22.6334 166.509 22.1147L172.795 17.1353C173.45 16.6166 174.376 16.6166 175.031 17.1353L181.317 22.1147C181.972 22.6334 182.898 22.6334 183.552 22.1147L189.839 17.1353C190.494 16.6166 191.419 16.6166 192.074 17.1353L198.361 22.1147C199.015 22.6334 199.941 22.6334 200.596 22.1147L206.882 17.1353C207.537 16.6166 208.463 16.6166 209.118 17.1353L215.404 22.1147C216.059 22.6334 216.985 22.6334 217.639 22.1147L223.926 17.1353C224.581 16.6166 225.506 16.6166 226.161 17.1353L232.448 22.1147C233.102 22.6334 234.028 22.6334 234.683 22.1147L240.969 17.1353C241.624 16.6166 242.55 16.6166 243.205 17.1353L249.491 22.1147C250.146 22.6334 251.071 22.6334 251.726 22.1147L258.013 17.1353C258.668 16.6166 259.593 16.6166 260.248 17.1353L266.535 22.1147C267.189 22.6334 268.115 22.6334 268.77 22.1147L275.056 17.1353C275.711 16.6166 276.637 16.6166 277.292 17.1353L283.578 22.1147C284.233 22.6334 285.158 22.6334 285.813 22.1147L292.1 17.1353C292.755 16.6166 293.68 16.6166 294.335 17.1353L300.621 22.1147C301.276 22.6334 302.202 22.6334 302.857 22.1147L309.143 17.1353C309.798 16.6166 310.724 16.6166 311.379 17.1353L317.665 22.1147C318.32 22.6334 319.245 22.6334 319.9 22.1147L326.187 17.1353C326.842 16.6166 327.767 16.6166 328.422 17.1353L334.708 22.1147C335.363 22.6334 336.289 22.6334 336.944 22.1147L343.23 17.1353C343.885 16.6166 344.811 16.6166 345.465 17.1353L351.752 22.1147C352.407 22.6334 353.332 22.6334 353.987 22.1147L360.274 17.1353C360.928 16.6166 361.854 16.6166 362.509 17.1353L368.795 22.1147C369.45 22.6334 370.376 22.6334 371.031 22.1147L377.317 17.1353C377.972 16.6166 378.898 16.6166 379.552 17.1353L385.839 22.1147C386.494 22.6334 387.419 22.6334 388.074 22.1147L394.361 17.1353C395.015 16.6166 395.941 16.6166 396.596 17.1353L401.082 20.689C402.262 21.6236 404 20.7832 404 19.278V6.8C404 5.80589 403.194 5 402.2 5Z" fill="#FEFEFE"/>
</g>
<defs>
<filter id="filter0_d_2_4708" x="0" y="0" width="416" height="41.5038" filterUnits="userSpaceOnUse" color-interpolation-filters="sRGB">
<feFlood flood-opacity="0" result="BackgroundImageFix"/>
<feColorMatrix in="SourceAlpha" type="matrix" values="0 0 0 0 0 0 0 0 0 0 0 0 0 0 0 0 0 0 127 0" result="hardAlpha"/>
<feOffset dy="7"/>
<feGaussianBlur stdDeviation="6"/>
<feComposite in2="hardAlpha" operator="out"/>
<feColorMatrix type="matrix" values="0 0 0 0 0 0 0 0 0 0 0 0 0 0 0 0 0 0 0.08 0"/>
<feBlend mode="normal" in2="BackgroundImageFix" result="effect1_dropShadow_2_4708"/>
<feBlend mode="normal" in="SourceGraphic" in2="effect1_dropShadow_2_4708" result="shape"/>
</filter>
<linearGradient id="paint0_linear_2_4708" x1="39.8973" y1="8.63477" x2="146.679" y2="35.8519" gradientUnits="userSpaceOnUse">
<stop stop-color="#373A60"/>
<stop offset="1" stop-color="#7178C6"/>
</linearGradient>
</defs>
</svg>
