<svg width="392" height="76" viewBox="0 0 392 76" fill="none" xmlns="http://www.w3.org/2000/svg">
<path d="M237.592 36.6467H228.746L228.53 76.2386H212.087L212.304 36.6467H206.343L206.417 23.1321H212.378L212.387 21.6093C212.422 15.0741 214.34 10.1251 218.141 6.76233C221.942 3.3361 227.496 1.62299 234.803 1.62299C236.021 1.62299 236.919 1.65471 237.495 1.71816L237.42 15.5182C234.28 15.3279 232.066 15.772 230.778 16.8507C229.49 17.9293 228.838 19.8645 228.823 22.6562L228.82 23.1321H237.666L237.592 36.6467Z" fill="white"/>
<path d="M253.692 17.612C250.807 17.612 248.44 16.7872 246.59 15.1376C244.805 13.4244 243.919 11.3306 243.932 8.85614C243.946 6.31819 244.855 4.22438 246.659 2.57472C248.527 0.861601 250.904 0.00504363 253.788 0.00504363C256.609 0.00504363 258.912 0.861601 260.697 2.57472C262.547 4.22438 263.465 6.31819 263.451 8.85614C263.438 11.3306 262.497 13.4244 260.628 15.1376C258.824 16.7872 256.512 17.612 253.692 17.612ZM261.835 23.1321L261.544 76.2386H245.102L245.392 23.1321H261.835Z" fill="white"/>
<path d="M306.445 22.561C312.727 22.561 317.716 24.5914 321.411 28.6521C325.172 32.6494 327.032 38.1694 326.994 45.2122L326.824 76.2386H310.478L310.636 47.4012C310.655 43.8481 309.741 41.0881 307.893 39.1212C306.045 37.1542 303.55 36.1708 300.409 36.1708C297.268 36.1708 294.763 37.1542 292.893 39.1212C291.023 41.0881 290.079 43.8481 290.059 47.4012L289.901 76.2386H273.459L273.75 23.1321H290.192L290.154 30.1749C291.833 27.8273 294.087 25.9873 296.914 24.6549C299.743 23.259 302.919 22.561 306.445 22.561Z" fill="white"/>
<path d="M335.126 49.5902C335.156 44.1336 336.208 39.3432 338.282 35.2191C340.42 31.0949 343.29 27.9225 346.892 25.7018C350.493 23.4811 354.506 22.3707 358.929 22.3707C362.455 22.3707 365.656 23.1004 368.532 24.5597C371.473 26.019 373.77 27.9859 375.423 30.4604L375.558 5.8106H392L391.614 76.2386H375.172L375.214 68.6248C373.662 71.1627 371.439 73.1931 368.546 74.7159C365.717 76.2386 362.412 77 358.63 77C354.207 77 350.206 75.8897 346.629 73.669C343.052 71.3848 340.217 68.1806 338.124 64.0565C336.096 59.8689 335.096 55.0468 335.126 49.5902ZM375.318 49.6854C375.34 45.6246 374.204 42.4205 371.909 40.0729C369.678 37.7253 366.928 36.5515 363.659 36.5515C360.39 36.5515 357.595 37.7253 355.274 40.0729C353.018 42.357 351.879 45.5295 351.857 49.5902C351.835 53.6509 352.939 56.8868 355.169 59.2978C357.464 61.6454 360.246 62.8192 363.515 62.8192C366.784 62.8192 369.547 61.6454 371.803 59.2978C374.124 56.9502 375.295 53.7461 375.318 49.6854Z" fill="white"/>
<path d="M44.3509 9.42271L44.2716 22.4622H16.7701L16.6845 36.5487H37.2625L37.1855 49.2075H16.6075L16.4432 76.2383H0L0.406233 9.42271H44.3509Z" fill="#DADADA"/>
<path d="M61.2131 17.6081C58.3283 17.6081 55.9614 16.7832 54.1123 15.1334C52.3278 13.4202 51.443 11.3263 51.4581 8.85164C51.4735 6.31353 52.3837 4.2196 54.1887 2.56983C56.0582 0.85661 58.4354 0 61.3201 0C64.1408 0 66.4434 0.85661 68.2279 2.56983C70.077 4.2196 70.9938 6.31353 70.9784 8.85164C70.9633 11.3263 70.021 13.4202 68.1516 15.1334C66.3466 16.7832 64.0337 17.6081 61.2131 17.6081ZM69.353 23.1285L69.0301 76.2383H52.5869L52.9098 23.1285H69.353Z" fill="#DADADA"/>
<path d="M97.6586 31.9801C99.5995 29.0613 102.017 26.777 104.912 25.1272C107.807 23.414 111.018 22.5574 114.544 22.5574L114.439 39.7848H109.919C105.817 39.7848 102.734 40.6731 100.672 42.4498C98.6102 44.163 97.566 47.2087 97.5394 51.5869L97.3895 76.2383H80.9463L81.2692 23.1285H97.7124L97.6586 31.9801Z" fill="#DADADA"/>
<path d="M143.9 76.9997C139.221 76.9997 135.058 76.2065 131.414 74.6202C127.77 73.0339 124.898 70.8765 122.799 68.1481C120.701 65.3561 119.534 62.247 119.298 58.8205H135.549C135.73 60.6607 136.586 62.1518 138.118 63.2939C139.649 64.4361 141.537 65.0072 143.781 65.0072C145.832 65.0072 147.405 64.6264 148.5 63.865C149.658 63.0401 150.242 61.9932 150.25 60.7241C150.259 59.2012 149.464 58.0908 147.866 57.3928C146.268 56.6314 143.677 55.8065 140.092 54.9182C136.251 54.0299 133.051 53.1098 130.493 52.158C127.935 51.1428 125.733 49.5882 123.886 47.4942C122.04 45.3369 121.128 42.4498 121.15 38.833C121.169 35.7873 122.019 33.0271 123.701 30.5524C125.447 28.0143 127.959 26.0156 131.238 24.5561C134.58 23.0967 138.527 22.367 143.079 22.367C149.81 22.367 155.088 24.0168 158.915 27.3163C162.805 30.6159 165.022 34.9941 165.566 40.451H150.373C150.128 38.6109 149.303 37.1515 147.899 36.0728C146.56 34.9941 144.768 34.4547 142.524 34.4547C140.601 34.4547 139.124 34.8355 138.094 35.5969C137.064 36.2949 136.545 37.2784 136.537 38.5474C136.528 40.0703 137.323 41.2124 138.921 41.9739C140.583 42.7353 143.142 43.4967 146.599 44.2582C150.568 45.2734 153.799 46.2886 156.293 47.3039C158.787 48.2557 160.957 49.842 162.803 52.0628C164.713 54.2202 165.689 57.139 165.731 60.8193C165.712 63.9285 164.797 66.7204 162.987 69.195C161.242 71.6062 158.698 73.5098 155.356 74.9058C152.078 76.3017 148.259 76.9997 143.9 76.9997Z" fill="#DADADA"/>
<path d="M205.686 62.4373L205.602 76.2383H197.236C191.274 76.2383 186.635 74.8106 183.319 71.9552C180.004 69.0364 178.366 64.3092 178.405 57.7736L178.534 36.6439H171.995L172.077 23.1285H178.616L178.695 10.1841H195.138L195.059 23.1285H205.829L205.747 36.6439H194.977L194.847 57.9639C194.838 59.5502 195.215 60.6924 195.98 61.3904C196.745 62.0883 198.025 62.4373 199.82 62.4373H205.686Z" fill="#DADADA"/>
</svg>
