<svg width="123" height="60" viewBox="0 0 123 60" fill="none" xmlns="http://www.w3.org/2000/svg">
<g filter="url(#filter0_d_30_21820)">
<path d="M32.568 22.52H27.43V25.11H31.966V26.93H27.43V30.5H25.162V20.7H32.568V22.52ZM35.6047 21.918C34.7927 21.918 34.2467 21.386 34.2467 20.7C34.2467 20.014 34.7927 19.482 35.6047 19.482C36.4167 19.482 36.9627 19.986 36.9627 20.658C36.9627 21.386 36.4167 21.918 35.6047 21.918ZM34.5127 30.5V22.968H36.6967V30.5H34.5127ZM41.5096 23.962C42.0416 23.234 42.9376 22.856 44.0996 22.856V24.872C43.9176 24.858 43.7776 24.844 43.6096 24.844C42.4056 24.844 41.6076 25.502 41.6076 26.944V30.5H39.4236V22.968H41.5096V23.962ZM48.6596 30.612C47.3856 30.612 46.0976 30.262 45.3976 29.8L46.1256 28.232C46.7976 28.666 47.8196 28.96 48.7436 28.96C49.7516 28.96 50.1296 28.694 50.1296 28.274C50.1296 27.042 45.5796 28.302 45.5796 25.292C45.5796 23.864 46.8676 22.856 49.0656 22.856C50.1016 22.856 51.2496 23.094 51.9636 23.514L51.2356 25.068C50.4936 24.648 49.7516 24.508 49.0656 24.508C48.0856 24.508 47.6656 24.816 47.6656 25.208C47.6656 26.496 52.2156 25.25 52.2156 28.218C52.2156 29.618 50.9136 30.612 48.6596 30.612ZM58.5331 28.596L59.1211 30.136C58.6731 30.458 58.0151 30.612 57.3431 30.612C55.5651 30.612 54.5291 29.702 54.5291 27.91V24.816H53.3671V23.136H54.5291V21.302H56.7131V23.136H58.5891V24.816H56.7131V27.882C56.7131 28.526 57.0631 28.876 57.6511 28.876C57.9731 28.876 58.2951 28.778 58.5331 28.596Z" fill="#636363"/>
<path d="M68.6071 22.52H63.4691V25.11H68.0051V26.93H63.4691V30.5H61.2011V20.7H68.6071V22.52ZM74.0811 30.612C71.6871 30.612 69.9371 29.002 69.9371 26.734C69.9371 24.466 71.6871 22.856 74.0811 22.856C76.4751 22.856 78.2111 24.466 78.2111 26.734C78.2111 29.002 76.4751 30.612 74.0811 30.612ZM74.0811 28.82C75.1731 28.82 75.9991 28.036 75.9991 26.734C75.9991 25.432 75.1731 24.648 74.0811 24.648C72.9891 24.648 72.1491 25.432 72.1491 26.734C72.1491 28.036 72.9891 28.82 74.0811 28.82ZM83.9549 30.612C81.5609 30.612 79.8109 29.002 79.8109 26.734C79.8109 24.466 81.5609 22.856 83.9549 22.856C86.3489 22.856 88.0849 24.466 88.0849 26.734C88.0849 29.002 86.3489 30.612 83.9549 30.612ZM83.9549 28.82C85.0469 28.82 85.8729 28.036 85.8729 26.734C85.8729 25.432 85.0469 24.648 83.9549 24.648C82.8629 24.648 82.0229 25.432 82.0229 26.734C82.0229 28.036 82.8629 28.82 83.9549 28.82ZM95.7327 20.112H97.9167V30.5H95.8307V29.632C95.2847 30.29 94.4867 30.612 93.4787 30.612C91.3507 30.612 89.7127 29.1 89.7127 26.734C89.7127 24.368 91.3507 22.856 93.4787 22.856C94.4027 22.856 95.1867 23.15 95.7327 23.766V20.112ZM93.8567 28.82C94.9347 28.82 95.7747 28.036 95.7747 26.734C95.7747 25.432 94.9347 24.648 93.8567 24.648C92.7647 24.648 91.9247 25.432 91.9247 26.734C91.9247 28.036 92.7647 28.82 93.8567 28.82Z" fill="url(#paint0_linear_30_21820)"/>
</g>
<defs>
<filter id="filter0_d_30_21820" x="0.162109" y="-1.51953" width="122.755" height="61.1328" filterUnits="userSpaceOnUse" color-interpolation-filters="sRGB">
<feFlood flood-opacity="0" result="BackgroundImageFix"/>
<feColorMatrix in="SourceAlpha" type="matrix" values="0 0 0 0 0 0 0 0 0 0 0 0 0 0 0 0 0 0 127 0" result="hardAlpha"/>
<feOffset dy="4"/>
<feGaussianBlur stdDeviation="12.5"/>
<feComposite in2="hardAlpha" operator="out"/>
<feColorMatrix type="matrix" values="0 0 0 0 1 0 0 0 0 1 0 0 0 0 1 0 0 0 0.25 0"/>
<feBlend mode="normal" in2="BackgroundImageFix" result="effect1_dropShadow_30_21820"/>
<feBlend mode="normal" in="SourceGraphic" in2="effect1_dropShadow_30_21820" result="shape"/>
</filter>
<linearGradient id="paint0_linear_30_21820" x1="47.1118" y1="14.7436" x2="81.3519" y2="53.2462" gradientUnits="userSpaceOnUse">
<stop stop-color="#373A60"/>
<stop offset="1" stop-color="#7178C6"/>
</linearGradient>
</defs>
</svg>
