<svg width="125" height="63" viewBox="0 0 125 63" fill="none" xmlns="http://www.w3.org/2000/svg">
<g filter="url(#filter0_d_30_21756)">
<path d="M32.568 22.52H27.43V25.11H31.966V26.93H27.43V30.5H25.162V20.7H32.568V22.52ZM35.6047 21.918C34.7927 21.918 34.2467 21.386 34.2467 20.7C34.2467 20.014 34.7927 19.482 35.6047 19.482C36.4167 19.482 36.9627 19.986 36.9627 20.658C36.9627 21.386 36.4167 21.918 35.6047 21.918ZM34.5127 30.5V22.968H36.6967V30.5H34.5127ZM41.5096 23.962C42.0416 23.234 42.9376 22.856 44.0996 22.856V24.872C43.9176 24.858 43.7776 24.844 43.6096 24.844C42.4056 24.844 41.6076 25.502 41.6076 26.944V30.5H39.4236V22.968H41.5096V23.962ZM48.6596 30.612C47.3856 30.612 46.0976 30.262 45.3976 29.8L46.1256 28.232C46.7976 28.666 47.8196 28.96 48.7436 28.96C49.7516 28.96 50.1296 28.694 50.1296 28.274C50.1296 27.042 45.5796 28.302 45.5796 25.292C45.5796 23.864 46.8676 22.856 49.0656 22.856C50.1016 22.856 51.2496 23.094 51.9636 23.514L51.2356 25.068C50.4936 24.648 49.7516 24.508 49.0656 24.508C48.0856 24.508 47.6656 24.816 47.6656 25.208C47.6656 26.496 52.2156 25.25 52.2156 28.218C52.2156 29.618 50.9136 30.612 48.6596 30.612ZM58.5331 28.596L59.1211 30.136C58.6731 30.458 58.0151 30.612 57.3431 30.612C55.5651 30.612 54.5291 29.702 54.5291 27.91V24.816H53.3671V23.136H54.5291V21.302H56.7131V23.136H58.5891V24.816H56.7131V27.882C56.7131 28.526 57.0631 28.876 57.6511 28.876C57.9731 28.876 58.2951 28.778 58.5331 28.596Z" fill="#636363"/>
<path d="M64.4211 30.668C62.8671 30.668 61.2991 30.206 60.4311 29.534L61.2011 27.826C62.0271 28.428 63.2591 28.848 64.4351 28.848C65.7791 28.848 66.3251 28.4 66.3251 27.798C66.3251 25.964 60.6271 27.224 60.6271 23.584C60.6271 21.918 61.9711 20.532 64.7571 20.532C65.9891 20.532 67.2491 20.826 68.1591 21.4L67.4591 23.122C66.5491 22.604 65.6111 22.352 64.7431 22.352C63.3991 22.352 62.8811 22.856 62.8811 23.472C62.8811 25.278 68.5791 24.032 68.5791 27.63C68.5791 29.268 67.2211 30.668 64.4211 30.668ZM75.2528 22.856C77.0308 22.856 78.3748 23.892 78.3748 26.188V30.5H76.1908V26.524C76.1908 25.306 75.6308 24.746 74.6648 24.746C73.6148 24.746 72.8588 25.39 72.8588 26.776V30.5H70.6748V20.112H72.8588V23.752C73.4468 23.164 74.2868 22.856 75.2528 22.856ZM84.7205 30.612C82.3265 30.612 80.5765 29.002 80.5765 26.734C80.5765 24.466 82.3265 22.856 84.7205 22.856C87.1145 22.856 88.8505 24.466 88.8505 26.734C88.8505 29.002 87.1145 30.612 84.7205 30.612ZM84.7205 28.82C85.8125 28.82 86.6385 28.036 86.6385 26.734C86.6385 25.432 85.8125 24.648 84.7205 24.648C83.6285 24.648 82.7885 25.432 82.7885 26.734C82.7885 28.036 83.6285 28.82 84.7205 28.82ZM95.4623 22.856C97.5763 22.856 99.2143 24.368 99.2143 26.734C99.2143 29.1 97.5763 30.612 95.4623 30.612C94.5243 30.612 93.7543 30.318 93.1943 29.702V33.216H91.0103V22.968H93.0963V23.836C93.6423 23.178 94.4543 22.856 95.4623 22.856ZM95.0843 28.82C96.1763 28.82 97.0023 28.036 97.0023 26.734C97.0023 25.432 96.1763 24.648 95.0843 24.648C93.9923 24.648 93.1663 25.432 93.1663 26.734C93.1663 28.036 93.9923 28.82 95.0843 28.82Z" fill="#2C48BB"/>
</g>
<defs>
<filter id="filter0_d_30_21756" x="0.162109" y="-1.51953" width="124.052" height="63.7344" filterUnits="userSpaceOnUse" color-interpolation-filters="sRGB">
<feFlood flood-opacity="0" result="BackgroundImageFix"/>
<feColorMatrix in="SourceAlpha" type="matrix" values="0 0 0 0 0 0 0 0 0 0 0 0 0 0 0 0 0 0 127 0" result="hardAlpha"/>
<feOffset dy="4"/>
<feGaussianBlur stdDeviation="12.5"/>
<feComposite in2="hardAlpha" operator="out"/>
<feColorMatrix type="matrix" values="0 0 0 0 1 0 0 0 0 1 0 0 0 0 1 0 0 0 0.25 0"/>
<feBlend mode="normal" in2="BackgroundImageFix" result="effect1_dropShadow_30_21756"/>
<feBlend mode="normal" in="SourceGraphic" in2="effect1_dropShadow_30_21756" result="shape"/>
</filter>
</defs>
</svg>
