<svg width="122" height="60" viewBox="0 0 122 60" fill="none" xmlns="http://www.w3.org/2000/svg">
<g filter="url(#filter0_d_30_21725)">
<path d="M32.568 22.52H27.43V25.11H31.966V26.93H27.43V30.5H25.162V20.7H32.568V22.52ZM35.6047 21.918C34.7927 21.918 34.2467 21.386 34.2467 20.7C34.2467 20.014 34.7927 19.482 35.6047 19.482C36.4167 19.482 36.9627 19.986 36.9627 20.658C36.9627 21.386 36.4167 21.918 35.6047 21.918ZM34.5127 30.5V22.968H36.6967V30.5H34.5127ZM41.5096 23.962C42.0416 23.234 42.9376 22.856 44.0996 22.856V24.872C43.9176 24.858 43.7776 24.844 43.6096 24.844C42.4056 24.844 41.6076 25.502 41.6076 26.944V30.5H39.4236V22.968H41.5096V23.962ZM48.6596 30.612C47.3856 30.612 46.0976 30.262 45.3976 29.8L46.1256 28.232C46.7976 28.666 47.8196 28.96 48.7436 28.96C49.7516 28.96 50.1296 28.694 50.1296 28.274C50.1296 27.042 45.5796 28.302 45.5796 25.292C45.5796 23.864 46.8676 22.856 49.0656 22.856C50.1016 22.856 51.2496 23.094 51.9636 23.514L51.2356 25.068C50.4936 24.648 49.7516 24.508 49.0656 24.508C48.0856 24.508 47.6656 24.816 47.6656 25.208C47.6656 26.496 52.2156 25.25 52.2156 28.218C52.2156 29.618 50.9136 30.612 48.6596 30.612ZM58.5331 28.596L59.1211 30.136C58.6731 30.458 58.0151 30.612 57.3431 30.612C55.5651 30.612 54.5291 29.702 54.5291 27.91V24.816H53.3671V23.136H54.5291V21.302H56.7131V23.136H58.5891V24.816H56.7131V27.882C56.7131 28.526 57.0631 28.876 57.6511 28.876C57.9731 28.876 58.2951 28.778 58.5331 28.596Z" fill="#060505"/>
<path d="M72.2471 30.5H70.1191L70.1051 24.62L67.2211 29.464H66.1991L63.3291 24.746V30.5H61.2011V20.7H63.0771L66.7451 26.79L70.3571 20.7H72.2191L72.2471 30.5ZM78.1562 22.856C80.4522 22.856 81.7822 23.92 81.7822 26.202V30.5H79.7382V29.562C79.3322 30.248 78.5482 30.612 77.4422 30.612C75.6782 30.612 74.6282 29.632 74.6282 28.33C74.6282 27 75.5662 26.076 77.8622 26.076H79.5982C79.5982 25.138 79.0382 24.592 77.8622 24.592C77.0642 24.592 76.2382 24.858 75.6922 25.292L74.9082 23.766C75.7342 23.178 76.9522 22.856 78.1562 22.856ZM77.9882 29.142C78.7162 29.142 79.3462 28.806 79.5982 28.12V27.35H78.1002C77.0782 27.35 76.7562 27.728 76.7562 28.232C76.7562 28.778 77.2182 29.142 77.9882 29.142ZM86.5448 23.962C87.0768 23.234 87.9728 22.856 89.1348 22.856V24.872C88.9528 24.858 88.8128 24.844 88.6448 24.844C87.4408 24.844 86.6428 25.502 86.6428 26.944V30.5H84.4588V22.968H86.5448V23.962ZM95.6632 28.596L96.2512 30.136C95.8032 30.458 95.1452 30.612 94.4732 30.612C92.6952 30.612 91.6592 29.702 91.6592 27.91V24.816H90.4972V23.136H91.6592V21.302H93.8432V23.136H95.7192V24.816H93.8432V27.882C93.8432 28.526 94.1932 28.876 94.7812 28.876C95.1032 28.876 95.4252 28.778 95.6632 28.596Z" fill="url(#paint0_linear_30_21725)"/>
</g>
<defs>
<filter id="filter0_d_30_21725" x="0.162109" y="-1.51953" width="121.089" height="61.1328" filterUnits="userSpaceOnUse" color-interpolation-filters="sRGB">
<feFlood flood-opacity="0" result="BackgroundImageFix"/>
<feColorMatrix in="SourceAlpha" type="matrix" values="0 0 0 0 0 0 0 0 0 0 0 0 0 0 0 0 0 0 127 0" result="hardAlpha"/>
<feOffset dy="4"/>
<feGaussianBlur stdDeviation="12.5"/>
<feComposite in2="hardAlpha" operator="out"/>
<feColorMatrix type="matrix" values="0 0 0 0 1 0 0 0 0 1 0 0 0 0 1 0 0 0 0.25 0"/>
<feBlend mode="normal" in2="BackgroundImageFix" result="effect1_dropShadow_30_21725"/>
<feBlend mode="normal" in="SourceGraphic" in2="effect1_dropShadow_30_21725" result="shape"/>
</filter>
<linearGradient id="paint0_linear_30_21725" x1="60.5" y1="16.5" x2="60.5" y2="40.9965" gradientUnits="userSpaceOnUse">
<stop stop-color="#F27129"/>
<stop offset="1" stop-color="#A3410A"/>
</linearGradient>
</defs>
</svg>
