<svg width="17" height="15" viewBox="0 0 17 15" fill="none" xmlns="http://www.w3.org/2000/svg">
<path d="M1.13333 6.36553H2.83333V10.8989H1.7C1.54971 10.8989 1.40558 10.9586 1.29931 11.0648C1.19304 11.1711 1.13333 11.3152 1.13333 11.4655C1.13333 11.6158 1.19304 11.76 1.29931 11.8662C1.40558 11.9725 1.54971 12.0322 1.7 12.0322H15.3C15.4503 12.0322 15.5944 11.9725 15.7007 11.8662C15.807 11.76 15.8667 11.6158 15.8667 11.4655C15.8667 11.3152 15.807 11.1711 15.7007 11.0648C15.5944 10.9586 15.4503 10.8989 15.3 10.8989H14.1667V6.36553H15.8667C15.99 6.36541 16.1099 6.32507 16.2082 6.25065C16.3065 6.17623 16.3778 6.07177 16.4114 5.95313C16.4449 5.83449 16.4389 5.70814 16.3941 5.59325C16.3494 5.47836 16.2684 5.38119 16.1635 5.31649L8.79679 0.783158C8.70753 0.728275 8.60479 0.699219 8.5 0.699219C8.39521 0.699219 8.29247 0.728275 8.20321 0.783158L0.836542 5.31649C0.731586 5.38119 0.650597 5.47836 0.605859 5.59325C0.561121 5.70814 0.555076 5.83449 0.588641 5.95313C0.622206 6.07177 0.693549 6.17623 0.791848 6.25065C0.890147 6.32507 1.01004 6.36541 1.13333 6.36553ZM3.96667 6.36553H6.23333V10.8989H3.96667V6.36553ZM9.63333 6.36553V10.8989H7.36667V6.36553H9.63333ZM13.0333 10.8989H10.7667V6.36553H13.0333V10.8989ZM8.5 1.93066L13.8649 5.2322H3.13508L8.5 1.93066ZM17 13.7322C17 13.8825 16.9403 14.0266 16.834 14.1329C16.7278 14.2392 16.5836 14.2989 16.4333 14.2989H0.566667C0.416377 14.2989 0.272243 14.2392 0.165973 14.1329C0.0597022 14.0266 0 13.8825 0 13.7322C0 13.5819 0.0597022 13.4378 0.165973 13.3315C0.272243 13.2252 0.416377 13.1655 0.566667 13.1655H16.4333C16.5836 13.1655 16.7278 13.2252 16.834 13.3315C16.9403 13.4378 17 13.5819 17 13.7322Z" fill="#636363"/>
</svg>
