<svg width="17" height="15" viewBox="0 0 17 15" fill="none" xmlns="http://www.w3.org/2000/svg">
<path d="M15.5757 12.2691C15.9417 11.9047 16.191 11.4403 16.2922 10.9345C16.3933 10.4288 16.3417 9.90456 16.1438 9.42809C15.946 8.95163 15.6109 8.54436 15.1808 8.25781C14.7507 7.97126 14.245 7.81831 13.7277 7.81831C13.2104 7.81831 12.7048 7.97126 12.2747 8.25781C11.8446 8.54436 11.5094 8.95163 11.3116 9.42809C11.1138 9.90456 11.0622 10.4288 11.1633 10.9345C11.2644 11.4403 11.5138 11.9047 11.8797 12.2691C11.1923 12.7063 10.6936 13.3839 10.4816 14.1687C10.437 14.3357 10.4607 14.5136 10.5476 14.6631C10.6345 14.8127 10.7774 14.9217 10.9449 14.9662C10.9999 14.9807 11.0564 14.988 11.1133 14.9882C11.2574 14.9881 11.3975 14.9406 11.5118 14.8529C11.626 14.7653 11.708 14.6424 11.7449 14.5035C11.9762 13.6376 12.7917 13.0332 13.7281 13.0332C14.6646 13.0332 15.4801 13.6376 15.7114 14.5035C15.7321 14.5877 15.7694 14.6669 15.8211 14.7365C15.8729 14.8061 15.9381 14.8647 16.0128 14.9089C16.0876 14.953 16.1704 14.9819 16.2565 14.9938C16.3426 15.0057 16.4302 15.0004 16.5142 14.9781C16.5982 14.9559 16.6769 14.9171 16.7457 14.8642C16.8145 14.8112 16.8721 14.7452 16.9149 14.6698C16.9578 14.5944 16.9852 14.5113 16.9954 14.4253C17.0057 14.3392 16.9986 14.252 16.9747 14.1687C16.7624 13.3837 16.2635 12.7062 15.5757 12.2691ZM13.7281 9.12325C13.9867 9.12325 14.2395 9.19969 14.4545 9.3429C14.6695 9.48611 14.8371 9.68966 14.9361 9.92781C15.035 10.166 15.0609 10.428 15.0105 10.6808C14.96 10.9337 14.8355 11.1659 14.6526 11.3482C14.4698 11.5304 14.2368 11.6546 13.9832 11.7048C13.7296 11.7551 13.4667 11.7293 13.2278 11.6307C12.9889 11.532 12.7847 11.365 12.641 11.1507C12.4974 10.9363 12.4207 10.6843 12.4207 10.4266C12.4207 10.0809 12.5584 9.7494 12.8036 9.50498C13.0488 9.26056 13.3814 9.12325 13.7281 9.12325ZM16.9967 3.2583V5.86494C16.9967 6.03778 16.9279 6.20353 16.8053 6.32574C16.6827 6.44795 16.5164 6.5166 16.343 6.5166C16.1696 6.5166 16.0034 6.44795 15.8808 6.32574C15.7582 6.20353 15.6893 6.03778 15.6893 5.86494V3.2583H8.71655C8.43377 3.2576 8.15873 3.16621 7.93209 2.99764L5.66531 1.30332H1.30744V12.3815H7.84465C8.01803 12.3815 8.18431 12.4502 8.3069 12.5724C8.4295 12.6946 8.49837 12.8604 8.49837 13.0332C8.49837 13.206 8.4295 13.3718 8.3069 13.494C8.18431 13.6162 8.01803 13.6849 7.84465 13.6849H1.30744C0.960687 13.6849 0.628134 13.5476 0.382941 13.3031C0.137748 13.0587 0 12.7272 0 12.3815V1.30332C0 0.957659 0.137748 0.626154 0.382941 0.381734C0.628134 0.137314 0.960687 0 1.30744 0H5.66531C5.94809 0.000699182 6.22313 0.0920921 6.44977 0.260664L8.71655 1.95498H15.6893C16.0361 1.95498 16.3686 2.0923 16.6138 2.33672C16.859 2.58114 16.9967 2.91264 16.9967 3.2583Z" fill="#636363"/>
</svg>
