<svg width="13" height="15" viewBox="0 0 13 15" fill="none" xmlns="http://www.w3.org/2000/svg">
<path d="M3.14039 1.62C3.14039 1.84152 3.0747 2.05806 2.95164 2.24224C2.82857 2.42642 2.65365 2.56998 2.449 2.65475C2.24434 2.73952 2.01915 2.7617 1.80189 2.71848C1.58463 2.67526 1.38507 2.56859 1.22843 2.41196C1.0718 2.25533 0.965127 2.05576 0.921912 1.8385C0.878696 1.62124 0.900876 1.39605 0.985646 1.19139C1.07042 0.986742 1.21397 0.811822 1.39815 0.688755C1.58234 0.565688 1.79888 0.500001 2.02039 0.500001C2.31743 0.500001 2.60231 0.618 2.81235 0.828041C3.02239 1.03808 3.14039 1.32296 3.14039 1.62ZM6.50039 0.500001C6.27888 0.500001 6.06234 0.565688 5.87815 0.688755C5.69397 0.811822 5.55042 0.986742 5.46565 1.19139C5.38088 1.39605 5.3587 1.62124 5.40191 1.8385C5.44513 2.05576 5.5518 2.25533 5.70843 2.41196C5.86507 2.56859 6.06463 2.67526 6.28189 2.71848C6.49915 2.7617 6.72434 2.73952 6.929 2.65475C7.13365 2.56998 7.30857 2.42642 7.43164 2.24224C7.5547 2.05806 7.62039 1.84152 7.62039 1.62C7.62039 1.32296 7.50239 1.03808 7.29235 0.828041C7.08231 0.618 6.79743 0.500001 6.50039 0.500001ZM10.9804 2.74C11.2019 2.74 11.4184 2.67431 11.6026 2.55125C11.7868 2.42818 11.9304 2.25326 12.0151 2.04861C12.0999 1.84395 12.1221 1.61876 12.0789 1.4015C12.0357 1.18424 11.929 0.984676 11.7724 0.828041C11.6157 0.671406 11.4162 0.564736 11.1989 0.521521C10.9816 0.478306 10.7564 0.500485 10.5518 0.585255C10.3471 0.670026 10.1722 0.813579 10.0491 0.997762C9.92608 1.18195 9.86039 1.39849 9.86039 1.62C9.86039 1.91704 9.97839 2.20192 10.1884 2.41196C10.3985 2.622 10.6833 2.74 10.9804 2.74ZM2.02039 4.42C1.79888 4.42 1.58234 4.48569 1.39815 4.60875C1.21397 4.73182 1.07042 4.90674 0.985646 5.11139C0.900876 5.31605 0.878696 5.54124 0.921912 5.7585C0.965127 5.97576 1.0718 6.17532 1.22843 6.33196C1.38507 6.48859 1.58463 6.59526 1.80189 6.63848C2.01915 6.68169 2.24434 6.65952 2.449 6.57475C2.65365 6.48997 2.82857 6.34642 2.95164 6.16224C3.0747 5.97806 3.14039 5.76152 3.14039 5.54C3.14039 5.24296 3.02239 4.95808 2.81235 4.74804C2.60231 4.538 2.31743 4.42 2.02039 4.42ZM6.50039 4.42C6.27888 4.42 6.06234 4.48569 5.87815 4.60875C5.69397 4.73182 5.55042 4.90674 5.46565 5.11139C5.38088 5.31605 5.3587 5.54124 5.40191 5.7585C5.44513 5.97576 5.5518 6.17532 5.70843 6.33196C5.86507 6.48859 6.06463 6.59526 6.28189 6.63848C6.49915 6.68169 6.72434 6.65952 6.929 6.57475C7.13365 6.48997 7.30857 6.34642 7.43164 6.16224C7.5547 5.97806 7.62039 5.76152 7.62039 5.54C7.62039 5.24296 7.50239 4.95808 7.29235 4.74804C7.08231 4.538 6.79743 4.42 6.50039 4.42ZM10.9804 4.42C10.7589 4.42 10.5423 4.48569 10.3582 4.60875C10.174 4.73182 10.0304 4.90674 9.94565 5.11139C9.86088 5.31605 9.8387 5.54124 9.88191 5.7585C9.92513 5.97576 10.0318 6.17532 10.1884 6.33196C10.3451 6.48859 10.5446 6.59526 10.7619 6.63848C10.9791 6.68169 11.2043 6.65952 11.409 6.57475C11.6136 6.48997 11.7886 6.34642 11.9116 6.16224C12.0347 5.97806 12.1004 5.76152 12.1004 5.54C12.1004 5.24296 11.9824 4.95808 11.7724 4.74804C11.5623 4.538 11.2774 4.42 10.9804 4.42ZM2.02039 8.34C1.79888 8.34 1.58234 8.40569 1.39815 8.52875C1.21397 8.65182 1.07042 8.82674 0.985646 9.03139C0.900876 9.23605 0.878696 9.46124 0.921912 9.6785C0.965127 9.89576 1.0718 10.0953 1.22843 10.252C1.38507 10.4086 1.58463 10.5153 1.80189 10.5585C2.01915 10.6017 2.24434 10.5795 2.449 10.4947C2.65365 10.41 2.82857 10.2664 2.95164 10.0822C3.0747 9.89806 3.14039 9.68151 3.14039 9.46C3.14039 9.16296 3.02239 8.87808 2.81235 8.66804C2.60231 8.458 2.31743 8.34 2.02039 8.34ZM6.50039 8.34C6.27888 8.34 6.06234 8.40569 5.87815 8.52875C5.69397 8.65182 5.55042 8.82674 5.46565 9.03139C5.38088 9.23605 5.3587 9.46124 5.40191 9.6785C5.44513 9.89576 5.5518 10.0953 5.70843 10.252C5.86507 10.4086 6.06463 10.5153 6.28189 10.5585C6.49915 10.6017 6.72434 10.5795 6.929 10.4947C7.13365 10.41 7.30857 10.2664 7.43164 10.0822C7.5547 9.89806 7.62039 9.68151 7.62039 9.46C7.62039 9.16296 7.50239 8.87808 7.29235 8.66804C7.08231 8.458 6.79743 8.34 6.50039 8.34ZM6.50039 12.26C6.27888 12.26 6.06234 12.3257 5.87815 12.4488C5.69397 12.5718 5.55042 12.7467 5.46565 12.9514C5.38088 13.156 5.3587 13.3812 5.40191 13.5985C5.44513 13.8158 5.5518 14.0153 5.70843 14.172C5.86507 14.3286 6.06463 14.4353 6.28189 14.4785C6.49915 14.5217 6.72434 14.4995 6.929 14.4147C7.13365 14.33 7.30857 14.1864 7.43164 14.0022C7.5547 13.8181 7.62039 13.6015 7.62039 13.38C7.62039 13.083 7.50239 12.7981 7.29235 12.588C7.08231 12.378 6.79743 12.26 6.50039 12.26ZM10.9804 8.34C10.7589 8.34 10.5423 8.40569 10.3582 8.52875C10.174 8.65182 10.0304 8.82674 9.94565 9.03139C9.86088 9.23605 9.8387 9.46124 9.88191 9.6785C9.92513 9.89576 10.0318 10.0953 10.1884 10.252C10.3451 10.4086 10.5446 10.5153 10.7619 10.5585C10.9791 10.6017 11.2043 10.5795 11.409 10.4947C11.6136 10.41 11.7886 10.2664 11.9116 10.0822C12.0347 9.89806 12.1004 9.68151 12.1004 9.46C12.1004 9.16296 11.9824 8.87808 11.7724 8.66804C11.5623 8.458 11.2774 8.34 10.9804 8.34Z" fill="#636363"/>
</svg>
