<svg width="19" height="17" viewBox="0 0 19 17" fill="none" xmlns="http://www.w3.org/2000/svg">
<path d="M18.1673 5.83333C18.1677 5.77135 18.1593 5.70963 18.1423 5.65L16.9465 1.46667C16.8661 1.1891 16.6981 0.944969 16.4676 0.770745C16.237 0.59652 15.9563 0.501544 15.6673 0.5H3.33398C3.04501 0.501544 2.7643 0.59652 2.53375 0.770745C2.3032 0.944969 2.13519 1.1891 2.05482 1.46667L0.859818 5.65C0.842603 5.70959 0.833906 5.77131 0.833985 5.83333V7.16667C0.833985 7.68415 0.954468 8.19453 1.18589 8.65738C1.41732 9.12023 1.75333 9.52284 2.16732 9.83333V15.8333C2.16732 16.0101 2.23756 16.1797 2.36258 16.3047C2.4876 16.4298 2.65717 16.5 2.83398 16.5H16.1673C16.3441 16.5 16.5137 16.4298 16.6387 16.3047C16.7637 16.1797 16.834 16.0101 16.834 15.8333V9.83333C17.248 9.52284 17.584 9.12023 17.8154 8.65738C18.0468 8.19453 18.1673 7.68415 18.1673 7.16667V5.83333ZM3.33398 1.83333H15.6673L16.619 5.16667H2.38482L3.33398 1.83333ZM7.50065 6.5H11.5007V7.16667C11.5007 7.6971 11.2899 8.20581 10.9149 8.58088C10.5398 8.95595 10.0311 9.16667 9.50065 9.16667C8.97022 9.16667 8.46151 8.95595 8.08644 8.58088C7.71137 8.20581 7.50065 7.6971 7.50065 7.16667V6.5ZM6.16732 6.5V7.16667C6.1672 7.51059 6.07839 7.84867 5.90948 8.14825C5.74056 8.44783 5.49725 8.69879 5.20304 8.8769C4.90882 9.055 4.57365 9.15422 4.2299 9.16499C3.88615 9.17575 3.54543 9.09768 3.24065 8.93833C3.19428 8.90224 3.14327 8.87253 3.08898 8.85C2.80655 8.66919 2.57411 8.42026 2.41306 8.1261C2.252 7.83195 2.1675 7.50202 2.16732 7.16667V6.5H6.16732ZM15.5007 15.1667H3.50065V10.4333C3.72012 10.4776 3.94344 10.4999 4.16732 10.5C4.6848 10.5 5.19518 10.3795 5.65803 10.1481C6.12088 9.91667 6.5235 9.58065 6.83399 9.16667C7.14448 9.58065 7.54709 9.91667 8.00994 10.1481C8.47279 10.3795 8.98317 10.5 9.50065 10.5C10.0181 10.5 10.5285 10.3795 10.9914 10.1481C11.4542 9.91667 11.8568 9.58065 12.1673 9.16667C12.4778 9.58065 12.8804 9.91667 13.3433 10.1481C13.8061 10.3795 14.3165 10.5 14.834 10.5C15.0579 10.4999 15.2812 10.4776 15.5007 10.4333V15.1667ZM15.9115 8.85C15.8579 8.87257 15.8075 8.90198 15.7615 8.9375C15.4567 9.09702 15.116 9.17524 14.7722 9.16461C14.4284 9.15399 14.0932 9.05487 13.7988 8.87685C13.5045 8.69882 13.2611 8.44789 13.0921 8.14832C12.9231 7.84874 12.8342 7.51063 12.834 7.16667V6.5H16.834V7.16667C16.8337 7.5021 16.7491 7.83208 16.5879 8.12624C16.4267 8.4204 16.1941 8.66928 15.9115 8.85Z" fill="white"/>
</svg>
