<svg width="25" height="25" viewBox="0 0 25 25" fill="none" xmlns="http://www.w3.org/2000/svg">
<path d="M23.059 16.5693L17.5383 14.0955L17.5231 14.0884C17.2365 13.9659 16.9238 13.9167 16.6134 13.9453C16.303 13.974 16.0047 14.0795 15.7453 14.2525C15.7148 14.2727 15.6854 14.2946 15.6574 14.3181L12.8051 16.7498C10.9981 15.872 9.13243 14.0205 8.2547 12.2369L10.6899 9.34117C10.7133 9.31187 10.7356 9.28258 10.7567 9.25094C10.9259 8.9923 11.0286 8.69584 11.0556 8.38793C11.0826 8.08003 11.033 7.77022 10.9113 7.48609V7.47203L8.43048 1.94195C8.26963 1.57078 7.99305 1.26158 7.64203 1.06051C7.29101 0.859445 6.88437 0.777295 6.48282 0.826325C4.8949 1.03528 3.43733 1.81512 2.38235 3.02019C1.32738 4.22526 0.74714 5.77315 0.750011 7.37476C0.750011 16.6795 8.32032 24.2498 17.625 24.2498C19.2266 24.2526 20.7745 23.6724 21.9796 22.6174C23.1847 21.5624 23.9645 20.1049 24.1734 18.517C24.2226 18.1155 24.1406 17.709 23.9397 17.358C23.7389 17.007 23.43 16.7303 23.059 16.5693ZM17.625 22.3748C13.6481 22.3704 9.83531 20.7887 7.0232 17.9766C4.2111 15.1645 2.62935 11.3517 2.62501 7.37476C2.6206 6.23041 3.03288 5.12359 3.78486 4.26098C4.53683 3.39838 5.57708 2.83898 6.71134 2.68726C6.71088 2.69194 6.71088 2.69665 6.71134 2.70133L9.17228 8.20914L6.75001 11.1084C6.72542 11.1366 6.70309 11.1668 6.68321 11.1986C6.50686 11.4692 6.40341 11.7808 6.38288 12.1031C6.36235 12.4255 6.42543 12.7476 6.56603 13.0384C7.62774 15.2099 9.81564 17.3814 12.0106 18.4419C12.3035 18.5812 12.6275 18.6421 12.951 18.6187C13.2745 18.5953 13.5864 18.4884 13.8563 18.3084C13.8863 18.2881 13.9153 18.2662 13.943 18.2427L16.7918 15.8123L22.2996 18.2791C22.2996 18.2791 22.309 18.2791 22.3125 18.2791C22.1626 19.4149 21.6041 20.4573 20.7413 21.2111C19.8786 21.9649 18.7707 22.3786 17.625 22.3748Z" fill="url(#paint0_linear_30_20249)"/>
<defs>
<linearGradient id="paint0_linear_30_20249" x1="12.4687" y1="0.8125" x2="12.4687" y2="34.585" gradientUnits="userSpaceOnUse">
<stop stop-color="#F27129"/>
<stop offset="1" stop-color="#A3410A"/>
</linearGradient>
</defs>
</svg>
