<svg width="26" height="20" viewBox="0 0 26 20" fill="none" xmlns="http://www.w3.org/2000/svg">
<path d="M24.25 0.625H1.75C1.50136 0.625 1.2629 0.723772 1.08709 0.899588C0.911272 1.0754 0.8125 1.31386 0.8125 1.5625V17.5C0.8125 17.9973 1.01004 18.4742 1.36167 18.8258C1.71331 19.1775 2.19022 19.375 2.6875 19.375H23.3125C23.8098 19.375 24.2867 19.1775 24.6383 18.8258C24.99 18.4742 25.1875 17.9973 25.1875 17.5V1.5625C25.1875 1.31386 25.0887 1.0754 24.9129 0.899588C24.7371 0.723772 24.4986 0.625 24.25 0.625ZM21.8395 2.5L13 10.6035L4.16055 2.5H21.8395ZM23.3125 17.5H2.6875V3.69414L12.366 12.5664C12.539 12.7252 12.7652 12.8133 13 12.8133C13.2348 12.8133 13.461 12.7252 13.634 12.5664L23.3125 3.69414V17.5Z" fill="url(#paint0_linear_30_20263)"/>
<defs>
<linearGradient id="paint0_linear_30_20263" x1="13" y1="0.625" x2="13" y2="27.6432" gradientUnits="userSpaceOnUse">
<stop stop-color="#F27129"/>
<stop offset="1" stop-color="#A3410A"/>
</linearGradient>
</defs>
</svg>
