<svg width="26" height="11" viewBox="0 0 26 11" fill="none" xmlns="http://www.w3.org/2000/svg">
<path d="M6.88285 2.31602H6.95785V2.24102V1.10429V1.02929H6.88285H1H0.925V1.10429V8.4044V8.4794H1H2.49662H2.57162V8.4044V5.6845H6.38782H6.46282V5.6095V4.46234V4.38734H6.38782H2.57162V2.31602H6.88285ZM13.9465 8.43669L13.9669 8.4794H14.0142H15.5799H15.701L15.647 8.37095L12.0091 1.07084L11.9884 1.02929H11.9419H10.4683H10.4219L10.4012 1.07092L6.77476 8.37104L6.72093 8.4794H6.84193H8.38459H8.43221L8.45247 8.43632L9.22657 6.78995H13.161L13.9465 8.43669ZM24.3645 8.33277L24.3119 8.27563L24.2566 8.33013C23.8782 8.70312 23.4363 8.89255 22.9278 8.89255C22.5113 8.89255 22.1402 8.7578 21.7304 8.38957C23.4824 7.89112 24.6721 6.51313 24.6721 4.75435C24.6721 2.53381 22.7858 0.925 20.2569 0.925C17.7278 0.925 15.8417 2.54436 15.8417 4.75435C15.8417 6.8167 17.4908 8.37085 19.764 8.56045C20.3512 9.11615 20.8529 9.49435 21.3466 9.73376C21.8473 9.97653 22.3364 10.075 22.8932 10.075C23.764 10.075 24.5097 9.76533 25.0546 9.18579L25.1024 9.13498L25.0552 9.08364L24.3645 8.33277ZM12.5945 5.57622H9.8039L11.1939 2.63501L12.5945 5.57622ZM20.2569 7.24481C18.6675 7.24481 17.4998 6.19705 17.4998 4.75435C17.4998 3.31164 18.6675 2.26388 20.2569 2.26388C21.8463 2.26388 23.0139 3.31164 23.0139 4.75435C23.0139 6.19705 21.8463 7.24481 20.2569 7.24481Z" fill="url(#paint0_linear_30_20270)" stroke="url(#paint1_linear_30_20270)" stroke-width="0.15"/>
<defs>
<linearGradient id="paint0_linear_30_20270" x1="13" y1="1" x2="13" y2="13.9688" gradientUnits="userSpaceOnUse">
<stop stop-color="#F27129"/>
<stop offset="1" stop-color="#A3410A"/>
</linearGradient>
<linearGradient id="paint1_linear_30_20270" x1="13" y1="1" x2="13" y2="13.9688" gradientUnits="userSpaceOnUse">
<stop stop-color="#F27129"/>
<stop offset="1" stop-color="#A3410A"/>
</linearGradient>
</defs>
</svg>
