<svg width="26" height="26" viewBox="0 0 26 26" fill="none" xmlns="http://www.w3.org/2000/svg">
<path d="M14.4062 12.9989C14.4062 13.277 14.3238 13.5489 14.1693 13.7802C14.0147 14.0114 13.7951 14.1917 13.5381 14.2981C13.2812 14.4045 12.9984 14.4324 12.7257 14.3781C12.4529 14.3239 12.2023 14.1899 12.0056 13.9933C11.809 13.7966 11.675 13.546 11.6208 13.2733C11.5665 13.0005 11.5944 12.7177 11.7008 12.4608C11.8072 12.2038 11.9875 11.9842 12.2187 11.8297C12.45 11.6751 12.7219 11.5927 13 11.5927C13.373 11.5927 13.7306 11.7408 13.9944 12.0045C14.2581 12.2683 14.4062 12.6259 14.4062 12.9989ZM7.84375 11.5927C7.56562 11.5927 7.29374 11.6751 7.06248 11.8297C6.83122 11.9842 6.65098 12.2038 6.54454 12.4608C6.43811 12.7177 6.41026 13.0005 6.46452 13.2733C6.51878 13.546 6.65271 13.7966 6.84938 13.9933C7.04605 14.1899 7.29662 14.3239 7.5694 14.3781C7.84219 14.4324 8.12494 14.4045 8.3819 14.2981C8.63886 14.1917 8.85848 14.0114 9.013 13.7802C9.16753 13.5489 9.25 13.277 9.25 12.9989C9.25 12.6259 9.10184 12.2683 8.83812 12.0045C8.5744 11.7408 8.21671 11.5927 7.84375 11.5927ZM18.1562 11.5927C17.8781 11.5927 17.6062 11.6751 17.375 11.8297C17.1437 11.9842 16.9635 12.2038 16.857 12.4608C16.7506 12.7177 16.7228 13.0005 16.777 13.2733C16.8313 13.546 16.9652 13.7966 17.1619 13.9933C17.3585 14.1899 17.6091 14.3239 17.8819 14.3781C18.1547 14.4324 18.4374 14.4045 18.6944 14.2981C18.9514 14.1917 19.171 14.0114 19.3255 13.7802C19.48 13.5489 19.5625 13.277 19.5625 12.9989C19.5625 12.6259 19.4143 12.2683 19.1506 12.0045C18.8869 11.7408 18.5292 11.5927 18.1562 11.5927ZM25.1875 12.9989C25.188 15.103 24.6436 17.1715 23.6075 19.0028C22.5714 20.8342 21.0788 22.3661 19.275 23.4495C17.4712 24.5329 15.4177 25.1308 13.3142 25.185C11.2108 25.2393 9.12913 24.748 7.27187 23.7591L3.28164 25.0891C2.95127 25.1993 2.59675 25.2153 2.2578 25.1353C1.91886 25.0553 1.60889 24.8825 1.36264 24.6363C1.11638 24.39 0.94358 24.08 0.863591 23.7411C0.783602 23.4022 0.799591 23.0476 0.909765 22.7173L2.23984 18.727C1.37049 17.0925 0.884918 15.2815 0.819997 13.4313C0.755075 11.5811 1.11251 9.74047 1.86516 8.04906C2.61781 6.35765 3.7459 4.85994 5.16381 3.6696C6.58171 2.47926 8.25216 1.62759 10.0484 1.17923C11.8446 0.730868 13.7193 0.697602 15.5303 1.08196C17.3412 1.46631 19.0409 2.25818 20.5001 3.39747C21.9593 4.53675 23.1399 5.9935 23.952 7.65714C24.7642 9.32079 25.1867 11.1476 25.1875 12.9989ZM23.3125 12.9989C23.3121 11.417 22.9477 9.85644 22.2476 8.4379C21.5475 7.01937 20.5305 5.7809 19.2752 4.81832C18.0199 3.85574 16.5599 3.19485 15.0083 2.88678C13.4567 2.57871 11.8551 2.63173 10.3272 3.04172C8.79939 3.45171 7.38636 4.20769 6.19744 5.25116C5.00853 6.29464 4.07561 7.59765 3.47085 9.05937C2.8661 10.5211 2.60572 12.1024 2.70988 13.6808C2.81403 15.2593 3.27991 16.7926 4.07148 18.1622C4.13792 18.2772 4.17917 18.405 4.19251 18.5371C4.20584 18.6692 4.19095 18.8027 4.14883 18.9286L2.6875 23.3114L7.07031 21.8501C7.16577 21.8175 7.26594 21.8009 7.3668 21.8009C7.53145 21.8012 7.69312 21.8448 7.83555 21.9274C9.40328 22.8345 11.1823 23.3126 12.9935 23.3138C14.8047 23.3149 16.5843 22.839 18.1532 21.9339C19.7221 21.0289 21.0249 19.7266 21.9306 18.158C22.8363 16.5895 23.3129 14.8101 23.3125 12.9989Z" fill="url(#paint0_linear_30_20256)"/>
<defs>
<linearGradient id="paint0_linear_30_20256" x1="13" y1="0.816406" x2="13" y2="35.9367" gradientUnits="userSpaceOnUse">
<stop stop-color="#F27129"/>
<stop offset="1" stop-color="#A3410A"/>
</linearGradient>
</defs>
</svg>
