<svg width="30" height="31" viewBox="0 0 30 31" fill="none" xmlns="http://www.w3.org/2000/svg">
<path d="M29.0543 15.0922C28.841 9.58672 24.266 5.1875 18.757 5.1875C16.8407 5.1878 14.9622 5.72148 13.3319 6.72879C11.7016 7.7361 10.3839 9.17729 9.52617 10.891C8.81332 12.3118 8.44061 13.8788 8.4375 15.4684C8.44117 15.7099 8.35353 15.9439 8.19209 16.1236C8.03066 16.3033 7.80734 16.4154 7.5668 16.4375C7.43818 16.4467 7.30905 16.4292 7.18749 16.3863C7.06592 16.3433 6.95452 16.2757 6.86027 16.1877C6.76601 16.0997 6.69092 15.9932 6.63968 15.8749C6.58845 15.7566 6.56217 15.6289 6.5625 15.5C6.56151 14.1887 6.77284 12.8859 7.18828 11.6422C7.21565 11.5624 7.22101 11.4768 7.20378 11.3942C7.18656 11.3117 7.14739 11.2353 7.09041 11.1732C7.03342 11.1111 6.96073 11.0654 6.87999 11.0411C6.79925 11.0168 6.71346 11.0148 6.63164 11.0352C5.00721 11.44 3.56463 12.376 2.53298 13.6945C1.50134 15.013 0.939785 16.6384 0.9375 18.3125C0.9375 22.4363 4.42383 25.8125 8.55469 25.8125H18.75C20.1382 25.811 21.5117 25.5296 22.7886 24.985C24.0655 24.4404 25.2194 23.6439 26.1814 22.6431C27.1433 21.6423 27.8936 20.4578 28.3872 19.1604C28.8808 17.863 29.1077 16.4793 29.0543 15.0922ZM23.1633 16.1633C23.0762 16.2504 22.9728 16.3196 22.859 16.3668C22.7452 16.414 22.6232 16.4382 22.5 16.4382C22.3768 16.4382 22.2548 16.414 22.141 16.3668C22.0272 16.3196 21.9238 16.2504 21.8367 16.1633L19.6875 14.0129V21.125C19.6875 21.3736 19.5887 21.6121 19.4129 21.7879C19.2371 21.9637 18.9986 22.0625 18.75 22.0625C18.5014 22.0625 18.2629 21.9637 18.0871 21.7879C17.9113 21.6121 17.8125 21.3736 17.8125 21.125V14.0129L15.6633 16.1633C15.4874 16.3392 15.2488 16.438 15 16.438C14.7512 16.438 14.5126 16.3392 14.3367 16.1633C14.1608 15.9874 14.062 15.7488 14.062 15.5C14.062 15.2512 14.1608 15.0126 14.3367 14.8367L18.0867 11.0867C18.1738 10.9996 18.2772 10.9304 18.391 10.8832C18.5048 10.836 18.6268 10.8118 18.75 10.8118C18.8732 10.8118 18.9952 10.836 19.109 10.8832C19.2228 10.9304 19.3262 10.9996 19.4133 11.0867L23.1633 14.8367C23.2504 14.9238 23.3196 15.0272 23.3668 15.141C23.414 15.2548 23.4382 15.3768 23.4382 15.5C23.4382 15.6232 23.414 15.7452 23.3668 15.859C23.3196 15.9728 23.2504 16.0762 23.1633 16.1633Z" fill="#636363"/>
</svg>
