<svg width="26" height="22" viewBox="0 0 26 22" fill="none" xmlns="http://www.w3.org/2000/svg">
<path d="M17.2703 8.34453L11.6453 4.59453C11.5041 4.50031 11.3399 4.4462 11.1704 4.43799C11.0008 4.42977 10.8322 4.46776 10.6825 4.54788C10.5328 4.62801 10.4077 4.74728 10.3206 4.89295C10.2334 5.03862 10.1874 5.20523 10.1875 5.375V12.875C10.1874 13.0448 10.2334 13.2114 10.3206 13.357C10.4077 13.5027 10.5328 13.622 10.6825 13.7021C10.8322 13.7822 11.0008 13.8202 11.1704 13.812C11.3399 13.8038 11.5041 13.7497 11.6453 13.6555L17.2703 9.90547C17.3989 9.81989 17.5044 9.70386 17.5773 9.5677C17.6502 9.43154 17.6884 9.27947 17.6884 9.125C17.6884 8.97053 17.6502 8.81846 17.5773 8.6823C17.5044 8.54614 17.3989 8.43011 17.2703 8.34453ZM12.0625 11.123V7.13281L15.0602 9.125L12.0625 11.123ZM23.3125 0.6875H2.6875C2.19022 0.6875 1.71331 0.885044 1.36167 1.23667C1.01004 1.58831 0.8125 2.06522 0.8125 2.5625V15.6875C0.8125 16.1848 1.01004 16.6617 1.36167 17.0133C1.71331 17.365 2.19022 17.5625 2.6875 17.5625H23.3125C23.8098 17.5625 24.2867 17.365 24.6383 17.0133C24.99 16.6617 25.1875 16.1848 25.1875 15.6875V2.5625C25.1875 2.06522 24.99 1.58831 24.6383 1.23667C24.2867 0.885044 23.8098 0.6875 23.3125 0.6875ZM23.3125 15.6875H2.6875V2.5625H23.3125V15.6875ZM25.1875 20.375C25.1875 20.6236 25.0887 20.8621 24.9129 21.0379C24.7371 21.2137 24.4986 21.3125 24.25 21.3125H1.75C1.50136 21.3125 1.2629 21.2137 1.08709 21.0379C0.911272 20.8621 0.8125 20.6236 0.8125 20.375C0.8125 20.1264 0.911272 19.8879 1.08709 19.7121C1.2629 19.5363 1.50136 19.4375 1.75 19.4375H24.25C24.4986 19.4375 24.7371 19.5363 24.9129 19.7121C25.0887 19.8879 25.1875 20.1264 25.1875 20.375Z" fill="url(#paint0_linear_30_20277)"/>
<defs>
<linearGradient id="paint0_linear_30_20277" x1="13" y1="0.6875" x2="13" y2="30.4076" gradientUnits="userSpaceOnUse">
<stop stop-color="#F27129"/>
<stop offset="1" stop-color="#A3410A"/>
</linearGradient>
</defs>
</svg>
